<?xml version="1.0" encoding="utf-8"?>
<!-- Generator: Adobe Illustrator 21.0.0, SVG Export Plug-In . SVG Version: 6.00 Build 0)  -->
<svg version="1.1" id="Layer_1" xmlns="http://www.w3.org/2000/svg" xmlns:xlink="http://www.w3.org/1999/xlink" x="0px" y="0px"
	 viewBox="0 0 650 450" style="enable-background:new 0 0 650 450;" xml:space="preserve">
<style type="text/css">
	.st0{fill:#E6E6E6;}
	.st1{fill:none;stroke:#4A4A4A;stroke-width:1.5;stroke-linecap:round;stroke-miterlimit:10;}
	.st2{fill:none;stroke:#000000;stroke-width:1.5;stroke-linecap:round;stroke-miterlimit:10;}
	.st3{fill:none;stroke:#000000;stroke-width:1.5;stroke-miterlimit:10;}
	.st4{fill:#FFFFFF;}
	.st5{fill:none;stroke:#000000;stroke-miterlimit:10;}
	.st6{fill:#4A4A4A;}
	.st7{fill:#FAFAFA;stroke:#4A4A4A;stroke-width:1.5;stroke-linecap:round;stroke-miterlimit:10;}
	.st8{fill:none;stroke:#E6E6E6;stroke-width:1.5;stroke-linecap:round;stroke-miterlimit:10;}
	.st9{fill:none;stroke:#4A4A4A;stroke-width:2;stroke-linecap:round;stroke-miterlimit:10;}
	.st10{fill:#FFFFFF;stroke:#4A4A4A;stroke-width:2;stroke-linecap:round;stroke-miterlimit:10;}
	.st11{fill:#FAFAFA;}
</style>
<g>
	<polygon class="st0" points="1228.2,359.9 1206.5,452.5 1213.5,452.4 1249.5,315.7 1238.1,313.4 1233.5,336 	"/>
</g>
<g>
	<polygon class="st0" points="1096.9,324.3 1071.8,451.6 1080.9,451.4 1125.2,256.6 1109.8,256.7 1103.8,289.6 	"/>
</g>
<g>
	<polygon class="st0" points="442.3,289.7 436.3,256.8 421,256.7 464.7,449.3 473.8,449.4 449.2,324.4 	"/>
</g>
<polygon class="st0" points="1256.9,234.3 1311.9,247.3 1312.1,231.3 1312,228.2 1309.9,231.2 "/>
<g>
	<polygon class="st0" points="1293.5,357.7 1315.2,450.3 1308.2,450.2 1272.2,313.5 1283.6,311.2 1288.2,333.8 	"/>
</g>
<g>
	<path class="st0" d="M1223.6,398.5c-0.5-2.1,0-4.3-0.3-6.4c-0.2-1.9-0.7-3.8-1-5.8c0-0.1,0-0.2-0.1-0.2l6.2-28.2l5.3-23.9l4.9-20.2
		l10.7,0.9l-23.3,91.9C1225.7,403.8,1224.2,401.3,1223.6,398.5z"/>
</g>
<polygon class="st0" points="1233.8,375.6 1288.9,342 1288,339.4 1232.9,373 "/>
<polygon class="st0" points="1288,375.6 1232.9,342 1233.8,339.4 1288.9,373 "/>
<polygon class="st0" points="1205.8,411.8 1203,387.4 1155.2,310.2 "/>
<g>
	<path class="st1" d="M1194.2,299.2c0,0,10.3,104.8,11.2,112.2l-24.5,4.3"/>
	<path class="st1" d="M1177.1,408.1l3.8,8.4l10.3,25.6c0,0-6.3,5.5-3.3,5.7l16.8,1.4c4.4-4.7,0.9-37,0.9-37"/>
	<path class="st1" d="M1131.8,278.7c-2.4,3.1-4.3,7.1-4.9,12.6c-2,18.4,14.7,41.2,14.7,41.2l8.8,18.7"/>
	<path class="st1" d="M1176.3,265.8c-9.7,1.2-19.4,2.5-29.3,4"/>
</g>
<polygon class="st0" points="1235.8,163.6 1231.2,161.5 1233.9,149.4 "/>
<polygon class="st0" points="1273.1,177.5 1268.4,190.7 1279.6,212.7 "/>
<polygon class="st0" points="1227.9,188.3 1228,188.2 1237.4,222.3 1243.8,220.5 1243,212.5 "/>
<g>
	<polygon class="st0" points="1147.5,268.3 1128.2,262.1 1126.6,256.5 1144.3,256.5 	"/>
	<polyline class="st1" points="1131.7,277.4 1131.8,277.8 1150.3,350.8 1175.4,449.7 1186.1,449.7 1176.8,407.7 1147,269.1 
		1144.1,256.1 1126.3,256.2 1131.7,277.4 	"/>
</g>
<path class="st1" d="M1188.1,235.7c0,0-2.3-4.6,13.3-5.6c8.9-0.5,22.4-5.4,44.6-9.8l42.9-9.3"/>
<path class="st1" d="M1240,236.7c0,0,1.9-9-2.5-14.8"/>
<path class="st2" d="M1280.4,212.9c0,0-6.6-35.3-6.6-35.9"/>
<polyline class="st1" points="1244.6,220.5 1243,212.5 1227.9,187.8 "/>
<path class="st3" d="M1241,231"/>
<path class="st1" d="M1214.6,168.8c0,0-9.2,13.3,3.7,32.4c0,0,5.1,7.9,4.9,12.2"/>
<line class="st1" x1="1259.3" y1="145.1" x2="1232" y2="138.4"/>
<path class="st1" d="M1194.6,128.4c-3.5,0.4,1.5,3.6,1.5,3.6s-3.3,1.5-7.2-0.8c-3.8-2.3,5.1,14.9,14.6,10s10.9-10.8,14.3-8.5
	c1.7,1.2-1.5,5.6,3.8,7.4c5.4,1.8,10.5,3.1,9.7-4.4c-0.8-7.4,2.3-8.7-9-14.1c0,0-3.8-1.5-11.8,3.1
	C1210.7,124.8,1200.3,127.8,1194.6,128.4z"/>
<path class="st1" d="M1203.5,141.2c0,0,4.7,7.2,4.9,9.9c0.2,1.9-2.2,7.2-2.2,7.2l3.4,2.1c0,0,6,17.3,21,0.6l19.4,8.1
	c13.7-0.9,9.2-24.2,9.2-24.2s4.7-6.5,23.1-5.4c12.5,0.7,22.3,3.2,28.6,43.2c2,12.7,6.7,49.1-3.9,48.8c-3.7,0-66,6-97.4,6.9
	c-10.5,0.3-17.3-2.7-17.6-3"/>
<path class="st3" d="M1235.9,163.4"/>
<line class="st1" x1="1230.9" y1="160.9" x2="1233.3" y2="149.1"/>
<path class="st1" d="M1229.4,141.4c0,0,0.3,3.5-2.3,4.8"/>
<path class="st3" d="M1161.6,235.4"/>
<path class="st1" d="M1226.1,212c-2.1,1.4-12,4.7-24.4,8.7c-15.5,4.9-32.1,7.5-32.1,7.5s-5.7,1.6-4.1,5.1c1.5,3.2,4.6,2.5,9.7,2.4"
	/>
<line class="st1" x1="1201.6" y1="230.2" x2="1198.6" y2="221.9"/>
<g id="XMLID_1_">
	<g>
		<path class="st4" d="M1165.4,328.1c0,0-16.7-22.9-14.7-41.2c2-18.3,19-21.2,19-21.2c83.9-13.1,134.8-9.4,141.2-8.9
			c-2.4,18.2-9.1,39.1-26.5,41.9c-31.7,5.2-86.3,2-86.3,2s41.7,96.7,44.8,103.5l-22.8,11.9C1217.1,408.3,1165.4,328.1,1165.4,328.1z
			"/>
	</g>
	<g>
		<path class="st3" d="M1310.9,256.8c2-15.1,1.9-32.7,1.9-32.7"/>
		<path class="st1" d="M1280.4,256.5c-19.9-0.7-45.4-1-110.8,9.2c0,0-17,2.9-19,21.2c-2,18.3,14.7,41.2,14.7,41.2s51.7,80.2,54.7,88
			l22.8-11.9c-3.1-6.8-44.8-103.5-44.8-103.5s54.6,3.3,86.3-2c17.4-2.9,24-23.7,26.5-41.9"/>
		<path class="st3" d="M1311.6,256.8c0,0-0.2,0-0.7-0.1"/>
	</g>
</g>
<path class="st3" d="M1201.4,303.5"/>
<path class="st3" d="M1295.4,16.4"/>
<path class="st1" d="M1198,300.3c0,0,2.7-5.2,2.4-13.1"/>
<path class="st1" d="M1196,290.3c0,0,0,5,2,10"/>
<path class="st1" d="M1221,416.3l17.6,21.2c0,0-4.3,7.1-1.4,6.4l16.4-3.8c2.8-5.8-10.4-35.6-10.4-35.6"/>
<path class="st1" d="M1184.6,425.1c0,0,14.1,0.3,21.4-2.7"/>
<path class="st1" d="M1185.7,428.1c0,0,13.5,0.5,20.8-2.5"/>
<path class="st1" d="M1225.6,421.1c0,0,14.3-4.6,20.5-10"/>
<path class="st1" d="M1227.6,423.6c0,0,13.2-4.1,19.5-9.4"/>
<path class="st5" d="M1206.8,442.2"/>
<path class="st6" d="M1238.3,436c0,0,5.6,4.1,10.3,1.1c2.2-1.4,4.2-6.5,4.2-6.5s2.3,9.8,0.2,9.8c-2.1,0.1-16.5,3.2-16.5,3.2
	L1238.3,436z"/>
<path class="st6" d="M1191.4,440.8c0,0,4.2,5.3,9.6,3.8c2.6-0.7,5.9-4.6,5.9-4.6s-0.6,10-2.7,9.5c-2-0.5-17-2.3-17-2.3L1191.4,440.8
	z"/>
<path class="st1" d="M1213.6,147.4c0,0,2.1-2.5-0.1-3.2s-3,1.7-3,1.7"/>
<path class="st1" d="M1214.3,163.1c0,0,2.6-1.8,2.8-4.9"/>
<path class="st0" d="M1391.7,97.2c-2-7.9-7.9-8.6-7.8-8.5l10.3,24.2C1394.2,112.9,1393.7,105.1,1391.7,97.2"/>
<path class="st0" d="M1394.5,112.3"/>
<polygon class="st0" points="1396.4,111.8 1428.3,115.8 1425.8,106.4 "/>
<polygon class="st0" points="1353.4,48.4 1347.3,64.3 1344.3,55.5 "/>
<polygon class="st0" points="1380,215.4 1384.1,276.4 1387.1,247 "/>
<path class="st0" d="M1340.3,123.8c-1.1,0-18.9-3.6-18.9-3.6l16.3-1.9L1340.3,123.8z"/>
<path class="st1" d="M1345.8,61.2c-4.4-0.2-17.7,6.4-21.8,9.2c-4.2,2.8-7,10.9-7.9,19s2.2,30.3,2.2,30.3l19.6-1.4
	c0,0-6.7-14.8-8.3-20.6"/>
<path class="st3" d="M1392.7,104.5"/>
<path class="st3" d="M1388.4,100.7"/>
<path class="st1" d="M1344.3,55.5c0,0,2.9,11.3,5.6,13.9c1.7,1.7,10.1,9.5,18.3-3.7c0,0,3.7-7.6,4.2-11.4c0,0,11.1-7,27.4-4.4
	c16.2,2.5,22.5,27.4,22.9,33.1c0.3,4.8,3.9,17.9,5,21.6c0.2,0.6-0.2,1.1-0.8,1.3l-32.3,6.1l-7.1-29.9"/>
<path class="st3" d="M1337.8,118.3"/>
<path class="st3" d="M1421.7,165.9"/>
<path class="st1" d="M1359.3,175.4c6.5-1.5,15.3-3.5,23.5-5.1"/>
<path class="st1" d="M1337.5,118c4.2,4.2,2.4,6.8,2.4,6.8"/>
<path class="st1" d="M1394.6,112.1l7.5,26.8c0,0-26.6,0.2-42.8,4.7c0,0-7.9,0.2-12.5,6.7s8.1,7.9,10.7,2.5c0,0,8.8-2.2,11.1-1.8
	c6.5,1.2,28.4,11.6,28.4,11.6s5.6,1.9,15.9,2.7s13-1,15.1-2.1s5.9-2.8,5.9-13.5s-7.6-43.7-7.6-43.7"/>
<path class="st1" d="M1423.6,191.2l25.5,236.2l-33.2,1.9c0,0-24.3-162.4-28.4-181.6c-3.2-15.4-6.4-30.1-7.4-32.8"/>
<path class="st3" d="M1388.4,287.7"/>
<path class="st1" d="M1382.7,170.2c1.5,8.4,5.6,26.1,7.4,27.3c9.3,6.1,35.3-7.6,35.3-7.6s8.6-1.9,7.9-4.8
	c-0.8-2.9-4.6-22.5-4.6-22.5"/>
<path class="st1" d="M1380.5,155.5c1.8,11.9,0.7,6.4,2.2,14.8"/>
<path class="st1" d="M1353,23.2c-2-9.1-22-1.4-32.4-6.3c-6.7-3.2-2.8-11.8,8.8-12c7.1-0.2,21.5,6.1,23.7,9.9
	c0.3,0.4,0.8,0.5,1.2,0.2c0.7-0.6,2.1-1.5,5.4-2.2c6.3-1.4-1.9,10.8-1.9,10.8l-2.1,8.7l17,22.1c0,0,2.3,47.9,6,85.7"/>
<path class="st1" d="M1329.4,19.6c0,0-1.8,7.9,1.2,10.9c0,0-9.7,20,2.8,24.8s20.8-8.7,20.8-8.7"/>
<path class="st1" d="M1353.1,23l-1.3,6.5c0,0,3.1-1,3.1,1s-0.3,3.9-2.1,3.9"/>
<line class="st1" x1="1333.2" y1="424.4" x2="1341.5" y2="205.4"/>
<path class="st1" d="M1387.5,247.7l-17.4,182.4c0,0-37.2-5.8-32.9-3c4.3,2.8,11.5,3.3,11.5,3.3v13.3c0,0-6.7,5.9-3.2,5.9
	c6,0,19.3,0.1,19.3,0.1c0.9-1,2.7-8.4,4.8-19.4"/>
<line class="st1" x1="1321.6" y1="119.7" x2="1312.6" y2="182.1"/>
<path class="st1" d="M1343.8,34c0,0-1,3-4,4"/>
<path class="st1" d="M1331.3,27.2c-0.2-3,3-3.5,4.2-1.1c0.8,1.8-0.5,8.2-0.5,8.2l3.9-0.9"/>
<path class="st1" d="M1343.7,28.1c0,0,0.7-2.5-1.6-3.1c-2.3-0.6-1.8,2.6-1.8,2.6"/>
<path class="st1" d="M1428.4,428.4c2,12.4,4.6,20,5.4,21.1c0,0,12.2-0.2,17.6-0.1c3.2,0-3-6.5-3-6.5l0.1-15.3"/>
<path class="st1" d="M1384.4,88.2c0,0,4.9,2.2,6.1,7.2"/>
<path class="st1" d="M1373.8,71.8c0,0,7.4-1.5,6.9-8.6c-0.5-7-5.7-10.5-5.7-10.5"/>
<line class="st1" x1="1356.5" y1="144" x2="1346.6" y2="62.9"/>
<path class="st1" d="M1357.5,152.1l4.3,52.4c-7.8,4.7-26.3-0.6-26.3-0.6l4.7-81.6"/>
<path class="st3" d="M1335.1,149.8"/>
<path class="st3" d="M1343.3,123.6"/>
<path class="st1" d="M1346.5,80.6c0,0-6.9-1.5-6.4-8.6c0.5-7,5.3-10.5,5.3-10.5"/>
<path class="st1" d="M1315.3,288.3c-5.3,29.3-68,28.6-97.9,23.6c-2.7-0.5-6.7-7.4-3.2-10.3"/>
<path class="st1" d="M1315.3,288.3c11.4-47.7,22.4-91.9,16.2-98.5c-10.1-11-20.6-6.5-20.6-6.5"/>
<line class="st1" x1="1328.6" y1="186.1" x2="1337.1" y2="169.1"/>
<path class="st1" d="M1145.1,235.6h-4.7l-14.8-66.7c-0.1-0.6,0.2-1.1,0.8-1.2l2.9-0.5c0.5-0.1,1,0.2,1.2,0.8L1145.1,235.6z"/>
<path class="st7" d="M1140.6,235.7h67.6c1.1,0,2,0.9,2,2v6.8h-69.6V235.7z"/>
<line class="st1" x1="1245.1" y1="236.6" x2="1246.4" y2="244.7"/>
<path class="st1" d="M1055.4,224.6h-5.7V236c0,0,5.7-0.4,7,2.5"/>
<path class="st8" d="M1068.9,217.4c0.8,1.1,2.4,2.2,3.7,2.7"/>
<path class="st8" d="M1066.1,203c0,2.7,0.3,5.5,1.3,7.9"/>
<path class="st8" d="M1063.5,214c0.9,3.3,3.2,6.2,6.5,6.2"/>
<path class="st8" d="M1061.5,205.8c0,1.5,0.1,3.1,0.4,4.6"/>
<path class="st8" d="M1060.1,129c2.2-3.9,4.9-7.3,6.7-11.7"/>
<path class="st8" d="M1060.2,151.8c-5.3-5-4.5-14-1.3-20.7"/>
<path class="st8" d="M1071.6,167.5c-0.3-7.3-7.6-10.6-11.3-13.6"/>
<path class="st8" d="M1056.7,197.2c0.7-2.1,1.7-4.1,3-5.8l1.2-1.4c1.1-1.1,2.2-2.2,3.2-3.3"/>
<path class="st8" d="M1061.1,220.1c-3.6-5.8-6.2-13.4-4.9-20.6"/>
<path class="st8" d="M1063.3,147.6c-5.6-11.7,4.9-21.1,8.2-30.3"/>
<path class="st8" d="M1075.2,181c2.5-5,3.8-11.6,1.6-17.2"/>
<path class="st8" d="M1064.6,192.9c2.8-2.7,5.6-5.5,7.9-8.8"/>
<path class="st8" d="M1055.7,190.8c0.7-2.1,1.7-4.1,3-5.8l1.2-1.4c1.1-1.1,2.2-2.2,3.2-3.3"/>
<polygon class="st0" points="1480.5,394.4 1528.7,406.5 1531.6,394.3 "/>
<path class="st3" d="M1506.1,391.3"/>
<polyline class="st9" points="1531.6,394.3 1522,449.7 1490.1,449.7 1480.5,394.4 "/>
<path class="st9" d="M1476.3,383.9h59.5c0.6,0,1,0.4,1,1v8.4c0,0.6-0.4,1-1,1h-59.5c-0.6,0-1-0.4-1-1v-8.4
	C1475.3,384.4,1475.7,383.9,1476.3,383.9z"/>
<g>
	<polyline class="st9" points="1518.1,331.1 1518.2,383.9 1496.5,383.9 1496.5,333.3 	"/>
	<path class="st9" d="M1501,335.7c0,0-19.2-9.9-25.8-30.8c-6.6-20.9-6.2-63.8-3.2-69.9s9.4-5,9.4-5s6.9-0.9,7.2,13.4
		s-2.8,62.7,9.5,70.7"/>
	<line class="st9" x1="1497" y1="218.1" x2="1497" y2="312.7"/>
	<path class="st9" d="M1516.3,331.8c0,0,11-3.7,15.4-26.4c4.4-22.6,3.3-41.6,3.3-41.6l-0.2-9.4c0,0-1.6-4.6-6.6-4.7
		c-5-0.2-6.3,6.9-6.3,6.9s0.6,24.2-0.3,32.1s-3.1,26.6-11,33.5"/>
	<line class="st9" x1="1518" y1="291.1" x2="1517.4" y2="309.7"/>
	<path class="st9" d="M1514,293.1c0,0,5.9-3.8,7.7-5.9"/>
	<path class="st9" d="M1535.4,264.8c0,0,3.5-4.1,4.8-28.9s1-27.8,1-27.8s-0.6-5.9-7-6.8c-3.7-0.5-5.6,2.7-6.4,5.4
		c-0.5,1.7-0.8,3.5-0.7,5.3c0.1,6.8,0.2,33.9-1.5,38.3"/>
	<path class="st9" d="M1516.4,275.7c0,0,4.9-5,5.6-9.3"/>
	<path class="st9" d="M1518,273.4l-0.2-103.3c0,0-0.5-12.2-10.5-12.5s-10.7,14.3-10.7,14.3v22.6"/>
	<path class="st9" d="M1497.9,199.3c-0.8-1.9-2.5-9.9-3.1-13.8c-3-19.4-2.1-36.7-2.1-40.2s0.7-12.8-6.3-13.3
		c-6.9-0.5-7.9,7.9-7.9,7.9s-0.2,46.6,6.7,61.1c6.9,14.5,20.4,25,20.4,25"/>
</g>
<path class="st6" d="M1349.3,442.6c0,0,4.9,5.5,11.3,4c3-0.7,7.1-5,7.1-5s-0.8,10-3.2,9.5c-2.4-0.5-19.8-1.6-19.8-1.6L1349.3,442.6z
	"/>
<path class="st6" d="M1448.4,442.4c0,0-4.6,5.5-10.6,4.1c-2.8-0.7-6.6-5-6.6-5s0.7,10,3,9.5s18.5-1.7,18.5-1.7L1448.4,442.4z"/>
<path class="st1" d="M1348.8,432.8c0,0,13,2.1,20,0"/>
<path class="st1" d="M1349.3,435.9c0,0,12,2.1,19,0"/>
<path class="st1" d="M1429.9,432.4c0,0,12.4,1.9,19.2-0.3"/>
<path class="st1" d="M1430.5,435.5c0,0,11.5,2,18.2-0.2"/>
<path class="st1" d="M1056.6,220.2h18.6c0.5,0,1,0.4,1,1c0.1,4.5,0,23.1-5.5,23.1c-6.3,0-5.8,0.2-10.4,0c-4.6-0.2-4.7-18.6-4.7-23.1
	C1055.7,220.7,1056.1,220.2,1056.6,220.2z"/>
<path class="st0" d="M423.7,178.7c0,0,27.7,46.3,19,59l-40,1v5.4l59.6-0.4c-0.1-22.7-37.7-69.4-37.7-69.4L423.7,178.7z"/>
<g>
	<polygon class="st0" points="231.7,364.2 212.8,450.2 219.8,450.1 253,320 241.6,317.7 237,340.3 	"/>
</g>
<g>
	<path class="st0" d="M301.6,404.9c0.5-2.1,0-4.3,0.3-6.4c0.2-1.9,0.7-3.8,1-5.8c0-0.1,0-0.2,0.1-0.2l-6.2-28.2l-5.3-23.9l-4.6-22.5
		l-11.4,2.2l23.7,93C299.5,410.2,300.9,407.8,301.6,404.9z"/>
</g>
<path class="st1" d="M216.9,207.6c0,0-8.6-2.5-13.8,4.9s13.2,36.5,16.4,77.7c3.8,49.4,85.8,23.3,85.8,23.3s8.8-1.4,8.8-6.5l-0.7-2.9
	"/>
<polygon class="st0" points="401.3,267.2 419.7,261.4 421.3,256.2 404.3,256.2 "/>
<path class="st3" d="M380.7,360.7"/>
<polyline class="st1" points="401.7,329.4 421.1,256.7 404,256.8 391.9,309.3 "/>
<polyline class="st1" points="390,376.2 374.7,449.8 364.6,449.8 380.5,361.8 "/>
<polygon class="st0" points="257,160.5 254.5,169 248.5,156 "/>
<polygon class="st0" points="268.5,213.7 275,207.5 277.5,219.1 "/>
<polygon class="st0" points="316.7,307.1 349.2,353.4 357.7,318.1 350,301.5 318.6,304.3 "/>
<path class="st1" d="M230,251.9c0,24.9,2,38.5,3.8,45.7c1.1,4.4,5,7.6,9.5,7.8c53.7,2.1,106.4-4.4,106.4-4.4l8.5,18.9l-25.7,99
	c-0.1,0.5-0.7,0.8-1.2,0.7l-30.9-7.3c0,0,7.4-70.4,17.4-107.5"/>
<path class="st1" d="M300,412.5c0,0-6,32-2,37c0,0,11.6-0.1,16.8-0.1c3,0-2.8-5.9-2.8-5.9l12.3-24.7"/>
<path class="st1" d="M350,301.5c0,0,2.7-5.2,2.4-13.1"/>
<path class="st1" d="M348,291.5c0,0,0,5,2,10s2,5,2,5s14.9,32.2,28.3,54.9l9.9,15.1c1,1.3,2,2.5,2.9,3.4"/>
<path class="st1" d="M438,395.5l-18,2l-14-21c0,0-14,9-8.3,2.6s20-17,20-17l11.3,25.4c0,0,0.8,2.5,8.6,5.9
	C440,394.5,438,395.5,438,395.5z"/>
<path class="st1" d="M418,362.5c0,0-7.2-15.1-16.2-33.3l-10-20c-9.4-18.4-18.6-35.7-22.8-40.7"/>
<path class="st1" d="M243,265.5c0,0,52-10,123,2"/>
<path class="st1" d="M219.8,180.6c-1.6,1.3-10.3,11.6,6.2,63.8c0,0,2.7,8.3,10.4,13.3c3.9,2.6,16.5,6.1,16.5,6.1"/>
<path class="st1" d="M236.2,194.5c-3.5-6.8-9.5-13.2-16.2-14c0,0-0.1,0-0.2,0.2"/>
<path class="st1" d="M300.8,261.4c-15.2-8.1-53.8-18.9-53.8-18.9s-6-36-9-44c-0.5-1.3-1.1-2.7-1.8-4"/>
<path class="st1" d="M219.9,180.7c5.2-5.7,13.1-10.2,13.1-10.2s13,13,22,3c0,0,20.5,0.4,64.5,47.4"/>
<path class="st1" d="M231,172.5c0,0,6,14,16,8"/>
<path class="st1" d="M316,226.5l31.6-46.4c0.2-0.3,0.2-0.7,0-1c-0.4-0.5-0.8-1.8,0.9-4.7c3-5,18.7-7.9,15.9-0.9"/>
<path class="st1" d="M364.3,172.7l14.2-3.9"/>
<path class="st1" d="M268,213.5l52,30c0,0,2,1,4,0s6-7,6-7s19.9-44.5,21.9-51.5c0.1-0.3,0.3-0.6,0.6-0.8c1-0.6,3.5-2.2,6.5-3.7
	c4-2,5.1-6.7,5.1-6.7"/>
<path class="st1" d="M233,170.5l10.3-21.4c0,0-4.7-5.7-3.7-9.5c0.6-2.2,4.7-6.7,6.7-9.3c10.5-13.8,31.6-1.8,30.7,7.2
	c1.8,7.8-2,25,9,34s1,19,1,19"/>
<path class="st1" d="M271.7,142.5c1.1,6.1,1.9,16.1-6.6,18.3c-3.1,0.8-12.1,1.7-17.1-6.3"/>
<path class="st1" d="M270.8,138.8c0.4,1.1,0.7,2.4,0.9,3.7"/>
<path class="st1" d="M247,141.9c0.5-2,4.7-3.1,6-4.5c1.7-1.8,0-8.3,7-7c5.5,1,7.7,1.4,9.7,5.4c0.3,0.7,0.7,1.7,1.1,2.8"/>
<path class="st1" d="M256.9,160.9c0,0-3,9.2-1.7,12.4"/>
<path class="st1" d="M255.4,173.7c0,0,2.6,4.4,0.6,5.8c-1.2,0.8-5,2-7-1"/>
<line class="st1" x1="267.5" y1="212.4" x2="275" y2="251.5"/>
<line class="st1" x1="246.8" y1="240.9" x2="272.8" y2="239.9"/>
<path class="st1" d="M265.7,177c0,0-0.2,11.2,6.3,21.6c5.7,9.1,0.3,12.7-2.3,13.4c-2.4,0.6-9.7-0.1-9.7-0.1"/>
<path class="st1" d="M258,148.5c0,0,1,3,4,4"/>
<path class="st1" d="M265.3,148.8c0,0,0.5-6,1.6-7.6c0.5-0.8,1.3-2.8,2.3,0.3"/>
<path class="st1" d="M260,139.3c0,0,0.8-2.5,3-1.7s0.1,3.2,0.1,3.2"/>
<path class="st9" d="M111.6,303.2c0,1.9,32.6,32.7,46,79.2"/>
<path class="st9" d="M162.3,389c0,0,5.4-36.6,23-53.1"/>
<polygon class="st0" points="128.5,393.9 176.7,406 179.7,393.8 "/>
<path class="st3" d="M154.1,390.8"/>
<polyline class="st9" points="179.7,393.8 170,449.2 138.2,449.2 128.5,393.9 "/>
<path class="st3" d="M181.3,390.8"/>
<path class="st10" d="M124.3,383.4h59.5c0.6,0,1,0.4,1,1v8.4c0,0.6-0.4,1-1,1h-59.5c-0.6,0-1-0.4-1-1v-8.4
	C123.3,383.8,123.7,383.4,124.3,383.4z"/>
<path class="st9" d="M147.4,367.3c-7.1-0.1-20-0.2-24.7-6.5c-3.8-5-1.2-9.5,2.8-12.6c1-0.8,0.9-2.4-0.3-3c-5.2-2.7-11.1-4-16-7.3
	c-1.8-1.2-4.2-2.9-3.2-5.3c0.7-1.6,2.9-3.1,4.9-4.3c1-0.6,1.1-2.1,0-2.7c-4.3-2.5-8.2-6.4-11.4-9.7c-1.1-1.1-4.2-3.9-3.8-5.7
	c0.3-1.6,3-2.1,5.3-2.2c1,0,1.5-1.2,0.8-1.9c-3.6-4-7-9.7-8.2-14.4c-2.4-9.6,9.7-5.2,13.2-1.2c2.8,3.2,6.1,8.2,8.5,2.2
	c0.7-1.8,2.3-9,5-6c2.3,2.6,3.6,22.1,8.3,20.9c2.8-0.7,1.8-7.8,5.4-7.7c3,0.1,4.7,5.7,5.3,7.9c1.8,6,2.4,12.4,2.6,18.6
	c0,1.4,1.9,1.9,2.6,0.7c1.7-2.9,3.6-6.3,5.8-5c5.5,5.7,4.5,15.7,4.9,23.8"/>
<path class="st9" d="M168.6,377.1c6.3-1.1,10.3-2.6,16.1-5.3c1.6-0.7,3.3-1.7,4.1-3.3c1-1.9,0.3-4.5-1.5-5.6
	c-1.1-0.7-2.9-1.3-4.4-1.7c-1-0.3-1.2-1.6-0.3-2.1c6.3-3.4,19.4-8.9,14.9-11.4c-1.1-0.6-3.7-1.3-5.7-1.7c-0.9-0.2-1.2-1.4-0.4-2
	c5-3.8,14.3-12.9,9.5-13c-1.2,0-3.3,0-5.1,0.2c-0.8,0.1-1.4-0.8-1-1.5c1.3-2.1,3.3-5.5,4.1-7.8c0.6-1.7,1-3.8-0.3-5.1
	c-0.8-0.8-2.1-1-3.2-1c-9.2-0.1-11.3,9.3-13.9,9.3c-2.5,0-6-6.4-8.6-5.4c-2.2,0.9,0.5,13.1-2.6,15.4c-1.9,1.4-5.5-4.8-8-3.9
	c-5.6,2.1-2.6,13.9-1,18.9c0.3,0.9-0.7,1.6-1.5,1.2c-2.5-1.5-6.2-4.1-7.5-3.3c-3.7,2.2,1,14.2,2,15.8c0.9,1.6,6.1,9.8,8.1,12.1"/>
<path class="st1" d="M336.3,244.7v-2.9c0-0.5,0.4-0.9,0.8-1l41.2-7.1c0.6-0.1,1.2,0.4,1.2,1l-0.2,9.8L336.3,244.7z"/>
<path class="st6" d="M416.3,391.9c0,0,3.5-1.6,7.4,0.3c3.9,1.9,4.7-5.7,4.7-5.7l2.9,4c0,0,6,1.9,6.9,3.6c0.2,0.4-0.3,1.1-0.3,1.1
	l-17.9,2.3L416.3,391.9z"/>
<path class="st6" d="M296.8,441.8c0,0,3,0,6.5,2.6c3.5,2.7,9.9-4.4,9.9-4.4l-1.2,4c0,0,3,2.2,3.5,4.2c0.1,0.4-0.5,1.2-0.5,1.2
	l-16.9-0.7L296.8,441.8z"/>
<polygon class="st0" points="291.4,382.1 236.2,348.5 237.2,345.9 292.3,379.5 "/>
<polygon class="st0" points="237.2,382.1 292.3,348.5 291.4,345.9 236.2,379.5 "/>
<g>
	<g>
		<rect x="-1.2" y="448.5" class="st6" width="330" height="1.5"/>
	</g>
	<g>
		<path class="st6" d="M395.3,450h-68.3v-1.5h68.3c0.4,0,0.8,0.3,0.8,0.8l0,0C396,449.7,395.7,450,395.3,450z"/>
	</g>
	<g>
		<path class="st6" d="M417.3,450H413c-0.4,0-0.8-0.3-0.8-0.8l0,0c0-0.4,0.3-0.8,0.8-0.8h4.2c0.4,0,0.8,0.3,0.8,0.8l0,0
			C418,449.7,417.7,450,417.3,450z"/>
	</g>
	<g>
		<path class="st6" d="M475.7,450h-35.9c-0.4,0-0.8-0.3-0.8-0.8l0,0c0-0.4,0.3-0.8,0.8-0.8h35.9c0.4,0,0.8,0.3,0.8,0.8l0,0
			C476.5,449.7,476.1,450,475.7,450z"/>
	</g>
	<g>
		<path class="st6" d="M487.2,449.8H483c-0.4,0-0.8-0.3-0.8-0.8l0,0c0-0.4,0.3-0.8,0.8-0.8h4.2c0.4,0,0.8,0.3,0.8,0.8l0,0
			C488,449.5,487.6,449.8,487.2,449.8z"/>
	</g>
</g>
<g>
	<path class="st0" d="M419.2,123.3l-0.4,0l-5.6-0.5l-1.2-0.1c0.1,0.1,0.2,0.1,0.3,0.2c2.6,1.5,9.9,7.2,9.3,18.5
		c-0.1,1.3-2.3,57.4-3,71c-2.3,9.4-9.4,13.1-12,14.1c-0.2,0.1-0.3,0.1-0.4,0.1l0,0l0.9,0.1l6.4,0.7c0.3,0,0.5,0.1,0.8,0.1
		c3.7,0,6.7-3.7,6.9-8.4l0,0l4.3-85.7l0-0.5C425.7,128,422.9,123.7,419.2,123.3z"/>
	<path class="st11" d="M418.6,212.4c0.6-13.6,2.9-69.7,3-71c0.5-11.3-6.8-17.1-9.3-18.5c-0.1-0.1-0.2-0.1-0.3-0.2l-0.2,0l-5.6,103.9
		c0.1,0,0.3-0.1,0.4-0.1C409.2,225.5,416.3,221.8,418.6,212.4z"/>
	<path class="st6" d="M419.3,121.8l-0.4,0l-8.6-0.7l-5.7,106.9l8.7,0.9c0.3,0,0.6,0.1,0.9,0.1c4.4,0,8.2-4.3,8.4-9.8l0.2-4.6l3-60.6
		l1-21.1C427.3,127.2,423.9,122.3,419.3,121.8z M425.5,132.8l0,0.5l-4.3,85.7l0,0c-0.2,4.7-3.3,8.4-6.9,8.4c-0.2,0-0.5,0-0.8-0.1
		l-6.4-0.7l-0.9-0.1l0,0l5.6-103.9l0.2,0l1.2,0.1l5.6,0.5l0.4,0C422.9,123.7,425.7,128,425.5,132.8z"/>
</g>
<path class="st3" d="M1250.1,250.5"/>
<path class="st1" d="M247.6,147.3c0,0,1,1.5-4.3,1.7"/>
<path class="st1" d="M248.6,142.2"/>
<g>
	<g>
		<path class="st6" d="M1595.5,450.1h-363.9c-0.4,0-0.8-0.3-0.8-0.8l0,0c0-0.4,0.3-0.8,0.8-0.8h363.9c0.4,0,0.8,0.3,0.8,0.8l0,0
			C1596.3,449.8,1595.9,450.1,1595.5,450.1z"/>
	</g>
	<g>
		<path class="st6" d="M1215,450.1h-53.3c-0.4,0-0.8-0.3-0.8-0.8l0,0c0-0.4,0.3-0.8,0.8-0.8h53.3c0.4,0,0.8,0.3,0.8,0.8l0,0
			C1215.8,449.8,1215.4,450.1,1215,450.1z"/>
	</g>
	<g>
		<path class="st6" d="M1150.7,450.1h-10.4c-0.4,0-0.8-0.3-0.8-0.8l0,0c0-0.4,0.3-0.8,0.8-0.8h10.4c0.4,0,0.8,0.3,0.8,0.8l0,0
			C1151.5,449.8,1151.1,450.1,1150.7,450.1z"/>
	</g>
	<g>
		<path class="st6" d="M1094.9,450.1h-37.4c-0.4,0-0.8-0.3-0.8-0.8l0,0c0-0.4,0.3-0.8,0.8-0.8h37.4c0.4,0,0.8,0.3,0.8,0.8l0,0
			C1095.7,449.8,1095.4,450.1,1094.9,450.1z"/>
	</g>
	<g>
		<path class="st6" d="M1050.2,450.1h-4.2c-0.4,0-0.8-0.3-0.8-0.8l0,0c0-0.4,0.3-0.8,0.8-0.8h4.2c0.4,0,0.8,0.3,0.8,0.8l0,0
			C1051,449.8,1050.6,450.1,1050.2,450.1z"/>
	</g>
</g>
<path class="st7" d="M1250.4,256.2H300.7c-1.1,0-2-0.9-2-2v-7.4c0-1.1,0.9-2,2-2h949.7c1.1,0,2,0.9,2,2v7.4
	C1252.4,255.3,1251.5,256.2,1250.4,256.2z"/>
<path class="st5" d="M425.5,150.6"/>
<g>
	<g id="XMLID_2_">
		<g>
			<path class="st4" d="M-383.5,73.8l4,4c0,0-1.1,13-14.3,11.1L-410,62.1c0,0-5.1-6.4-7.4-13.5c-2.2-6.4-0.7-9.6,1.6-6.9
				c5.7,7-0.1-22.5,3-29.3c1.6-3.7,7.5,22,11.8,33.4C-397.9,53.9-383.5,73.8-383.5,73.8z"/>
			<path class="st4" d="M-306,211.5h-0.4l-87.5-122.6l0,0c13.2,1.8,14.3-11.1,14.3-11.1l43.2,42.8c-2.4,9,1.6,15.8,16.9,17.6
				c6.1,0.7,6.7,21.4,15.1,26.5c2.2,1.4,5.1,1.6,8.7,0c3.1-1.3,6.8-4,11.4-8.2c0,0,2.4,0.1,5.8-0.2l0,0.3l3.3,7.7l-8.7,13l8.3,55.7
				l11.3,84.6l0.2,0v0v0l-2.2,46.8c-7.8,3.2-20.6,0.4-29.9-2.5c-0.1,0-0.1,0-0.2,0l-0.1,0c-6.5-2-11.2-4.1-11.2-4.1L-306,211.5z"/>
		</g>
		<g>
			<path class="st9" d="M-160.2,510.1c0-0.3,0-0.7,0-1c0-0.1,0-0.1,0-0.2c-2.1-66.1-5.9-121.8-13.3-152.5c-0.1-0.3-0.1-0.5-0.2-0.8"
				/>
			<path class="st9" d="M-257.8,493.4c3.1,0.1,6.3,0.3,9.5,0.5c8.1,0.4,16.3,0.9,24.4,1.6c0,0,0,0,0.1,0c16.4,1.3,32,2.9,43.2,4.9
				c0.9,0.1,2,0.5,3,0.6c5,1,8.9,2.2,11.3,3.5c3.7,2,5.6,3.5,6.2,4.7l0,0c0.3,0.2,0.4,0.5,0.4,0.8c0,3.7-16.4,2.4-16.4,2.4"/>
			<path class="st9" d="M-271.4,492.8c3.6,0.1,7.4,0.3,11.2,0.5"/>
			<path class="st9" d="M-296,362c-6.6,52.8-12.2,129.7-12.2,129.7s3.2,0.1,8.7,0.3c0,0,0.1,0,0.1,0c1.6,0.1,3.4,0,5.5,0.1
				c5.6,0.2,12.6,0.4,20.4,0.7"/>
			<polyline class="st9" points="-175.2,542.9 -175.3,542.1 -175.9,527.6 -176.4,512.5 -176.4,512.4 -176.3,504.8 			"/>
			<path class="st9" d="M-223.9,495.1l0,0.1l0,0.2l0.1,0.3l0,0.3l1.1,12.5v0.1l0.2,22.6l0.3,33.5l0.1,16c0.1,11.3,11,19.4,21.9,16.1
				l125.1-37.6l32.6-6.2l7.8,7.5c0.3,0.3,0.8,0.2,0.8-0.3l1.5-31l-42.4,3.7l-53.4,4.7l-35.8,3.2l-10.8,1"/>
			<polyline class="st9" points="-223.1,508.7 -250.3,505.6 -250.6,505.5 			"/>
			<line class="st9" x1="-299.6" y1="499.1" x2="-299.7" y2="499"/>
			<polyline class="st9" points="-299.7,499 -299.9,498.8 -308.4,491.9 -308.5,491.8 -308.7,491.8 			"/>
			<path class="st9" d="M-299.5,491.3l-0.1,0.5l0,0.2l-0.4,6.9l0,0.1l-1.6,62.2c-0.3,11.1,10,19.5,20.8,17l58.4-13.3l0,0"/>
			<polyline class="st9" points="-175.9,527.6 -165.2,526.8 -165.1,526.8 -129.7,524 -128.2,537.9 -128.2,538.5 			"/>
			<polyline class="st9" points="-255.3,533.9 -255,533.9 -222.8,531.3 			"/>
			<polyline class="st9" points="-248.9,496.7 -250.3,505.6 -255.1,533.5 			"/>
			<polyline class="st9" points="-293.9,491.9 -273.5,492.7 -271.4,492.8 -260.2,493.3 -257.8,493.4 -248.3,493.8 -248.4,493.9 
				-248.4,493.9 -248.9,496.6 -248.9,496.7 			"/>
			<polyline class="st9" points="-165.2,526.5 -165.2,526.8 -164,541.1 -164,541.2 			"/>
			<path class="st9" d="M-225.6,315c-0.1,0-0.1,0-0.2,0c-13.1,0.7-25.5,1.7-36.1,2.6"/>
			<path class="st9" d="M-165.5,210.1c1.1-9.8,16.2-149.5,14.3-176c0,0,0,0,0-0.1c-1.9-25.8-3.4-44.2-3.4-44.2s6.2-7.7,5.7-12.1
				c-0.5-4.4-14.5-20.1-20.5-15.9C-184.7-27.6-167-1.9-167-1.9l-5.7,31.4l-15.7,81.9l-0.1,0.4"/>
			<path class="st9" d="M-165.5,210.6c0,0,0-0.2,0.1-0.5"/>
			<path class="st9" d="M-225.6,316.2c0.6,13.9,3.1,41.3,5.6,43.6c6.8,6,30.2,1.9,46.4-3.2c9.6-3,16.8-6.3,16.6-8.1
				c-0.6-4.8-2.3-36.5-2.3-36.5l-6.2-101.7c0,0,0-0.1,0-0.2c0,0,0,0,0,0c-0.2-1.3-1.7-8.4-4.9-7.9"/>
			<path class="st9" d="M-256,147.4l-0.1,1.3l-7.8,168.9v0v0l-2.2,46.8c-7.8,3.2-20.6,0.4-29.9-2.5c-0.1,0-0.1,0-0.2,0l-0.1,0"/>
			<path class="st9" d="M-305.9,204.5l-0.1,7l-1.5,146.1c0,0,4.7,2.1,11.2,4.1"/>
			<path class="st9" d="M-194.9,145.1l-3.9,16.2l6.2,9.7c0,0-29.8,130.5-32.8,144c-0.1,0.6-0.2,1-0.2,1.1"/>
			<polyline class="st9" points="-264,317.5 -275.4,232.9 -283.7,177.3 -275,164.2 -278.3,156.5 			"/>
			<path class="st9" d="M-268.6,107.5c5-0.9,7.2-5.4,7.2-5.4"/>
			<path class="st9" d="M-270.8,99c0,0,3.5-9.8,2.6-12.8c-1.4-4-6.5-4-6.9,0.8"/>
			<path class="st9" d="M-262.2,90.7c0,0-0.2-5.3,3.4-3.9c3.7,1.5,2,5.3,2,5.3"/>
			<path class="st9" d="M-273.8,68.9c-0.5,1.1-19.4,41.7-0.8,52c5.5,3,10.2,3.2,14.1,1.8c0.2-0.1,0.3-0.1,0.5-0.2
				c9-3.6,13.4-14.9,13.4-14.9"/>
			<path class="st9" d="M-260.7,122.6c0.2,0,0.4,0,0.6,0c5.3,0.5,4.7,17.5,4.4,22.7c0,1-0.1,1.6-0.1,1.6c0,0.1,0.1,0.1,0.1,0.2
				c2.8,3.4,22.2,18.2,37.4-13.1c0.2-0.3,0.4-0.4,0.4-0.7"/>
			<path class="st9" d="M-225.7,315c-0.5-13.4,8.1-180.8,8.1-180.8"/>
			<path class="st9" d="M-242.6,53.7C-253.7,42.5-274,54-274,54s-0.9,0.8-2.7,2.2"/>
			<path class="st9" d="M-276.9,56.1c-11.3,8.7-53.7,42.9-59.5,64.4c-2.4,9,1.6,15.8,16.9,17.6c6.1,0.7,6.7,21.4,15.1,26.5
				c2.2,1.4,5.1,1.6,8.7,0c3.1-1.3,6.8-4,11.4-8.2c0,0,2.4,0.1,5.8-0.2c7.2-0.4,18.8-2,22.2-7.6c0.1-0.2,0.2-0.4,0.4-0.7"/>
			<path class="st9" d="M-251.2,67.3c0,0,2.4,16.1,12.6,30.4c7.7,10.7,16.9,27.6,21.1,35.4c0,0,0,0,0,0c1.4,2.6,2.2,4.2,2.2,4.2
				c1.8,3.5,6.1,6.8,16.5,7.6c1.4,0.2,2.6,0.2,3.9,0.1c0,0,0.1,0,0.1,0c3.9-0.4,6.9-1.4,9.5-3.2c9.9-6.5,11.3-21.3,6.9-26.1
				c-1.9-2.1-5.5-3.2-9.8-4.3c-9.1-2.2-21.1-3.7-26.2-11.9c-4.1-6.4-6.3-31.8-18.1-41.8c-2-1.7-5.8-3.7-9.9-3.1
				c-3.9,0.6-8.4,3.7-12.1,11.5c-0.2,0.4-0.3,0.8-0.5,1.1c0,0-0.9,1.5-18.7,1.6c0,0,0,0,0,0c-0.4,0-0.9,0-1.3,0
				c-1.4,0-2.9-0.1-4.4,0"/>
			<path class="st9" d="M-172.8,29.4l0.1,0.1c7.8,10.6,20.7,4.6,20.7,4.6"/>
			<path class="st9" d="M-201.2,171.6c0,0-4.2-2-7.8,1.5"/>
			<path class="st9" d="M-269.4,177.6c-3.4-1.1-8.3,1.6-8.3,1.6"/>
			<polyline class="st9" points="-379.5,77.7 -336.3,120.6 -336.2,120.6 			"/>
			<path class="st9" d="M-393.9,88.9L-410,62.1c0,0-5.1-6.4-7.4-13.5c-2.2-6.4-0.7-9.6,1.6-6.9c5.7,7-0.1-22.5,3-29.3
				c1.6-3.7,7.5,22,11.8,33.4c3.1,8.1,17.5,27.9,17.5,27.9l4,4C-379.5,77.7-380.7,90.7-393.9,88.9z"/>
			<polyline class="st9" points="-306.4,211.5 -393.9,88.9 -394.4,88.1 			"/>
			<path class="st9" d="M-304.1,164.4c0,0-0.1,0.1-0.2,0.2c-0.6,0.6-2,2.6-2,6.3"/>
		</g>
	</g>
</g>
</svg>
