<?xml version="1.0" encoding="utf-8"?>
<!-- Generator: Adobe Illustrator 21.0.0, SVG Export Plug-In . SVG Version: 6.00 Build 0)  -->
<svg version="1.1" id="Layer_1" xmlns="http://www.w3.org/2000/svg" xmlns:xlink="http://www.w3.org/1999/xlink" x="0px" y="0px"
	 viewBox="0 0 650 450" style="enable-background:new 0 0 650 450;" xml:space="preserve">
<style type="text/css">
	.st0{fill:#E6E6E6;}
	.st1{fill:none;stroke:#4A4A4A;stroke-width:1.5;stroke-linecap:round;stroke-miterlimit:10;}
	.st2{fill:none;stroke:#000000;stroke-width:1.5;stroke-linecap:round;stroke-miterlimit:10;}
	.st3{fill:none;stroke:#000000;stroke-width:1.5;stroke-miterlimit:10;}
	.st4{fill:#FFFFFF;}
	.st5{fill:none;stroke:#000000;stroke-miterlimit:10;}
	.st6{fill:#4A4A4A;}
	.st7{fill:#FAFAFA;stroke:#4A4A4A;stroke-width:1.5;stroke-linecap:round;stroke-miterlimit:10;}
	.st8{fill:none;stroke:#E6E6E6;stroke-width:1.5;stroke-linecap:round;stroke-miterlimit:10;}
	.st9{fill:none;stroke:#4A4A4A;stroke-width:2;stroke-linecap:round;stroke-miterlimit:10;}
	.st10{fill:#FFFFFF;stroke:#4A4A4A;stroke-width:2;stroke-linecap:round;stroke-miterlimit:10;}
	.st11{fill:#FAFAFA;}
</style>
<g>
	<polygon class="st0" points="307.1,359.9 285.4,452.5 292.4,452.4 328.4,315.7 317,313.4 312.4,336 	"/>
</g>
<g>
	<polygon class="st0" points="175.9,324.3 150.8,451.6 159.9,451.4 204.1,256.6 188.8,256.7 182.8,289.6 	"/>
</g>
<g>
	<polygon class="st0" points="-478.7,289.7 -484.7,256.8 -500.1,256.7 -456.3,449.3 -447.2,449.4 -471.8,324.4 	"/>
</g>
<polygon class="st0" points="335.8,234.3 390.8,247.3 391.1,231.3 391,228.2 388.9,231.2 "/>
<g>
	<polygon class="st0" points="372.4,357.7 394.1,450.3 387.1,450.2 351.1,313.5 362.5,311.2 367.1,333.8 	"/>
</g>
<g>
	<path class="st0" d="M302.5,398.5c-0.5-2.1,0-4.3-0.3-6.4c-0.2-1.9-0.7-3.8-1-5.8c0-0.1,0-0.2-0.1-0.2l6.2-28.2l5.3-23.9l4.9-20.2
		l10.7,0.9l-23.3,91.9C304.6,403.8,303.1,401.3,302.5,398.5z"/>
</g>
<polygon class="st0" points="312.7,375.6 367.8,342 366.9,339.4 311.8,373 "/>
<polygon class="st0" points="366.9,375.6 311.8,342 312.7,339.4 367.8,373 "/>
<polygon class="st0" points="284.7,411.8 281.9,387.4 234.1,310.2 "/>
<g>
	<path class="st1" d="M273.1,299.2c0,0,10.3,104.8,11.2,112.2l-24.5,4.3"/>
	<path class="st1" d="M256,408.1l3.8,8.4l10.3,25.6c0,0-6.3,5.5-3.3,5.7l16.8,1.4c4.4-4.7,0.9-37,0.9-37"/>
	<path class="st1" d="M210.7,278.7c-2.4,3.1-4.3,7.1-4.9,12.6c-2,18.4,14.7,41.2,14.7,41.2l8.8,18.7"/>
	<path class="st1" d="M255.2,265.8c-9.7,1.2-19.4,2.5-29.3,4"/>
</g>
<polygon class="st0" points="314.7,163.6 310.1,161.5 312.8,149.4 "/>
<polygon class="st0" points="352,177.5 347.3,190.7 358.5,212.7 "/>
<polygon class="st0" points="306.8,188.3 306.9,188.2 316.3,222.3 322.7,220.5 321.9,212.5 "/>
<g>
	<polygon class="st0" points="226.5,268.3 207.1,262.1 205.5,256.5 223.3,256.5 	"/>
	<polyline class="st1" points="210.6,277.4 210.7,277.8 229.3,350.8 254.3,449.7 265,449.7 255.8,407.7 226,269.1 223.1,256.1 
		205.3,256.2 210.6,277.4 	"/>
</g>
<path class="st1" d="M267,235.7c0,0-2.3-4.6,13.3-5.6c8.9-0.5,22.4-5.4,44.6-9.8l42.9-9.3"/>
<path class="st1" d="M319,236.7c0,0,1.9-9-2.5-14.8"/>
<path class="st2" d="M359.3,212.9c0,0-6.6-35.3-6.6-35.9"/>
<polyline class="st1" points="323.5,220.5 321.9,212.5 306.8,187.8 "/>
<path class="st3" d="M319.9,231"/>
<path class="st1" d="M293.5,168.8c0,0-9.2,13.3,3.7,32.4c0,0,5.1,7.9,4.9,12.2"/>
<line class="st1" x1="338.2" y1="145.1" x2="310.9" y2="138.4"/>
<path class="st1" d="M273.5,128.4c-3.5,0.4,1.5,3.6,1.5,3.6s-3.3,1.5-7.2-0.8c-3.8-2.3,5.1,14.9,14.6,10s10.9-10.8,14.3-8.5
	c1.7,1.2-1.5,5.6,3.8,7.4c5.4,1.8,10.5,3.1,9.7-4.4c-0.8-7.4,2.3-8.7-9-14.1c0,0-3.8-1.5-11.8,3.1
	C289.6,124.8,279.2,127.8,273.5,128.4z"/>
<path class="st1" d="M282.4,141.2c0,0,4.7,7.2,4.9,9.9c0.2,1.9-2.2,7.2-2.2,7.2l3.4,2.1c0,0,6,17.3,21,0.6l19.4,8.1
	c13.7-0.9,9.2-24.2,9.2-24.2s4.7-6.5,23.1-5.4c12.5,0.7,22.3,3.2,28.6,43.2c2,12.7,6.7,49.1-3.9,48.8c-3.7,0-66,6-97.4,6.9
	c-10.5,0.3-17.3-2.7-17.6-3"/>
<path class="st3" d="M314.8,163.4"/>
<line class="st1" x1="309.8" y1="160.9" x2="312.2" y2="149.1"/>
<path class="st1" d="M308.4,141.4c0,0,0.3,3.5-2.3,4.8"/>
<path class="st3" d="M240.5,235.4"/>
<path class="st1" d="M305,212c-2.1,1.4-12,4.7-24.4,8.7c-15.5,4.9-32.1,7.5-32.1,7.5s-5.7,1.6-4.1,5.1c1.5,3.2,4.6,2.5,9.7,2.4"/>
<line class="st1" x1="280.5" y1="230.2" x2="277.6" y2="221.9"/>
<g id="XMLID_1_">
	<g>
		<path class="st4" d="M244.3,328.1c0,0-16.7-22.9-14.7-41.2c2-18.3,19-21.2,19-21.2c83.9-13.1,134.8-9.4,141.2-8.9
			c-2.4,18.2-9.1,39.1-26.5,41.9c-31.7,5.2-86.3,2-86.3,2s41.7,96.7,44.8,103.5L299,416.1C296,408.3,244.3,328.1,244.3,328.1z"/>
	</g>
	<g>
		<path class="st3" d="M389.8,256.8c2-15.1,1.9-32.7,1.9-32.7"/>
		<path class="st1" d="M359.4,256.5c-19.9-0.7-45.4-1-110.8,9.2c0,0-17,2.9-19,21.2c-2,18.3,14.7,41.2,14.7,41.2s51.7,80.2,54.7,88
			l22.8-11.9c-3.1-6.8-44.8-103.5-44.8-103.5s54.6,3.3,86.3-2c17.4-2.9,24-23.7,26.5-41.9"/>
		<path class="st3" d="M390.5,256.8c0,0-0.2,0-0.7-0.1"/>
	</g>
</g>
<path class="st3" d="M280.3,303.5"/>
<path class="st3" d="M374.4,16.4"/>
<path class="st1" d="M276.9,300.3c0,0,2.7-5.2,2.4-13.1"/>
<path class="st1" d="M274.9,290.3c0,0,0,5,2,10"/>
<path class="st1" d="M299.9,416.3l17.6,21.2c0,0-4.3,7.1-1.4,6.4l16.4-3.8c2.8-5.8-10.4-35.6-10.4-35.6"/>
<path class="st1" d="M263.5,425.1c0,0,14.1,0.3,21.4-2.7"/>
<path class="st1" d="M264.6,428.1c0,0,13.5,0.5,20.8-2.5"/>
<path class="st1" d="M304.5,421.1c0,0,14.3-4.6,20.5-10"/>
<path class="st1" d="M306.5,423.6c0,0,13.2-4.1,19.5-9.4"/>
<path class="st5" d="M285.7,442.2"/>
<path class="st6" d="M317.2,436c0,0,5.6,4.1,10.3,1.1c2.2-1.4,4.2-6.5,4.2-6.5s2.3,9.8,0.2,9.8c-2.1,0.1-16.5,3.2-16.5,3.2
	L317.2,436z"/>
<path class="st6" d="M270.3,440.8c0,0,4.2,5.3,9.6,3.8c2.6-0.7,5.9-4.6,5.9-4.6s-0.6,10-2.7,9.5c-2-0.5-17-2.3-17-2.3L270.3,440.8z"
	/>
<path class="st1" d="M292.5,147.4c0,0,2.1-2.5-0.1-3.2s-3,1.7-3,1.7"/>
<path class="st1" d="M293.2,163.1c0,0,2.6-1.8,2.8-4.9"/>
<path class="st0" d="M470.7,97.2c-2-7.9-7.9-8.6-7.8-8.5l10.3,24.2C473.2,112.9,472.6,105.1,470.7,97.2"/>
<path class="st0" d="M473.4,112.3"/>
<polygon class="st0" points="475.3,111.8 507.2,115.8 504.7,106.4 "/>
<polygon class="st0" points="432.3,48.4 426.2,64.3 423.2,55.5 "/>
<polygon class="st0" points="458.9,215.4 463,276.4 466,247 "/>
<path class="st0" d="M419.3,123.8c-1.1,0-18.9-3.6-18.9-3.6l16.3-1.9L419.3,123.8z"/>
<path class="st1" d="M424.8,61.2c-4.4-0.2-17.7,6.4-21.8,9.2c-4.2,2.8-7,10.9-7.9,19s2.2,30.3,2.2,30.3l19.6-1.4
	c0,0-6.7-14.8-8.3-20.6"/>
<path class="st3" d="M471.6,104.5"/>
<path class="st3" d="M467.3,100.7"/>
<path class="st1" d="M423.2,55.5c0,0,2.9,11.3,5.6,13.9c1.7,1.7,10.1,9.5,18.3-3.7c0,0,3.7-7.6,4.2-11.4c0,0,11.1-7,27.4-4.4
	c16.2,2.5,22.5,27.4,22.9,33.1c0.3,4.8,3.9,17.9,5,21.6c0.2,0.6-0.2,1.1-0.8,1.3l-32.3,6.1l-7.1-29.9"/>
<path class="st3" d="M416.7,118.3"/>
<path class="st3" d="M500.6,165.9"/>
<path class="st1" d="M438.3,175.4c6.5-1.5,15.3-3.5,23.5-5.1"/>
<path class="st1" d="M416.4,118c4.2,4.2,2.4,6.8,2.4,6.8"/>
<path class="st1" d="M473.5,112.1l7.5,26.8c0,0-26.6,0.2-42.8,4.7c0,0-7.9,0.2-12.5,6.7s8.1,7.9,10.7,2.5c0,0,8.8-2.2,11.1-1.8
	c6.5,1.2,28.4,11.6,28.4,11.6s5.6,1.9,15.9,2.7s13-1,15.1-2.1s5.9-2.8,5.9-13.5s-7.6-43.7-7.6-43.7"/>
<path class="st1" d="M502.5,191.2L528,427.4l-33.2,1.9c0,0-24.3-162.4-28.4-181.6c-3.2-15.4-6.4-30.1-7.4-32.8"/>
<path class="st3" d="M467.3,287.7"/>
<path class="st1" d="M461.6,170.2c1.5,8.4,5.6,26.1,7.4,27.3c9.3,6.1,35.3-7.6,35.3-7.6s8.6-1.9,7.9-4.8c-0.8-2.9-4.6-22.5-4.6-22.5
	"/>
<path class="st1" d="M459.4,155.5c1.8,11.9,0.7,6.4,2.2,14.8"/>
<path class="st1" d="M431.9,23.2c-2-9.1-22-1.4-32.4-6.3c-6.7-3.2-2.8-11.8,8.8-12c7.1-0.2,21.5,6.1,23.7,9.9
	c0.3,0.4,0.8,0.5,1.2,0.2c0.7-0.6,2.1-1.5,5.4-2.2c6.3-1.4-1.9,10.8-1.9,10.8l-2.1,8.7l17,22.1c0,0,2.3,47.9,6,85.7"/>
<path class="st1" d="M408.3,19.6c0,0-1.8,7.9,1.2,10.9c0,0-9.7,20,2.8,24.8s20.8-8.7,20.8-8.7"/>
<path class="st1" d="M432,23l-1.3,6.5c0,0,3.1-1,3.1,1s-0.3,3.9-2.1,3.9"/>
<line class="st1" x1="412.1" y1="424.4" x2="420.4" y2="205.4"/>
<path class="st1" d="M466.4,247.7L449,430.1c0,0-37.2-5.8-32.9-3c4.3,2.8,11.5,3.3,11.5,3.3v13.3c0,0-6.7,5.9-3.2,5.9
	c6,0,19.3,0.1,19.3,0.1c0.9-1,2.7-8.4,4.8-19.4"/>
<line class="st1" x1="400.5" y1="119.7" x2="391.5" y2="182.1"/>
<path class="st1" d="M422.7,34c0,0-1,3-4,4"/>
<path class="st1" d="M410.2,27.2c-0.2-3,3-3.5,4.2-1.1c0.8,1.8-0.5,8.2-0.5,8.2l3.9-0.9"/>
<path class="st1" d="M422.6,28.1c0,0,0.7-2.5-1.6-3.1c-2.3-0.6-1.8,2.6-1.8,2.6"/>
<path class="st1" d="M507.3,428.4c2,12.4,4.6,20,5.4,21.1c0,0,12.2-0.2,17.6-0.1c3.2,0-3-6.5-3-6.5l0.1-15.3"/>
<path class="st1" d="M463.3,88.2c0,0,4.9,2.2,6.1,7.2"/>
<path class="st1" d="M452.7,71.8c0,0,7.4-1.5,6.9-8.6c-0.5-7-5.7-10.5-5.7-10.5"/>
<line class="st1" x1="435.4" y1="144" x2="425.5" y2="62.9"/>
<path class="st1" d="M436.4,152.1l4.3,52.4c-7.8,4.7-26.3-0.6-26.3-0.6l4.7-81.6"/>
<path class="st3" d="M414,149.8"/>
<path class="st3" d="M422.2,123.6"/>
<path class="st1" d="M425.4,80.6c0,0-6.9-1.5-6.4-8.6c0.5-7,5.3-10.5,5.3-10.5"/>
<path class="st1" d="M394.2,288.3c-5.3,29.3-68,28.6-97.9,23.6c-2.7-0.5-6.7-7.4-3.2-10.3"/>
<path class="st1" d="M394.2,288.3c11.4-47.7,22.4-91.9,16.2-98.5c-10.1-11-20.6-6.5-20.6-6.5"/>
<line class="st1" x1="407.5" y1="186.1" x2="416" y2="169.1"/>
<path class="st1" d="M224.1,235.6h-4.7l-14.8-66.7c-0.1-0.6,0.2-1.1,0.8-1.2l2.9-0.5c0.5-0.1,1,0.2,1.2,0.8L224.1,235.6z"/>
<path class="st7" d="M219.5,235.7h67.6c1.1,0,2,0.9,2,2v6.8h-69.6V235.7z"/>
<line class="st1" x1="324.1" y1="236.6" x2="325.3" y2="244.7"/>
<path class="st1" d="M134.3,224.6h-5.7V236c0,0,5.7-0.4,7,2.5"/>
<path class="st8" d="M147.8,217.4c0.8,1.1,2.4,2.2,3.7,2.7"/>
<path class="st8" d="M145,203c0,2.7,0.3,5.5,1.3,7.9"/>
<path class="st8" d="M142.4,214c0.9,3.3,3.2,6.2,6.5,6.2"/>
<path class="st8" d="M140.4,205.8c0,1.5,0.1,3.1,0.4,4.6"/>
<path class="st8" d="M139,129c2.2-3.9,4.9-7.3,6.7-11.7"/>
<path class="st8" d="M139.1,151.8c-5.3-5-4.5-14-1.3-20.7"/>
<path class="st8" d="M150.5,167.5c-0.3-7.3-7.6-10.6-11.3-13.6"/>
<path class="st8" d="M135.6,197.2c0.7-2.1,1.7-4.1,3-5.8l1.2-1.4c1.1-1.1,2.2-2.2,3.2-3.3"/>
<path class="st8" d="M140,220.1c-3.6-5.8-6.2-13.4-4.9-20.6"/>
<path class="st8" d="M142.2,147.6c-5.6-11.7,4.9-21.1,8.2-30.3"/>
<path class="st8" d="M154.1,181c2.5-5,3.8-11.6,1.6-17.2"/>
<path class="st8" d="M143.5,192.9c2.8-2.7,5.6-5.5,7.9-8.8"/>
<path class="st8" d="M134.6,190.8c0.7-2.1,1.7-4.1,3-5.8l1.2-1.4c1.1-1.1,2.2-2.2,3.2-3.3"/>
<polygon class="st0" points="559.4,394.4 607.6,406.5 610.5,394.3 "/>
<path class="st3" d="M585,391.3"/>
<polyline class="st9" points="610.5,394.3 600.9,449.7 569,449.7 559.4,394.4 "/>
<path class="st9" d="M555.2,383.9h59.5c0.6,0,1,0.4,1,1v8.4c0,0.6-0.4,1-1,1h-59.5c-0.6,0-1-0.4-1-1v-8.4
	C554.2,384.4,554.7,383.9,555.2,383.9z"/>
<g>
	<polyline class="st1" points="597,331.1 597.1,383.9 575.4,383.9 575.4,333.3 	"/>
	<path class="st1" d="M579.9,335.7c0,0-19.2-9.9-25.8-30.8c-6.6-20.9-6.2-63.8-3.2-69.9s9.4-5,9.4-5s6.9-0.9,7.2,13.4
		s-2.8,62.7,9.5,70.7"/>
	<line class="st1" x1="575.9" y1="218.1" x2="575.9" y2="312.7"/>
	<path class="st1" d="M595.2,331.8c0,0,11-3.7,15.4-26.4c4.4-22.6,3.3-41.6,3.3-41.6l-0.2-9.4c0,0-1.6-4.6-6.6-4.7
		c-5-0.2-6.3,6.9-6.3,6.9s0.6,24.2-0.3,32.1s-3.1,26.6-11,33.5"/>
	<line class="st1" x1="596.9" y1="291.1" x2="596.3" y2="309.7"/>
	<path class="st1" d="M593,293.1c0,0,5.9-3.8,7.7-5.9"/>
	<path class="st1" d="M614.3,264.8c0,0,3.5-4.1,4.8-28.9s1-27.8,1-27.8s-0.6-5.9-7-6.8c-3.7-0.5-5.6,2.7-6.4,5.4
		c-0.5,1.7-0.8,3.5-0.7,5.3c0.1,6.8,0.2,33.9-1.5,38.3"/>
	<path class="st1" d="M595.4,275.7c0,0,4.9-5,5.6-9.3"/>
	<path class="st1" d="M597,273.4l-0.2-103.3c0,0-0.5-12.2-10.5-12.5s-10.7,14.3-10.7,14.3v22.6"/>
	<path class="st1" d="M576.9,199.3c-0.8-1.9-2.5-9.9-3.1-13.8c-3-19.4-2.1-36.7-2.1-40.2s0.7-12.8-6.3-13.3
		c-6.9-0.5-7.9,7.9-7.9,7.9s-0.2,46.6,6.7,61.1c6.9,14.5,20.4,25,20.4,25"/>
</g>
<path class="st6" d="M428.2,442.6c0,0,4.9,5.5,11.3,4c3-0.7,7.1-5,7.1-5s-0.8,10-3.2,9.5c-2.4-0.5-19.8-1.6-19.8-1.6L428.2,442.6z"
	/>
<path class="st6" d="M527.3,442.4c0,0-4.6,5.5-10.6,4.1c-2.8-0.7-6.6-5-6.6-5s0.7,10,3,9.5s18.5-1.7,18.5-1.7L527.3,442.4z"/>
<path class="st1" d="M427.7,432.8c0,0,13,2.1,20,0"/>
<path class="st1" d="M428.3,435.9c0,0,12,2.1,19,0"/>
<path class="st1" d="M508.8,432.4c0,0,12.4,1.9,19.2-0.3"/>
<path class="st1" d="M509.4,435.5c0,0,11.5,2,18.2-0.2"/>
<path class="st1" d="M135.6,220.2h18.6c0.5,0,1,0.4,1,1c0.1,4.5,0,23.1-5.5,23.1c-6.3,0-5.8,0.2-10.4,0c-4.6-0.2-4.7-18.6-4.7-23.1
	C134.6,220.7,135.1,220.2,135.6,220.2z"/>
<path class="st0" d="M-497.3,178.7c0,0,27.7,46.3,19,59l-40,1v5.4l59.6-0.4c-0.1-22.7-37.7-69.4-37.7-69.4L-497.3,178.7z"/>
<g>
	<polygon class="st0" points="-689.3,364.2 -708.2,450.2 -701.2,450.1 -668,320 -679.4,317.7 -684,340.3 	"/>
</g>
<g>
	<path class="st0" d="M-619.4,404.9c0.5-2.1,0-4.3,0.3-6.4c0.2-1.9,0.7-3.8,1-5.8c0-0.1,0-0.2,0.1-0.2l-6.2-28.2l-5.3-23.9
		l-4.6-22.5l-11.4,2.2l23.7,93C-621.5,410.2-620.1,407.8-619.4,404.9z"/>
</g>
<path class="st1" d="M-704.1,207.6c0,0-8.6-2.5-13.8,4.9c-5.2,7.4,13.2,36.5,16.4,77.7c3.8,49.4,85.8,23.3,85.8,23.3
	s8.8-1.4,8.8-6.5l-0.7-2.9"/>
<polygon class="st0" points="-519.7,267.2 -501.3,261.4 -499.7,256.2 -516.7,256.2 "/>
<path class="st3" d="M-540.3,360.7"/>
<polyline class="st1" points="-519.3,329.4 -499.9,256.7 -517,256.8 -529.1,309.3 "/>
<polyline class="st1" points="-531,376.2 -546.3,449.8 -556.4,449.8 -540.6,361.8 "/>
<polygon class="st0" points="-664,160.5 -666.5,169 -672.5,156 "/>
<polygon class="st0" points="-652.5,213.7 -646,207.5 -643.5,219.1 "/>
<polygon class="st0" points="-604.3,307.1 -571.8,353.4 -563.3,318.1 -571,301.5 -602.4,304.3 "/>
<path class="st1" d="M-691,251.9c0,24.9,2,38.5,3.8,45.7c1.1,4.4,5,7.6,9.5,7.8c53.7,2.1,106.4-4.4,106.4-4.4l8.5,18.9l-25.7,99
	c-0.1,0.5-0.7,0.8-1.2,0.7l-30.9-7.3c0,0,7.4-70.4,17.4-107.5"/>
<path class="st1" d="M-621,412.5c0,0-6,32-2,37c0,0,11.6-0.1,16.8-0.1c3,0-2.8-5.9-2.8-5.9l12.3-24.7"/>
<path class="st1" d="M-571,301.5c0,0,2.7-5.2,2.4-13.1"/>
<path class="st1" d="M-573,291.5c0,0,0,5,2,10s2,5,2,5s14.9,32.2,28.3,54.9l9.9,15.1c1,1.3,2,2.5,2.9,3.4"/>
<path class="st1" d="M-483,395.5l-18,2l-14-21c0,0-14,9-8.3,2.6s20-17,20-17l11.3,25.4c0,0,0.8,2.5,8.6,5.9
	C-481,394.5-483,395.5-483,395.5z"/>
<path class="st1" d="M-503,362.5c0,0-7.2-15.1-16.2-33.3l-10-20c-9.4-18.4-18.6-35.7-22.8-40.7"/>
<path class="st1" d="M-678,265.5c0,0,52-10,123,2"/>
<path class="st1" d="M-701.3,180.6c-1.6,1.3-10.3,11.6,6.2,63.8c0,0,2.7,8.3,10.4,13.3c3.9,2.6,16.5,6.1,16.5,6.1"/>
<path class="st1" d="M-684.8,194.5c-3.5-6.8-9.5-13.2-16.2-14c0,0-0.1,0-0.2,0.2"/>
<path class="st1" d="M-620.2,261.4c-15.2-8.1-53.8-18.9-53.8-18.9s-6-36-9-44c-0.5-1.3-1.1-2.7-1.8-4"/>
<path class="st1" d="M-701.1,180.7c5.2-5.7,13.1-10.2,13.1-10.2s13,13,22,3c0,0,20.5,0.4,64.5,47.4"/>
<path class="st1" d="M-690,172.5c0,0,6,14,16,8"/>
<path class="st1" d="M-605,226.5l31.6-46.4c0.2-0.3,0.2-0.7,0-1c-0.4-0.5-0.8-1.8,0.9-4.7c3-5,18.7-7.9,15.9-0.9"/>
<path class="st1" d="M-556.7,172.7l14.2-3.9"/>
<path class="st1" d="M-653,213.5l52,30c0,0,2,1,4,0s6-7,6-7s19.9-44.5,21.9-51.5c0.1-0.3,0.3-0.6,0.6-0.8c1-0.6,3.5-2.2,6.5-3.7
	c4-2,5.1-6.7,5.1-6.7"/>
<path class="st1" d="M-688,170.5l10.3-21.4c0,0-4.7-5.7-3.7-9.5c0.6-2.2,4.7-6.7,6.7-9.3c10.5-13.8,31.6-1.8,30.7,7.2
	c1.8,7.8-2,25,9,34s1,19,1,19"/>
<path class="st1" d="M-649.3,142.5c1.1,6.1,1.9,16.1-6.6,18.3c-3.1,0.8-12.1,1.7-17.1-6.3"/>
<path class="st1" d="M-650.2,138.8c0.4,1.1,0.7,2.4,0.9,3.7"/>
<path class="st1" d="M-674.1,141.9c0.5-2,4.7-3.1,6-4.5c1.7-1.8,0-8.3,7-7c5.5,1,7.7,1.4,9.7,5.4c0.3,0.7,0.7,1.7,1.1,2.8"/>
<path class="st1" d="M-664.1,160.9c0,0-3,9.2-1.7,12.4"/>
<path class="st1" d="M-665.6,173.7c0,0,2.6,4.4,0.6,5.8c-1.2,0.8-5,2-7-1"/>
<line class="st1" x1="-653.5" y1="212.4" x2="-646" y2="251.5"/>
<line class="st1" x1="-674.2" y1="240.9" x2="-648.2" y2="239.9"/>
<path class="st1" d="M-655.3,177c0,0-0.2,11.2,6.3,21.6c5.7,9.1,0.3,12.7-2.3,13.4c-2.4,0.6-9.7-0.1-9.7-0.1"/>
<path class="st1" d="M-663,148.5c0,0,1,3,4,4"/>
<path class="st1" d="M-655.7,148.8c0,0,0.5-6,1.6-7.6c0.5-0.8,1.3-2.8,2.3,0.3"/>
<path class="st1" d="M-661,139.3c0,0,0.8-2.5,3-1.7s0.1,3.2,0.1,3.2"/>
<path class="st9" d="M-809.4,303.2c0,1.9,32.6,32.7,46,79.2"/>
<path class="st9" d="M-758.7,389c0,0,5.4-36.6,23-53.1"/>
<polygon class="st0" points="-792.5,393.9 -744.3,406 -741.3,393.8 "/>
<path class="st3" d="M-766.9,390.8"/>
<polyline class="st9" points="-741.3,393.8 -751,449.2 -782.8,449.2 -792.5,393.9 "/>
<path class="st3" d="M-739.7,390.8"/>
<path class="st10" d="M-796.7,383.4h59.5c0.6,0,1,0.4,1,1v8.4c0,0.6-0.4,1-1,1h-59.5c-0.6,0-1-0.4-1-1v-8.4
	C-797.7,383.8-797.3,383.4-796.7,383.4z"/>
<path class="st9" d="M-773.6,367.3c-7.1-0.1-20-0.2-24.7-6.5c-3.8-5-1.2-9.5,2.8-12.6c1-0.8,0.9-2.4-0.3-3c-5.2-2.7-11.1-4-16-7.3
	c-1.8-1.2-4.2-2.9-3.2-5.3c0.7-1.6,2.9-3.1,4.9-4.3c1-0.6,1.1-2.1,0-2.7c-4.3-2.5-8.2-6.4-11.4-9.7c-1.1-1.1-4.2-3.9-3.8-5.7
	c0.3-1.6,3-2.1,5.3-2.2c1,0,1.5-1.2,0.8-1.9c-3.6-4-7-9.7-8.2-14.4c-2.4-9.6,9.7-5.2,13.2-1.2c2.8,3.2,6.1,8.2,8.5,2.2
	c0.7-1.8,2.3-9,5-6c2.3,2.6,3.6,22.1,8.3,20.9c2.8-0.7,1.8-7.8,5.4-7.7c3,0.1,4.7,5.7,5.3,7.9c1.8,6,2.4,12.4,2.6,18.6
	c0,1.4,1.9,1.9,2.6,0.7c1.7-2.9,3.6-6.3,5.8-5c5.5,5.7,4.5,15.7,4.9,23.8"/>
<path class="st9" d="M-752.4,377.1c6.3-1.1,10.3-2.6,16.1-5.3c1.6-0.7,3.3-1.7,4.1-3.3c1-1.9,0.3-4.5-1.5-5.6
	c-1.1-0.7-2.9-1.3-4.4-1.7c-1-0.3-1.2-1.6-0.3-2.1c6.3-3.4,19.4-8.9,14.9-11.4c-1.1-0.6-3.7-1.3-5.7-1.7c-0.9-0.2-1.2-1.4-0.4-2
	c5-3.8,14.3-12.9,9.5-13c-1.2,0-3.3,0-5.1,0.2c-0.8,0.1-1.4-0.8-1-1.5c1.3-2.1,3.3-5.5,4.1-7.8c0.6-1.7,1-3.8-0.3-5.1
	c-0.8-0.8-2.1-1-3.2-1c-9.2-0.1-11.3,9.3-13.9,9.3c-2.5,0-6-6.4-8.6-5.4c-2.2,0.9,0.5,13.1-2.6,15.4c-1.9,1.4-5.5-4.8-8-3.9
	c-5.6,2.1-2.6,13.9-1,18.9c0.3,0.9-0.7,1.6-1.5,1.2c-2.5-1.5-6.2-4.1-7.5-3.3c-3.7,2.2,1,14.2,2,15.8c0.9,1.6,6.1,9.8,8.1,12.1"/>
<path class="st1" d="M-584.7,244.7v-2.9c0-0.5,0.4-0.9,0.8-1l41.2-7.1c0.6-0.1,1.2,0.4,1.2,1l-0.2,9.8L-584.7,244.7z"/>
<path class="st6" d="M-504.7,391.9c0,0,3.5-1.6,7.4,0.3c3.9,1.9,4.7-5.7,4.7-5.7l2.9,4c0,0,6,1.9,6.9,3.6c0.2,0.4-0.3,1.1-0.3,1.1
	l-17.9,2.3L-504.7,391.9z"/>
<path class="st6" d="M-624.2,441.8c0,0,3,0,6.5,2.6c3.5,2.7,9.9-4.4,9.9-4.4l-1.2,4c0,0,3,2.2,3.5,4.2c0.1,0.4-0.5,1.2-0.5,1.2
	l-16.9-0.7L-624.2,441.8z"/>
<polygon class="st0" points="-629.6,382.1 -684.8,348.5 -683.8,345.9 -628.7,379.5 "/>
<polygon class="st0" points="-683.8,382.1 -628.7,348.5 -629.6,345.9 -684.8,379.5 "/>
<g>
	<g>
		<rect x="-922.2" y="448.5" class="st6" width="330" height="1.5"/>
	</g>
	<g>
		<path class="st6" d="M-525.8,450h-68.3v-1.5h68.3c0.4,0,0.8,0.3,0.8,0.8l0,0C-525,449.7-525.4,450-525.8,450z"/>
	</g>
	<g>
		<path class="st6" d="M-503.8,450h-4.2c-0.4,0-0.8-0.3-0.8-0.8l0,0c0-0.4,0.3-0.8,0.8-0.8h4.2c0.4,0,0.8,0.3,0.8,0.8l0,0
			C-503,449.7-503.4,450-503.8,450z"/>
	</g>
	<g>
		<path class="st6" d="M-445.3,450h-35.9c-0.4,0-0.8-0.3-0.8-0.8l0,0c0-0.4,0.3-0.8,0.8-0.8h35.9c0.4,0,0.8,0.3,0.8,0.8l0,0
			C-444.6,449.7-444.9,450-445.3,450z"/>
	</g>
	<g>
		<path class="st6" d="M-433.8,449.8h-4.2c-0.4,0-0.8-0.3-0.8-0.8l0,0c0-0.4,0.3-0.8,0.8-0.8h4.2c0.4,0,0.8,0.3,0.8,0.8l0,0
			C-433.1,449.5-433.4,449.8-433.8,449.8z"/>
	</g>
</g>
<g>
	<path class="st0" d="M-501.9,123.3l-0.4,0l-5.6-0.5l-1.2-0.1c0.1,0.1,0.2,0.1,0.3,0.2c2.6,1.5,9.9,7.2,9.3,18.5
		c-0.1,1.3-2.3,57.4-3,71c-2.3,9.4-9.4,13.1-12,14.1c-0.2,0.1-0.3,0.1-0.4,0.1l0,0l0.9,0.1l6.4,0.7c0.3,0,0.5,0.1,0.8,0.1
		c3.7,0,6.7-3.7,6.9-8.4l0,0l4.3-85.7l0-0.5C-495.3,128-498.1,123.7-501.9,123.3z"/>
	<path class="st11" d="M-502.4,212.4c0.6-13.6,2.9-69.7,3-71c0.5-11.3-6.8-17.1-9.3-18.5c-0.1-0.1-0.2-0.1-0.3-0.2l-0.2,0
		l-5.6,103.9c0.1,0,0.3-0.1,0.4-0.1C-511.8,225.5-504.8,221.8-502.4,212.4z"/>
	<path class="st6" d="M-501.7,121.8l-0.4,0l-8.6-0.7l-5.7,106.9l8.7,0.9c0.3,0,0.6,0.1,0.9,0.1c4.4,0,8.2-4.3,8.4-9.8l0.2-4.6
		l3-60.6l1-21.1C-493.8,127.2-497.1,122.3-501.7,121.8z M-495.5,132.8l0,0.5l-4.3,85.7l0,0c-0.2,4.7-3.3,8.4-6.9,8.4
		c-0.2,0-0.5,0-0.8-0.1l-6.4-0.7l-0.9-0.1l0,0l5.6-103.9l0.2,0l1.2,0.1l5.6,0.5l0.4,0C-498.1,123.7-495.3,128-495.5,132.8z"/>
</g>
<path class="st3" d="M329,250.5"/>
<path class="st1" d="M-673.4,147.3c0,0,1,1.5-4.3,1.7"/>
<path class="st1" d="M-672.4,142.2"/>
<g>
	<g>
		<path class="st6" d="M674.5,450.1H310.6c-0.4,0-0.8-0.3-0.8-0.8l0,0c0-0.4,0.3-0.8,0.8-0.8h363.9c0.4,0,0.8,0.3,0.8,0.8l0,0
			C675.2,449.8,674.9,450.1,674.5,450.1z"/>
	</g>
	<g>
		<path class="st6" d="M294,450.1h-53.3c-0.4,0-0.8-0.3-0.8-0.8l0,0c0-0.4,0.3-0.8,0.8-0.8H294c0.4,0,0.8,0.3,0.8,0.8l0,0
			C294.7,449.8,294.4,450.1,294,450.1z"/>
	</g>
	<g>
		<path class="st6" d="M229.7,450.1h-10.4c-0.4,0-0.8-0.3-0.8-0.8l0,0c0-0.4,0.3-0.8,0.8-0.8h10.4c0.4,0,0.8,0.3,0.8,0.8l0,0
			C230.4,449.8,230.1,450.1,229.7,450.1z"/>
	</g>
	<g>
		<path class="st6" d="M173.9,450.1h-37.4c-0.4,0-0.8-0.3-0.8-0.8l0,0c0-0.4,0.3-0.8,0.8-0.8h37.4c0.4,0,0.8,0.3,0.8,0.8l0,0
			C174.7,449.8,174.3,450.1,173.9,450.1z"/>
	</g>
	<g>
		<path class="st6" d="M129.2,450.1H125c-0.4,0-0.8-0.3-0.8-0.8l0,0c0-0.4,0.3-0.8,0.8-0.8h4.2c0.4,0,0.8,0.3,0.8,0.8l0,0
			C129.9,449.8,129.6,450.1,129.2,450.1z"/>
	</g>
</g>
<path class="st7" d="M329.4,256.2h-949.7c-1.1,0-2-0.9-2-2v-7.4c0-1.1,0.9-2,2-2h949.7c1.1,0,2,0.9,2,2v7.4
	C331.4,255.3,330.5,256.2,329.4,256.2z"/>
<path class="st5" d="M-495.5,150.6"/>
<g>
	<g id="XMLID_2_">
		<g>
			<path class="st4" d="M-1304.6,73.8l4,4c0,0-1.1,13-14.3,11.1l-16.2-26.8c0,0-5.1-6.4-7.4-13.5c-2.2-6.4-0.7-9.6,1.6-6.9
				c5.7,7-0.1-22.5,3-29.3c1.7-3.7,7.5,22,11.8,33.4C-1318.9,53.9-1304.6,73.8-1304.6,73.8z"/>
			<path class="st4" d="M-1227,211.5h-0.4l-87.5-122.6l0,0c13.2,1.8,14.3-11.1,14.3-11.1l43.2,42.8c-2.4,9,1.6,15.8,16.9,17.6
				c6.1,0.7,6.7,21.4,15.1,26.5c2.2,1.4,5.1,1.6,8.7,0c3.1-1.3,6.8-4,11.4-8.2c0,0,2.4,0.1,5.8-0.2l0,0.3l3.3,7.7l-8.7,13l8.3,55.7
				l11.3,84.6l0.2,0v0v0l-2.2,46.8c-7.8,3.2-20.6,0.4-29.9-2.5c-0.1,0-0.1,0-0.2,0l-0.2,0c-6.5-2-11.2-4.1-11.2-4.1L-1227,211.5z"/>
		</g>
		<g>
			<path class="st9" d="M-1081.3,510.1c0-0.3,0-0.7,0-1c0-0.1,0-0.1,0-0.2c-2.1-66.1-5.9-121.8-13.3-152.5c-0.1-0.3-0.1-0.5-0.2-0.8
				"/>
			<path class="st9" d="M-1178.9,493.4c3.1,0.1,6.3,0.3,9.5,0.5c8.1,0.4,16.3,0.9,24.4,1.6c0,0,0,0,0.1,0c16.4,1.3,32,2.9,43.2,4.9
				c1,0.1,2,0.5,3,0.6c5,1,8.9,2.2,11.3,3.5c3.7,2,5.6,3.5,6.2,4.7l0,0c0.3,0.2,0.4,0.5,0.3,0.8c0,3.7-16.4,2.4-16.4,2.4"/>
			<path class="st9" d="M-1192.4,492.8c3.6,0.1,7.4,0.3,11.2,0.5"/>
			<path class="st9" d="M-1217,362c-6.6,52.8-12.2,129.7-12.2,129.7s3.2,0.1,8.7,0.3c0,0,0.1,0,0.1,0c1.6,0.1,3.4,0,5.4,0.1
				c5.6,0.2,12.6,0.4,20.4,0.7"/>
			<polyline class="st9" points="-1096.3,542.9 -1096.3,542.1 -1096.9,527.6 -1097.5,512.5 -1097.5,512.4 -1097.4,504.8 			"/>
			<path class="st9" d="M-1144.9,495.1l0,0.1l0,0.2l0.1,0.3l0,0.3l1.1,12.5v0.1l0.2,22.6l0.3,33.5l0.1,16
				c0.1,11.3,11,19.4,21.9,16.1l125.1-37.6l32.6-6.2l7.8,7.5c0.3,0.3,0.8,0.2,0.8-0.3l1.5-31l-42.4,3.7l-53.4,4.7l-35.8,3.2l-10.8,1
				"/>
			<polyline class="st9" points="-1144.1,508.7 -1171.3,505.6 -1171.7,505.5 			"/>
			<line class="st9" x1="-1220.6" y1="499.1" x2="-1220.8" y2="499"/>
			<polyline class="st9" points="-1220.8,499 -1220.9,498.8 -1229.4,491.9 -1229.6,491.8 -1229.7,491.8 			"/>
			<path class="st9" d="M-1220.5,491.3l-0.1,0.5l0,0.2l-0.3,6.9l0,0.1l-1.6,62.2c-0.3,11.1,10,19.5,20.8,17l58.4-13.3l0,0"/>
			<polyline class="st9" points="-1096.9,527.6 -1086.2,526.8 -1086.2,526.8 -1050.7,524 -1049.3,537.9 -1049.2,538.5 			"/>
			<polyline class="st9" points="-1176.4,533.9 -1176.1,533.9 -1143.9,531.3 			"/>
			<polyline class="st9" points="-1169.9,496.7 -1171.3,505.6 -1176.1,533.5 			"/>
			<polyline class="st9" points="-1214.9,491.9 -1194.6,492.7 -1192.4,492.8 -1181.2,493.3 -1178.9,493.4 -1169.4,493.8 
				-1169.4,493.9 -1169.4,493.9 -1169.9,496.6 -1169.9,496.7 			"/>
			<polyline class="st9" points="-1086.2,526.5 -1086.2,526.8 -1085.1,541.1 -1085.1,541.2 			"/>
			<path class="st9" d="M-1146.6,315c0,0-0.1,0-0.2,0c-13.1,0.7-25.5,1.7-36.1,2.6"/>
			<path class="st9" d="M-1086.5,210.1c1.1-9.8,16.2-149.5,14.3-176c0,0,0,0,0-0.1c-1.9-25.8-3.3-44.2-3.3-44.2s6.2-7.7,5.7-12.1
				c-0.5-4.4-14.5-20.1-20.5-15.9c-15.3,10.6,2.3,36.3,2.3,36.3l-5.7,31.4l-15.7,81.9l-0.1,0.4"/>
			<path class="st9" d="M-1086.6,210.6c0,0,0-0.2,0-0.5"/>
			<path class="st9" d="M-1146.6,316.2c0.6,13.9,3.1,41.3,5.6,43.6c6.8,6,30.2,1.9,46.4-3.2c9.6-3,16.8-6.3,16.6-8.1
				c-0.6-4.8-2.3-36.5-2.3-36.5l-6.2-101.7c0,0,0-0.1,0-0.2c0,0,0,0,0,0c-0.2-1.3-1.7-8.4-4.9-7.9"/>
			<path class="st9" d="M-1177,147.4l-0.1,1.3l-7.8,168.9v0v0l-2.2,46.8c-7.8,3.2-20.6,0.4-29.9-2.5c-0.1,0-0.1,0-0.2,0l-0.2,0"/>
			<path class="st9" d="M-1226.9,204.5l-0.1,7l-1.5,146.1c0,0,4.7,2.1,11.2,4.1"/>
			<path class="st9" d="M-1115.9,145.1l-3.9,16.2l6.2,9.7c0,0-29.8,130.5-32.8,144c-0.1,0.6-0.2,1-0.2,1.1"/>
			<polyline class="st9" points="-1185.1,317.5 -1196.4,232.9 -1204.7,177.3 -1196,164.2 -1199.3,156.5 			"/>
			<path class="st9" d="M-1189.6,107.5c5-0.9,7.2-5.4,7.2-5.4"/>
			<path class="st9" d="M-1191.8,99c0,0,3.5-9.8,2.6-12.8c-1.4-4-6.5-4-6.9,0.8"/>
			<path class="st9" d="M-1183.3,90.7c0,0-0.2-5.3,3.4-3.9c3.7,1.5,2,5.3,2,5.3"/>
			<path class="st9" d="M-1194.9,68.9c-0.5,1.1-19.3,41.7-0.8,52c5.5,3,10.2,3.2,14.1,1.8c0.2-0.1,0.3-0.1,0.5-0.2
				c9-3.6,13.4-14.9,13.4-14.9"/>
			<path class="st9" d="M-1181.8,122.6c0.2,0,0.4,0,0.6,0c5.3,0.5,4.7,17.5,4.4,22.7c0,1-0.1,1.6-0.1,1.6c0,0.1,0.1,0.1,0.1,0.2
				c2.8,3.4,22.2,18.2,37.4-13.1c0.2-0.3,0.4-0.4,0.4-0.7"/>
			<path class="st9" d="M-1146.8,315c-0.5-13.4,8.1-180.8,8.1-180.8"/>
			<path class="st9" d="M-1163.6,53.7c-11.1-11.2-31.4,0.3-31.4,0.3s-0.9,0.8-2.7,2.2"/>
			<path class="st9" d="M-1197.9,56.1c-11.3,8.7-53.7,42.9-59.5,64.4c-2.4,9,1.6,15.8,16.9,17.6c6.1,0.7,6.7,21.4,15.1,26.5
				c2.2,1.4,5.1,1.6,8.7,0c3.1-1.3,6.8-4,11.4-8.2c0,0,2.4,0.1,5.8-0.2c7.2-0.4,18.8-2,22.2-7.6c0.1-0.2,0.2-0.4,0.4-0.7"/>
			<path class="st9" d="M-1172.3,67.3c0,0,2.4,16.1,12.6,30.4c7.7,10.7,16.9,27.6,21.1,35.4c0,0,0,0,0,0c1.4,2.6,2.2,4.2,2.2,4.2
				c1.8,3.5,6.1,6.8,16.5,7.6c1.4,0.2,2.5,0.2,3.9,0.1c0,0,0.1,0,0.1,0c3.9-0.4,6.9-1.4,9.5-3.2c9.9-6.5,11.3-21.3,6.9-26.1
				c-1.9-2.1-5.5-3.2-9.8-4.3c-9.1-2.2-21.1-3.7-26.2-11.9c-4.1-6.4-6.3-31.8-18.1-41.8c-2-1.7-5.8-3.7-9.8-3.1
				c-3.9,0.6-8.4,3.7-12.1,11.5c-0.2,0.4-0.3,0.8-0.5,1.1c0,0-0.9,1.5-18.7,1.6c0,0,0,0,0,0c-0.4,0-0.9,0-1.3,0
				c-1.4,0-2.9-0.1-4.4,0"/>
			<path class="st9" d="M-1093.9,29.4l0.1,0.1c7.8,10.6,20.7,4.6,20.7,4.6"/>
			<path class="st9" d="M-1122.2,171.6c0,0-4.2-2-7.8,1.5"/>
			<path class="st9" d="M-1190.4,177.6c-3.4-1.1-8.3,1.6-8.3,1.6"/>
			<polyline class="st9" points="-1300.6,77.7 -1257.4,120.6 -1257.3,120.6 			"/>
			<path class="st9" d="M-1314.9,88.9l-16.2-26.8c0,0-5.1-6.4-7.4-13.5c-2.2-6.4-0.7-9.6,1.6-6.9c5.7,7-0.1-22.5,3-29.3
				c1.7-3.7,7.5,22,11.8,33.4c3.1,8.1,17.4,27.9,17.4,27.9l4,4C-1300.6,77.7-1301.7,90.7-1314.9,88.9z"/>
			<polyline class="st9" points="-1227.4,211.5 -1314.9,88.9 -1315.5,88.1 			"/>
			<path class="st9" d="M-1225.1,164.4c0,0-0.1,0.1-0.2,0.2c-0.6,0.6-2,2.6-2,6.3"/>
		</g>
	</g>
</g>
</svg>
