<?xml version="1.0" encoding="utf-8"?>
<!-- Generator: Adobe Illustrator 22.0.1, SVG Export Plug-In . SVG Version: 6.00 Build 0)  -->
<svg version="1.1" id="Layer_1" xmlns="http://www.w3.org/2000/svg" xmlns:xlink="http://www.w3.org/1999/xlink" x="0px" y="0px"
	 viewBox="0 0 105 34" style="enable-background:new 0 0 105 34;" xml:space="preserve">
<style type="text/css">
	.st0{fill:#FE4F4F;}
	.st1{opacity:0.3;}
	.st2{fill:#525252;}
	.st3{fill:#404041;}
	.st4{fill:#FFFFFF;}
	.st5{fill:#4A4A4A;}
</style>
<path class="st0" d="M27.2,2.4H3c-1.5,0-2.8,1.2-2.8,2.8v24.2c0,1.5,1.2,2.8,2.8,2.8h24.2c1.5,0,2.8-1.2,2.8-2.8V5.1
	C29.9,3.6,28.7,2.4,27.2,2.4z"/>
<g class="st1">
	<path class="st2" d="M20.8,18c0,0,0-0.1-0.1-0.1c0-0.1-0.1-0.2-0.2-0.2c0,0-0.1-0.1-0.1-0.1c-0.1-0.1-0.1-0.2-0.2-0.3
		c0,0,0,0,0-0.1c0,0-0.1-0.1-0.1-0.1c0,0,0-0.1-0.1-0.1c-0.1-0.1-0.2-0.2-0.3-0.3c-0.4-0.5-0.9-1-1.4-1.5c-0.2-0.2-0.5-0.4-0.7-0.6
		c-0.1-0.1-0.3-0.2-0.4-0.3c-0.1,0-0.1-0.1-0.2-0.1c0,0,0,0,0,0l0,0c-0.1-0.1-0.3-0.2-0.4-0.3c-0.6-0.5-1.2-0.9-1.8-1.3
		c-0.6-0.4-1.1-0.8-1.6-1.1c-0.5-0.3-1-0.5-1.4-0.7h0l-2.5,2l0.5,0.5l3.9,4.7l-3.9,4.7l-0.5,0.5l2.5,2h0c0.4-0.1,0.8-0.4,1.4-0.7
		c0.5-0.3,1.1-0.7,1.6-1.1c0.6-0.4,1.2-0.9,1.8-1.3c0.1-0.1,0.3-0.2,0.4-0.3l0,0c0,0,0,0,0,0c0.1,0,0.1-0.1,0.2-0.1
		c0.1-0.1,0.3-0.2,0.4-0.3c0.2-0.2,0.5-0.4,0.7-0.6c0.5-0.5,1-1,1.4-1.5c0.1-0.1,0.2-0.2,0.3-0.3c0,0,0-0.1,0.1-0.1
		c0,0,0.1-0.1,0.1-0.1c0,0,0,0,0-0.1c0.1-0.1,0.1-0.2,0.2-0.3c0,0,0.1-0.1,0.1-0.1c0.1-0.1,0.1-0.2,0.2-0.2
		C20.8,18.1,20.8,18,20.8,18L20.8,18C20.8,18,20.8,18,20.8,18C20.8,18,20.8,18,20.8,18L20.8,18z"/>
</g>
<g>
	<path class="st3" d="M70.4-26.5c-0.4-0.4-0.8-0.7-1.3-0.9c-0.5-0.2-1-0.3-1.5-0.3c-0.3,0-0.6,0-0.9,0.1s-0.6,0.2-0.8,0.3
		c-0.2,0.1-0.5,0.3-0.6,0.4c-0.2,0.2-0.3,0.3-0.5,0.5v-0.9l-0.5-0.4l0,0l-3.2,0.4v1.4l1.1,0.3v11.1L61-14.3v1.4h5.6v-1.2L65-14.3
		v-1.6l-0.1-1.6c0.1,0,0.3,0.1,0.5,0.1c0.2,0,0.4,0.1,0.7,0.1c0.9,0,1.7-0.1,2.3-0.4c0.7-0.3,1.2-0.7,1.7-1.2s0.8-1.1,1-1.7
		c0.2-0.7,0.4-1.3,0.4-2.1c0-0.9-0.1-1.6-0.3-2.2C71-25.6,70.7-26.1,70.4-26.5z M68.3-20.7c-0.1,0.5-0.3,0.9-0.5,1.2
		c-0.2,0.3-0.5,0.5-0.7,0.7c-0.3,0.1-0.6,0.2-0.9,0.2s-0.6,0-0.8-0.1S65-18.9,65-19v-6.3c0.1-0.1,0.2-0.2,0.3-0.3
		c0.1-0.1,0.2-0.2,0.4-0.2c0.1-0.1,0.3-0.1,0.4-0.2c0.2,0,0.3-0.1,0.5-0.1c0.3,0,0.6,0.1,0.8,0.2c0.2,0.1,0.5,0.3,0.6,0.6
		c0.2,0.3,0.3,0.6,0.4,1.1c0.1,0.4,0.1,1,0.1,1.6C68.5-21.8,68.4-21.1,68.3-20.7z"/>
	<path class="st3" d="M79.9-27.6c-0.3,0-0.6,0-0.8,0.1c-0.3,0.1-0.5,0.2-0.7,0.3s-0.4,0.3-0.6,0.5c-0.2,0.2-0.3,0.3-0.5,0.5
		C77.2-26,77-25.9,77-25.7c-0.1,0.2-0.2,0.3-0.2,0.4l0,0v-1.4v-0.5l-0.5-0.4l0,0l-3,0.4v1.4l1.1,0.4v6.7l-1.2,0.2v1.1h6.2v-1.1
		l-2.1-0.2v-5.5c0.2-0.2,0.5-0.3,0.8-0.4c0.4-0.1,0.8-0.2,1.3-0.2c0.3,0,0.6,0,0.8,0.1c0.2,0.1,0.4,0.2,0.6,0.4v-3.1
		c-0.1,0-0.2-0.1-0.3-0.1C80.2-27.6,80-27.6,79.9-27.6z"/>
	<path class="st3" d="M89.5-26.7c-0.7-0.6-1.6-0.9-2.9-0.9c-0.7,0-1.4,0.1-2,0.4c-0.6,0.2-1.1,0.6-1.6,1c-0.4,0.4-0.8,1-1,1.6
		s-0.4,1.4-0.4,2.2c0,0.7,0.1,1.4,0.3,2.1c0.2,0.6,0.5,1.2,0.9,1.6c0.4,0.5,0.9,0.8,1.5,1s1.4,0.4,2.2,0.4c0.4,0,0.8,0,1.2-0.1
		c0.4-0.1,0.8-0.2,1.1-0.4c0.4-0.1,0.7-0.3,0.9-0.5c0.3-0.2,0.5-0.3,0.6-0.5l-0.5-1.1c-0.1,0.1-0.3,0.2-0.5,0.3
		c-0.2,0.1-0.4,0.2-0.6,0.2c-0.2,0.1-0.5,0.1-0.7,0.2c-0.3,0-0.5,0.1-0.7,0.1c-0.4,0-0.7-0.1-1-0.2s-0.6-0.3-0.8-0.6
		c-0.2-0.3-0.4-0.6-0.6-1c-0.1-0.4-0.2-0.9-0.3-1.5h5.8c0-0.2,0.1-0.5,0.1-0.8s0-0.6,0-1C90.5-25.3,90.1-26.1,89.5-26.7z M87.7-24
		c0,0.1,0,0.2,0,0.3h-3.1c0-0.5,0.1-1,0.2-1.3c0.1-0.3,0.2-0.6,0.4-0.8c0.1-0.2,0.3-0.3,0.5-0.4s0.4-0.1,0.7-0.1
		c0.3,0,0.5,0,0.7,0.1s0.3,0.2,0.4,0.4c0.1,0.2,0.2,0.4,0.2,0.6s0.1,0.5,0.1,0.8C87.7-24.2,87.7-24.1,87.7-24z"/>
	<path class="st3" d="M99.9-21.5c-0.2-0.3-0.4-0.6-0.7-0.9c-0.3-0.2-0.6-0.5-1-0.7s-0.8-0.4-1.2-0.5c-0.3-0.1-0.6-0.2-0.9-0.4
		c-0.3-0.1-0.5-0.2-0.7-0.4c-0.2-0.1-0.4-0.3-0.5-0.5c-0.1-0.2-0.2-0.4-0.2-0.6c0-0.3,0.1-0.6,0.4-0.8c0.2-0.2,0.6-0.3,1.1-0.3
		c0.3,0,0.6,0.1,0.8,0.2c0.2,0.1,0.4,0.2,0.4,0.3l0.5,1.3h1.6v-2.4c-0.2,0-0.3-0.1-0.5-0.1c-0.2-0.1-0.4-0.1-0.7-0.2
		c-0.3-0.1-0.6-0.1-1-0.2s-0.8-0.1-1.2-0.1c-0.6,0-1.2,0.1-1.7,0.2s-0.9,0.3-1.3,0.6c-0.4,0.2-0.6,0.5-0.8,0.9
		C92.1-25.8,92-25.4,92-25c0,0.4,0.1,0.7,0.2,1c0.1,0.3,0.3,0.6,0.5,0.8s0.5,0.5,0.8,0.7s0.7,0.4,1.1,0.6s0.8,0.4,1.1,0.5
		c0.4,0.2,0.7,0.3,0.9,0.5c0.3,0.2,0.4,0.3,0.6,0.5c0.1,0.3,0.1,0.5,0.1,0.7c0,0.1,0,0.3-0.1,0.4s-0.1,0.3-0.3,0.4
		c-0.1,0.1-0.3,0.2-0.5,0.2c-0.2,0.1-0.4,0.1-0.7,0.1c-0.2,0-0.3,0-0.5,0s-0.3-0.1-0.5-0.1c-0.1-0.1-0.3-0.1-0.4-0.2
		s-0.2-0.1-0.2-0.2l-0.5-1.3h-1.7v2.3c0.2,0,0.4,0.1,0.6,0.2c0.3,0.1,0.6,0.2,0.9,0.2c0.3,0.1,0.7,0.2,1.1,0.2
		c0.4,0.1,0.8,0.1,1.3,0.1c0.7,0,1.3-0.1,1.9-0.2c0.5-0.2,1-0.4,1.3-0.6c0.3-0.3,0.6-0.6,0.8-0.9c0.2-0.4,0.3-0.7,0.3-1.1
		C100.2-20.8,100.1-21.2,99.9-21.5z"/>
	<g>
		<path class="st3" d="M45.4-18.6l1.1-0.2l4.4-12.9h3.4l4.4,12.8l1.1,0.2v1.3h-6v-1.3l1.4-0.2l-0.7-2.3h-4.8l-0.6,2.3l1.5,0.2v1.3
			h-5.1L45.4-18.6z M54.1-22.7l-1.7-5.8l-0.3-1.3l-0.3,1.3l-1.6,5.8H54.1z"/>
	</g>
</g>
<g>
	<path class="st4" d="M20.7,17.2c0,0,0-0.1-0.1-0.1c0-0.1-0.1-0.2-0.2-0.2c0,0-0.1-0.1-0.1-0.1c-0.1-0.1-0.1-0.2-0.2-0.3
		c0,0,0,0,0-0.1c0,0-0.1-0.1-0.1-0.1c0,0,0-0.1-0.1-0.1c-0.1-0.1-0.2-0.2-0.3-0.3c-0.4-0.5-0.9-1-1.4-1.5c-0.2-0.2-0.5-0.4-0.7-0.6
		c-0.1-0.1-0.3-0.2-0.4-0.3c-0.1,0-0.1-0.1-0.2-0.1c0,0,0,0,0,0l0,0c-0.1-0.1-0.3-0.2-0.4-0.3c-0.6-0.5-1.2-0.9-1.8-1.3
		c-0.6-0.4-1.1-0.8-1.6-1.1c-0.5-0.3-1-0.5-1.4-0.7h0l-2.5,2l0.5,0.5l3.9,4.7l-3.9,4.7l-0.5,0.5l2.5,2h0c0.4-0.1,0.8-0.4,1.4-0.7
		c0.5-0.3,1.1-0.7,1.6-1.1c0.6-0.4,1.2-0.9,1.8-1.3c0.1-0.1,0.3-0.2,0.4-0.3l0,0c0,0,0,0,0,0c0.1,0,0.1-0.1,0.2-0.1
		c0.1-0.1,0.3-0.2,0.4-0.3c0.2-0.2,0.5-0.4,0.7-0.6c0.5-0.5,1-1,1.4-1.5c0.1-0.1,0.2-0.2,0.3-0.3c0,0,0-0.1,0.1-0.1
		c0,0,0.1-0.1,0.1-0.1c0,0,0,0,0-0.1c0.1-0.1,0.1-0.2,0.2-0.3c0,0,0.1-0.1,0.1-0.1c0.1-0.1,0.1-0.2,0.2-0.2
		C20.7,17.3,20.7,17.2,20.7,17.2L20.7,17.2C20.7,17.2,20.7,17.2,20.7,17.2C20.7,17.2,20.7,17.2,20.7,17.2L20.7,17.2z"/>
</g>
<g>
	<path class="st5" d="M48.1,22h-2.5v-0.8c-0.8,0.7-1.7,1-2.7,1c-1.4,0-2.8-0.6-3.7-1.6c-0.8-0.9-1.2-2.1-1.2-3.4
		c0-2.9,2.1-5.1,4.8-5.1c1.1,0,2.1,0.4,2.8,1v-0.8h2.5V22z M45.5,15.6c-0.5-0.7-1.4-1.2-2.4-1.2c-1.5,0-2.5,1.3-2.5,2.7
		c0,1.5,1.1,2.6,2.6,2.6c1,0,1.8-0.5,2.3-1.2V15.6z"/>
	<path class="st5" d="M50.4,12.2h2.5V13c0.8-0.6,1.7-1,2.8-1c2.6,0,4.8,2.2,4.8,5.1c0,1.3-0.5,2.5-1.2,3.4c-0.9,1-2.2,1.6-3.7,1.6
		c-1,0-1.8-0.3-2.6-0.9v5.5h-2.6V12.2z M53,18.5c0.5,0.7,1.4,1.2,2.3,1.2c1.5,0,2.6-1.1,2.6-2.6c0-1.4-1-2.7-2.5-2.7
		c-1,0-1.9,0.5-2.4,1.2V18.5z"/>
	<path class="st5" d="M68,14.5c-0.2-0.1-0.6-0.1-0.9-0.1c-1.1,0-2,0.8-2.4,1.4V22h-2.6v-9.7h2.5v1c0.6-0.7,1.6-1.2,2.8-1.2
		c0.4,0,0.6,0,0.9,0.1L68,14.5z"/>
	<path class="st5" d="M77.6,20.4c-0.9,1.1-2.5,1.7-4,1.7c-2.9,0-5.1-2-5.1-5.1c0-2.7,1.8-5.1,4.7-5.1c2.7,0,4.6,2.3,4.6,5
		c0,0.3,0,0.5-0.1,0.7H71c0.1,1.4,1.2,2.3,2.6,2.3c1.1,0,2-0.6,2.4-1.1L77.6,20.4z M75.2,15.8c-0.1-0.9-0.9-1.7-1.9-1.7
		c-1.1,0-2,0.8-2.1,1.7H75.2z"/>
	<path class="st5" d="M79.8,19c0.7,0.6,1.7,1,2.7,1c0.7,0,1.2-0.3,1.2-0.8c0-1.5-4.7-0.9-4.7-4.1c0-1.9,1.8-3,3.7-3
		c1.3,0,2.6,0.5,3.3,1l-1.2,1.9c-0.5-0.4-1.2-0.7-1.9-0.7c-0.7,0-1.3,0.3-1.3,0.8c0,1.3,4.7,0.8,4.7,4.1c0,1.9-1.8,3-3.9,3
		c-1.3,0-2.8-0.5-3.9-1.3L79.8,19z"/>
</g>
<g>
	<g>
		<path class="st5" d="M-31.9,62.9c0,0,0-0.1-0.1-0.1c0-0.1-0.1-0.1-0.1-0.2c0,0-0.1-0.1-0.1-0.1c-0.1-0.1-0.1-0.2-0.2-0.3
			c0,0,0,0,0-0.1c0,0,0-0.1-0.1-0.1c0,0,0,0-0.1-0.1c-0.1-0.1-0.2-0.2-0.3-0.3c-0.4-0.4-0.8-0.9-1.3-1.4c-0.2-0.2-0.4-0.4-0.7-0.6
			c-0.1-0.1-0.3-0.2-0.4-0.3c0,0-0.1-0.1-0.1-0.1c0,0,0,0,0,0l0,0c-0.1-0.1-0.2-0.2-0.4-0.3c-0.6-0.4-1.1-0.9-1.6-1.2
			c-0.5-0.4-1-0.7-1.5-1c-0.5-0.3-0.9-0.5-1.3-0.6h0l-2.3,1.9l0.4,0.5l3.6,4.4l-3.6,4.4l-0.4,0.5l2.3,1.9h0c0.4-0.1,0.8-0.3,1.3-0.6
			c0.5-0.3,1-0.6,1.5-1c0.5-0.4,1.1-0.8,1.6-1.2c0.1-0.1,0.2-0.2,0.4-0.3l0,0c0,0,0,0,0,0c0,0,0.1-0.1,0.1-0.1
			c0.1-0.1,0.3-0.2,0.4-0.3c0.2-0.2,0.4-0.4,0.7-0.6c0.5-0.5,0.9-0.9,1.3-1.4c0.1-0.1,0.2-0.2,0.3-0.3c0,0,0,0,0.1-0.1
			c0,0,0-0.1,0.1-0.1c0,0,0,0,0-0.1c0.1-0.1,0.1-0.2,0.2-0.3c0,0,0.1-0.1,0.1-0.1c0.1-0.1,0.1-0.1,0.1-0.2
			C-32,63-31.9,62.9-31.9,62.9L-31.9,62.9C-31.9,62.9-31.9,62.9-31.9,62.9C-31.9,62.9-31.9,62.9-31.9,62.9L-31.9,62.9z"/>
	</g>
</g>
<g>
	<g>
		<path class="st5" d="M-2.8,67.6h-2.5v-0.8c-0.8,0.7-1.7,1-2.7,1c-1.4,0-2.8-0.6-3.6-1.6c-0.8-0.9-1.2-2.1-1.2-3.4
			c0-2.8,2.1-5,4.7-5c1.1,0,2.1,0.4,2.8,1V58h2.5V67.6z M-5.4,61.3c-0.5-0.7-1.4-1.2-2.4-1.2c-1.5,0-2.5,1.3-2.5,2.6
			c0,1.5,1.1,2.6,2.5,2.6c1,0,1.8-0.5,2.3-1.2V61.3z"/>
	</g>
	<g>
		<path class="st5" d="M-0.5,58H2v0.8c0.8-0.6,1.7-1,2.8-1c2.6,0,4.7,2.2,4.7,5c0,1.3-0.5,2.5-1.2,3.4c-0.9,1-2.2,1.6-3.7,1.6
			c-1,0-1.8-0.3-2.6-0.9v5.5h-2.6V58z M2,64.2c0.5,0.7,1.4,1.2,2.3,1.2c1.5,0,2.5-1.1,2.5-2.6c0-1.4-1-2.6-2.5-2.6
			c-1,0-1.9,0.5-2.4,1.2V64.2z"/>
	</g>
	<g>
		<path class="st5" d="M16.9,60.2c-0.2-0.1-0.6-0.1-0.9-0.1c-1.1,0-2,0.8-2.3,1.4v6.1H11V58h2.5v1c0.6-0.7,1.6-1.2,2.8-1.2
			c0.4,0,0.6,0,0.9,0.1L16.9,60.2z"/>
	</g>
	<g>
		<path class="st5" d="M26.4,66.1c-0.9,1.1-2.5,1.7-4,1.7c-2.9,0-5.1-2-5.1-5c0-2.7,1.8-5,4.7-5c2.7,0,4.6,2.2,4.6,4.9
			c0,0.3,0,0.5-0.1,0.7h-6.7c0.1,1.4,1.2,2.3,2.6,2.3c1.1,0,2-0.6,2.4-1.1L26.4,66.1z M24,61.5c-0.1-0.9-0.9-1.7-1.9-1.7
			c-1.1,0-2,0.8-2.1,1.7H24z"/>
	</g>
	<g>
		<path class="st5" d="M28.6,64.7c0.7,0.6,1.7,1,2.6,1c0.7,0,1.2-0.3,1.2-0.8c0-1.5-4.7-0.9-4.7-4c0-1.9,1.8-3,3.7-3
			c1.3,0,2.6,0.5,3.3,1l-1.2,1.9c-0.5-0.4-1.2-0.7-1.9-0.7c-0.7,0-1.3,0.3-1.3,0.8c0,1.3,4.7,0.8,4.7,4.1c0,1.9-1.8,3-3.8,3
			c-1.3,0-2.7-0.5-3.9-1.3L28.6,64.7z"/>
	</g>
</g>
<g>
	<path class="st5" d="M-25.5,77.8h-24.4c-1.5,0-2.7-1.2-2.7-2.7V50.7c0-1.5,1.2-2.7,2.7-2.7h24.4c1.5,0,2.7,1.2,2.7,2.7v24.4
		C-22.8,76.6-24,77.8-25.5,77.8z M-49.9,49.8c-0.5,0-0.9,0.4-0.9,0.9v24.4c0,0.5,0.4,0.9,0.9,0.9h24.4c0.5,0,0.9-0.4,0.9-0.9V50.7
		c0-0.5-0.4-0.9-0.9-0.9H-49.9z"/>
</g>
</svg>
