<?xml version="1.0" encoding="utf-8"?>
<!-- Generator: Adobe Illustrator 21.0.0, SVG Export Plug-In . SVG Version: 6.00 Build 0)  -->
<svg version="1.1" id="Layer_1" xmlns="http://www.w3.org/2000/svg" xmlns:xlink="http://www.w3.org/1999/xlink" x="0px" y="0px"
	 viewBox="0 0 100 100" enable-background="new 0 0 100 100" xml:space="preserve">
<path fill="#FFFFFF" d="M20.8,86.1c-0.4,0.9,0.5,1.8,1.4,1.6l9.6-2.9l5,9.1c0.5,0.9,1.7,0.8,2.1-0.1l11-26.9
	c0.3-0.6-0.1-1.4-0.8-1.6c-3.5-0.9-12.9-4.3-16.2-5.6c-0.6-0.2-1.2,0-1.5,0.6L20.8,86.1z"/>
<path fill="none" stroke="#4A4A4A" stroke-width="2.75" stroke-linecap="round" stroke-miterlimit="10" d="M49.9,66.8l-11,26.9
	c-0.4,0.9-1.6,1-2.1,0.1l-5-9.1l-9.6,2.9c-0.9,0.3-1.8-0.7-1.4-1.6l10.7-25.8c0.2-0.6,0.9-0.9,1.5-0.6c3.3,1.3,12.6,4.7,16.2,5.6
	C49.9,65.4,50.2,66.1,49.9,66.8z"/>
<path fill="#FFFFFF" d="M78.6,86.1c0.4,0.9-0.5,1.8-1.4,1.6l-9.6-2.9l-5,9.1c-0.5,0.9-1.7,0.8-2.1-0.1l-11-26.9
	c-0.3-0.6,0.1-1.4,0.8-1.6c3.5-0.9,12.9-4.3,16.2-5.6c0.6-0.2,1.2,0,1.5,0.6L78.6,86.1z"/>
<path fill="none" stroke="#4A4A4A" stroke-width="2.75" stroke-linecap="round" stroke-miterlimit="10" d="M49.5,66.8l11,26.9
	c0.4,0.9,1.6,1,2.1,0.1l5-9.1l9.6,2.9c0.9,0.3,1.8-0.7,1.4-1.6L67.9,60.2c-0.2-0.6-0.9-0.9-1.5-0.6c-3.3,1.3-12.6,4.7-16.2,5.6
	C49.6,65.4,49.2,66.1,49.5,66.8z"/>
<path fill="#ECECEC" d="M-147.6,76.5h-7.3v2.7c0,0.7,0.6,1.3,1.3,1.3h8.6c0.7,0,1.3-0.6,1.3-1.3V64.1c0-0.7-0.6-1.3-1.3-1.3h-1.3
	v12.4C-146.3,75.9-146.9,76.5-147.6,76.5z"/>
<polygon fill="#ECECEC" points="-228,42.2 -228,47.9 -195.6,47.9 -195.6,20.1 -202,20.1 -202,42.2 "/>
<path fill="#ECECEC" d="M-459.9,58c-1.9-3-4-5.6-6.3-8.3c-1.7-2.1-3.4-4.3-4.3-6.9l-7.3,12.7c-0.6,1-0.2,2.2,0.7,2.7l28.7,16.6
	C-451.9,69-456.2,63.7-459.9,58z"/>
<path fill="#ECECEC" d="M-396.9,64.4c-5.2,2.8-10.1,6.4-14.6,9.8c-3,2.3-6.2,4.2-9,6.6c-2.4,2-5,3.3-7.5,5l14.3,8.3
	c1,0.6,2.2,0.2,2.7-0.7l15.8-27.4C-395.8,65.4-396.3,64.9-396.9,64.4z"/>
<path fill="#ECECEC" d="M-286.6,52.3c0.6,2.8,0.7,2.5,1.3,7.6c2.9,3,5.7,6.2,7.9,9.7c2.2,3.5,4.4,7.9,3,12.1
	c-1.6,4.7-5.9,8.5-10.5,10.2c-2.6,0.9-5.4,1.2-8,0.6c-0.4-0.1-0.8-0.2-1.3-0.4c0,0,0,0,0,0c1.8,1.8,5.4,4.7,9.8,4.2
	c3.7-0.4,7.2-3.2,10.4-8.4c0.3-0.7,4.1-8.5,4.8-12.8L-286.6,52.3z"/>
<path fill="#FFFFFF" stroke="#4A4A4A" stroke-width="2" stroke-miterlimit="10" d="M-638.8,85.5l-19.6-20.6
	c-1.1-1.2-1.1-3.1,0.1-4.2l1.7-1.6c1.2-1.1,3.1-1.1,4.2,0.1l19.6,20.6c1.1,1.2,1.1,3.1-0.1,4.2l-1.7,1.6
	C-635.7,86.7-637.6,86.7-638.8,85.5z"/>
<path fill="#ECECEC" d="M-637,80.4c0.9,0.9,0.8,2.4-0.1,3.3l-0.9,0.8c0.4,0.3,0.9,0.5,1.4,0.5c0.6,0,1.2-0.2,1.7-0.6l0.9-0.9
	c0.9-0.9,1-2.4,0.1-3.3l-18.9-19.9c-0.4-0.5-1-0.7-1.6-0.7c-0.6,0-1.2,0.2-1.7,0.6l0,0c0.1,0.1,0.1,0.1,0.2,0.2L-637,80.4z"/>
<path fill="#FFFFFF" stroke="#4A4A4A" stroke-width="2" stroke-miterlimit="10" d="M-700.2,27.3c2.6-4.3,6.3-8,11.1-10.6
	c13.8-7.3,30.8-2,38.1,11.8s2,30.8-11.8,38.1c-13.8,7.3-30.8,2-38.1-11.8c-1.2-2.3-2-4.6-2.6-7"/>
<path fill="#FFFFFF" stroke="#4A4A4A" stroke-width="2" stroke-miterlimit="10" d="M-703.4,47.9c-1.6-7.1-0.4-14.5,3.3-20.6"/>
<path fill="#ECECEC" d="M-655.1,31.5c0-0.1,0-0.1,0-0.2c-0.1,0-0.1-0.1-0.2-0.1c-2.1-1.9-3.2-4.5-5.5-6.4c-0.1-0.1-0.2-0.2-0.4-0.3
	c-0.8,0.2-0.1,0.3-0.9,0.5c6,8.9,3.8,40.6-31.2,29.6c-1.1-0.3,2.7,3.8,2.7,3.8c3.9,2.5,8.1,4.8,12.9,5c4.9,0.2,10.6-1.1,14.7-3.9
	c4.2-2.8,7.2-8.3,8.9-13C-652.2,41.3-653.9,36.6-655.1,31.5z"/>
<g>
	<path fill="#ECECEC" d="M-745,193.1c-0.5-0.6-1-1.1-1.7-1.4l-3.5-1.4l2.3,3c0.4,0.5,0.5,1,0.5,1.6c-0.1,0.6-0.4,1.1-0.9,1.5
		c-0.8,0.7-12,9.9-15.5,12.6c-4,3-9.8,3.8-14.9,2c-0.9-0.3-1.8-0.7-2.6-1.2c0,0,0,0,0-0.1c2.1-4.9,2.3-10.3,0.5-15.4l-5-12.7
		l3.8-10.9c0.4-1.1,1.5-1.7,2.5-1.4l1.1,0.3c0.1-0.4,0.2-0.8,0.3-1.2l-0.4-0.6c-0.6-0.9-1.3-1.5-2.4-1.9c-2.3-0.8-4.8,0.5-5.6,2.8
		l-4.5,12.8l5.8,14.8c1.8,5.1,1.6,10.6-0.5,15.5c-0.1,0.2-0.2,0.4-0.2,0.6l-0.5,1.1l1,0.6c1.3,0.8,2.7,1.5,4,1.9
		c2.2,0.8,4.6,1.2,7,1.2c4.2,0,8.3-1.3,11.5-3.7c4.1-3.1,16.5-13.3,17.2-14c0.9-0.7,1.5-1.8,1.7-3C-743.9,195.2-744.3,194-745,193.1
		z"/>
</g>
<rect x="-1126.8" y="-153.7" fill="#FE504F" width="99.7" height="99.7"/>
<rect x="-1130" y="-10" display="none" fill="#FFFFFF" width="120" height="120"/>
<g display="none" opacity="0.5">
	<g display="inline">
		<path fill="none" d="M-918.8,21.8c-1.1,0-2,0.1-2.9,0.1c-1.8,0-3.3,0.7-4.4,2.1c0.6,1.9,0.8,2.1,2.8,2.9
			C-922,25.2-920.3,23.7-918.8,21.8z"/>
		<path fill="none" d="M-916.9,27c0.8-0.9,1.8-1.8,3-2.2c0.7-0.3,1.4-0.7,1.9-1.3c-0.6-0.7-1.1-1.3-1.6-1.9
			c-0.4,0.1-0.8,0.1-1.1,0.2c-2.3,0.6-4.3,1.7-5.4,4c-0.3,0.6-0.8,1.1-1.2,1.6c-0.4,0.5-0.8,1-1.3,1.5c-0.9,1.1-1.1,2.4-1.1,3.7
			c0,1.2,0.3,1.5,1.8,2c0.2-1.5,0.9-2.8,1.8-3.9C-919,29.5-918,28.2-916.9,27z"/>
		<path fill="none" d="M-899.9,36.1c-0.3-0.9-0.6-1.8-0.5-2.7c0.1-0.6-0.2-1-0.6-1.4c-0.4-0.5-0.9-1-1.4-1.4c-1-0.7-1.5-1.6-1.7-2.8
			c-0.3-2-1.4-3.3-3.3-4.1c-1-0.4-2-0.4-3.2-0.4c0,0.3,0,0.6,0,0.9c-3.7,1.9-8.4,7.3-9.7,11.1c0.7,0.6,1.5,0.7,2.3,0.8
			c0.8-1.3,1.7-2.4,2.4-3.6c1.3-2.4,3.4-4.1,5.4-5.7c0.4-0.3,0.8-0.5,1.2-0.7c0.2-0.1,0.5,0,0.8,0.1c-0.2,1.1-0.9,1.7-1.6,2.3
			c-1.4,1.4-2.9,2.7-4,4.5c-0.2,0.4-0.7,0.6-1,0.9c-0.4,0.5-0.9,1.1-1,1.7c-0.2,1-0.1,2.1-0.1,3.1c1.9,0.3,2.5,0.1,3.2-1.3
			c0.2-0.4,0.3-0.7,0.6-1.1c1.6-2.5,3.7-4.5,6.1-6.2c0.3-0.2,0.6-0.4,0.9-0.4c0.3,0,0.5,0.2,0.9,0.4c-2.2,2.8-5.2,4.8-6.7,8
			c0.3,0.7,0.8,1.1,1.5,1.1c1.5,0,3,0.3,4.5-0.4c0.2-0.1,0.5-0.1,0.8-0.1c0.3,1.4,0.2,1.7-0.8,2.1c-0.5,0.2-1,0.4-1.5,0.4
			c-1.2,0.1-2.4,0-3.5-0.4c-0.9-0.3-1.8-0.4-2.7-0.6c-0.2,0-0.4,0-0.6,0.1c-0.8,0.6-1.8,0.4-2.7,0.4c-0.3,0-0.7-0.2-0.9,0.3
			c0.3,0.4,0.5,0.9,0.8,1.2c1.7,1.5,3.8,2.3,6,3c-0.1,0.4-0.3,0.7-0.3,1.1c-0.4,2.7-0.9,5.5-1.3,8.3c-0.2,1.3-0.7,2.4-1.1,3.6
			c-0.2,0.4-0.4,0.8-0.9,0.9c-0.8,0.2-1.7,0.4-2.5,0.4c-3.2-0.2-6.4-0.1-9.5-0.7c-0.9-0.2-1.6-0.5-2.2-1.2c-1.1-1.3-2.3-2.6-3.5-3.8
			c-0.4-0.4-0.7-0.8-1.1-1.1c-1-0.7-2-1.3-3-1.9c-0.3-0.2-0.7-0.5-1-0.6c-2.6-0.7-5.2-1.1-7.8-0.2c-1.9,0.6-3.7,1.3-5.5,2.4
			c-2,1.2-3.9,2.6-5.1,4.6c-0.2,0.4-0.6,0.8-1,1c-2,0.8-3.7,2.1-5.9,2.3c-1.3,0.1-1.9,0.9-2.2,2c-0.1,0.4-0.1,0.8-0.1,1.2
			c-0.1,2.7-0.3,5.4-0.4,8.2c0,0.5,0,0.9,0,1.3c0.2,0.2,0.2,0.3,0.3,0.4c1.4,1.3,3.3,1.5,5,1.7c2.8,0.3,5.7,0.5,8.5,0.4
			c2.9-0.1,5.7,0,8.5,0.1c3.5,0.2,7,0.1,10.5-0.2c3-0.2,6.1-0.3,9.1-0.1c1.9,0.1,3.8,0.2,5.8,0.3c0.5,0,1.1,0.1,1.6,0
			c1.3-0.3,2.6-0.2,4-0.1c1.5,0.1,2.8-0.7,4.1-1.3c0.3-0.1,0.5-0.5,0.7-0.7c0.6-0.9,1.2-1.9,1.8-2.8c1-1.5,1.8-3.1,2.1-4.9
			c0.1-0.6,0.3-1.1,0.5-1.7c0.3-0.8,0.5-1.5,0.8-2.3c1.8-5.8,2.5-11.8,2.4-17.9C-898.7,40.8-899,38.4-899.9,36.1z M-953.2,61.2
			c-0.6,0-0.8-0.4-0.7-0.8c0.1-0.9,0.9-1.6,1.9-1.6c0.2,0,0.3,0.2,0.5,0.4C-952.1,59.9-952.7,60.6-953.2,61.2z M-947.8,64
			c-0.1,0-0.1,0-0.3,0c-0.1-0.1-0.3-0.2-0.4-0.3c-0.1-0.4-0.1-0.9-0.1-1.3c0-0.2,0.4-0.3,0.6-0.4c0.5-0.1,0.8,0.3,0.9,0.8
			C-947,63.4-947.3,63.9-947.8,64z M-926.7,60.5c-0.4,1.1-1.1,2-2,2.7c-0.7,0.6-1.6,0.9-2.7,0.8c1.2-1.5,2.3-2.8,3.4-4.2
			c0.2-0.3,0.6-0.4,0.9-0.1C-926.9,59.8-926.6,60.2-926.7,60.5z"/>
		<path d="M-898.1,35.7c-0.2-0.5-0.3-1-0.3-1.5c0.1-1.9-0.8-3.3-2.2-4.5c-0.5-0.4-1-0.8-1.5-1.2c0-0.4-0.1-0.6-0.1-0.9
			c-0.6-3.7-3.4-5.6-6.5-5.9c-0.5,0-0.9-0.1-1.4-0.1c-0.6,0-1.1-0.1-1.4-0.6c-0.5-0.6-1.2-0.8-2-0.7c-0.9,0.1-1.7,0.1-2.5,0.4
			c-0.9,0.3-1.7,0.3-2.5,0.1c-1-0.2-2.1-0.3-3.2-0.4c-1.9,0-3.7,0.4-5.1,1.8c-1,0.9-1.3,1.7-0.9,3c0.3,1,0.8,1.8,1.7,2.4
			c0.4,0.3,0.9,0.6,1.3,0.9c-0.1,0.3-0.1,0.6-0.2,0.8c-0.6,1.2-0.6,2.4-0.7,3.7c0,1.6,0.7,2.7,2,3.4c0.6,0.3,1.4,0.5,2,0.7
			c0.5,0.2,1,0.3,1.4,0.4c0.3,1.1,0.6,2,1,3c1,2.7,2.9,4.5,5.9,5c0.4,0.1,0.9,0.2,1.3,0.3c0,0.2,0.1,0.4,0.1,0.5
			c-0.5,2.5-1,5.1-1.5,7.6c-0.1,0.5-0.2,1-0.4,1.5c-0.6,1.6-1.6,2.3-3.3,2.2c-2.6-0.2-5.2,0-7.7-0.8c-0.7-0.2-1.3-0.5-1.8-1
			c-1.8-1.9-3.4-3.9-5.3-5.6c-2.4-2.1-4.9-3.9-8.3-3.6c-0.2,0-0.4,0-0.6,0c-3,0-5.9,0.6-8.6,2.1c-0.7,0.4-1.4,0.8-1.9,1.4
			c-1.2,1.5-2.6,2.8-3.9,4.2c-0.1,0.1-0.3,0.3-0.4,0.5c-0.5,1-1.3,1.4-2.3,1.8c-0.6,0.2-1.2,0.6-1.8,0.8c-0.9,0.3-1.8,0.7-2.7,0.7
			c-1.3,0-1.9,0.7-2.5,1.6c-0.6,0.8-0.9,1.8-1,2.8c-0.1,2.7-0.3,5.4-0.4,8.2c0,0.4,0,0.8,0.1,1.2c0.1,1.2,0.7,2.1,1.6,2.9
			c0.9,0.8,1.9,1.1,3,1.4c3.7,0.9,52.9,0.7,54.6,0c1.4-0.6,2.6-1.5,3.3-2.8c1-1.9,2.2-3.6,2.8-5.7c0.6-2,1.2-4.1,1.9-6.1
			c1-2.7,1.6-5.5,1.9-8.3c0.3-3,0.4-6.1,0.5-9.1C-896.6,41.1-897,38.3-898.1,35.7z M-926.1,24c1.1-1.4,2.6-2.1,4.4-2.1
			c0.9,0,1.8,0,2.9-0.1c-1.4,2-3.1,3.4-4.6,5.1C-925.4,26-925.6,25.8-926.1,24z M-921.8,34.7c-1.5-0.5-1.8-0.8-1.8-2
			c0-1.4,0.2-2.6,1.1-3.7c0.4-0.5,0.8-1,1.3-1.5c0.4-0.5,0.9-1,1.2-1.6c1.1-2.3,3-3.4,5.4-4c0.4-0.1,0.8-0.2,1.1-0.2
			c0.5,0.6,1,1.2,1.6,1.9c-0.5,0.6-1.2,1-1.9,1.3c-1.2,0.4-2.2,1.3-3,2.2c-1.1,1.2-2.1,2.5-3.1,3.8
			C-920.9,31.9-921.6,33.2-921.8,34.7z M-901,61.2c-0.2,0.8-0.5,1.5-0.8,2.3c-0.2,0.6-0.4,1.1-0.5,1.7c-0.3,1.8-1,3.4-2.1,4.9
			c-0.6,0.9-1.2,1.9-1.8,2.8c-0.2,0.3-0.4,0.6-0.7,0.7c-1.3,0.6-2.6,1.4-4.1,1.3c-1.3-0.1-51.9,1.6-53.1-2.1
			c-0.1-0.1-0.2-0.2-0.3-0.4c0-0.4-0.1-0.8,0-1.3c0.1-2.7,0.3-5.4,0.4-8.2c0-0.4,0-0.8,0.1-1.2c0.3-1.1,0.9-1.9,2.2-2
			c2.2-0.2,4-1.5,5.9-2.3c0.4-0.2,0.7-0.6,1-1c1.3-2,3.2-3.3,5.1-4.6c1.7-1.1,3.5-1.8,5.5-2.4c2.6-0.8,5.2-0.5,7.8,0.2
			c0.4,0.1,0.7,0.4,1,0.6c1,0.6,2,1.3,3,1.9c0.4,0.3,0.8,0.7,1.1,1.1c1.2,1.3,2.3,2.5,3.5,3.8c0.6,0.7,1.3,1,2.2,1.2
			c3.1,0.6,6.3,0.5,9.5,0.7c0.8,0,1.7-0.2,2.5-0.4c0.5-0.1,0.8-0.5,0.9-0.9c0.4-1.2,1-2.3,1.1-3.6c0.4-2.8,0.9-5.5,1.3-8.3
			c0.1-0.3,0.2-0.6,0.3-1.1c-2.2-0.7-4.3-1.5-6-3c-0.4-0.3-0.6-0.8-0.8-1.2c0.2-0.5,0.6-0.3,0.9-0.3c0.9,0,1.9,0.2,2.7-0.4
			c0.1-0.1,0.4-0.1,0.6-0.1c0.9,0.2,1.8,0.3,2.7,0.6c1.2,0.3,2.4,0.4,3.5,0.4c0.5,0,1-0.2,1.5-0.4c1-0.4,1.1-0.7,0.8-2.1
			c-0.3,0-0.5,0-0.8,0.1c-1.4,0.7-3,0.5-4.5,0.4c-0.8,0-1.2-0.4-1.5-1.1c1.5-3.2,4.5-5.1,6.7-8c-0.4-0.2-0.7-0.4-0.9-0.4
			c-0.3,0-0.6,0.2-0.9,0.4c-2.4,1.7-4.5,3.8-6.1,6.2c-0.2,0.3-0.4,0.7-0.6,1.1c-0.7,1.4-1.3,1.6-3.2,1.3c0-1-0.1-2.1,0.1-3.1
			c0.1-0.6,0.6-1.1,1-1.7c0.3-0.4,0.8-0.6,1-0.9c1-1.7,2.5-3.1,4-4.5c0.7-0.6,1.4-1.2,1.6-2.3c-0.3,0-0.6-0.1-0.8-0.1
			c-0.4,0.2-0.8,0.4-1.2,0.7c-2.1,1.7-4.1,3.4-5.4,5.7c-0.7,1.2-1.5,2.3-2.4,3.6c-0.8,0-1.6-0.2-2.3-0.8c1.3-3.8,6.1-9.2,9.7-11.1
			c0-0.4,0-0.6,0-0.9c1.1,0,2.1,0,3.2,0.4c1.9,0.8,3,2.1,3.3,4.1c0.2,1.2,0.6,2.1,1.7,2.8c0.5,0.4,1,0.9,1.4,1.4
			c0.4,0.4,0.6,0.9,0.6,1.4c-0.1,1,0.2,1.9,0.5,2.7c0.9,2.3,1.2,4.7,1.3,7.2C-898.5,49.4-899.2,55.4-901,61.2z"/>
		<path d="M-955.2,43.1c0.6,0.4,1.3,0.5,2,0.7c0.3,0.1,0.6-0.4,0.4-0.7c-0.1-0.2-0.2-0.5-0.4-0.6c-0.9-0.6-1.7-1.2-2.6-1.8
			c-0.4-0.2-0.8-0.3-1.3-0.5c-0.2,0.2-0.6,0.3-0.6,0.4c-0.1,0.2,0,0.6,0.1,0.7C-956.8,42-956,42.6-955.2,43.1z"/>
		<path d="M-938.3,37.4c0-0.2,0-0.4-0.1-0.6c-0.2-0.2-0.5-0.5-0.8-0.5c-0.3,0-0.7,0.2-0.7,0.5c-0.3,0.9-0.7,1.9-0.9,2.8
			c-0.1,0.5,0.1,1,0.2,1.7C-939,40.2-938.3,38.9-938.3,37.4z"/>
		<path d="M-947.4,40c-0.3-0.9-0.5-1.9-1.2-2.6c-0.4-0.4-0.9-0.7-1.4-0.5c-0.3,0.1-0.6,0.4-0.8,0.6c0.5,0.8,1,1.5,1.5,2.2
			C-948.9,40.4-948.5,40.4-947.4,40z"/>
		<path d="M-929.8,42.5c0.5-0.3,0.9-0.8,0.9-1.5c0-0.3-0.2-0.6-0.4-0.8c-0.3-0.2-0.7-0.1-0.9,0.2c-0.6,0.9-1.1,1.8-1.6,2.7
			c0.1,0.1,0.2,0.2,0.3,0.3C-930.9,43.2-930.3,42.9-929.8,42.5z"/>
		<path d="M-927.9,59.7c-1.1,1.4-2.2,2.7-3.4,4.2c1.1,0.2,2-0.2,2.7-0.8c0.9-0.7,1.6-1.6,2-2.7c0.1-0.2-0.2-0.6-0.4-0.8
			C-927.3,59.3-927.7,59.5-927.9,59.7z"/>
		<path d="M-954,60.5c-0.1,0.4,0.1,0.8,0.7,0.8c0.5-0.6,1.1-1.3,1.7-2c-0.2-0.2-0.4-0.4-0.5-0.4C-953,58.8-953.8,59.5-954,60.5z"/>
		<path d="M-947.9,62c-0.2,0-0.6,0.2-0.6,0.4c-0.1,0.4,0,0.9,0.1,1.3c0,0.1,0.3,0.2,0.4,0.3c0.1,0,0.2,0,0.3,0
			c0.5-0.1,0.8-0.6,0.8-1.2C-947,62.3-947.4,61.9-947.9,62z"/>
	</g>
</g>
<g>
	<g display="none">
		
			<polyline display="inline" fill="none" stroke="#000000" stroke-width="3" stroke-linecap="round" stroke-linejoin="round" stroke-miterlimit="10" points="
			-1192.4,53.5 -1195.8,59.8 -1173.5,59.8 -1174.9,43.7 		"/>
		
			<path display="inline" fill="none" stroke="#000000" stroke-width="3" stroke-linecap="round" stroke-linejoin="round" stroke-miterlimit="10" d="
			M-1182.6,49.3l-8.4,3.5c0,0-5.1,2.2-6.3-1.4c-0.7-2.1,2.1-11.2,2.1-11.2"/>
		
			<path display="inline" fill="none" stroke="#000000" stroke-width="3" stroke-linecap="round" stroke-linejoin="round" stroke-miterlimit="10" d="
			M-1191,41.6c0,0-0.7-1.4-2.1-1.4s-4.9,0-4.9-3.5c0-2.1,4.2-11.2,4.2-11.2"/>
		
			<path display="inline" fill="none" stroke="#000000" stroke-width="3" stroke-linecap="round" stroke-linejoin="round" stroke-miterlimit="10" d="
			M-1172.1,24.2v17.5c0,1.2-0.9,2.1-2.1,2.1l0,0c-1.2,0-2.1-0.9-2.1-2.1v-9.8"/>
		
			<path display="inline" fill="none" stroke="#000000" stroke-width="3" stroke-linecap="round" stroke-linejoin="round" stroke-miterlimit="10" d="
			M-1172.1,24.9c0-7-3.5-6.3-3.5-6.3s-4.9,0-11.2,0s-7,0-9.1,3.5s1.4,3.5,1.4,3.5h8.4"/>
	</g>
	<path d="M-1166.3,20.7c-0.2-3.8-1.2-6.5-2.9-8c-1.5-1.2-3-1.2-3.6-1.1h-15.8c-9.1,0-10.8,0-14.2,5.7c-1.3,2.1-1.5,3.8-0.7,5.2
		c0.7,1.2,1.8,1.6,2.7,1.8c-1.8,4-5.2,11.9-5.2,14.5c0,2.8,1.2,4.7,3.7,5.7c-1.2,4-3.6,12.7-2.6,15.6c0.5,1.6,1.5,2.7,2.9,3.3
		c0.9,0.4,1.9,0.6,2.9,0.6l-3.8,6.8c-0.3,0.5-0.2,1,0,1.5c0.3,0.5,0.8,0.7,1.3,0.7h31.7c0.4,0,0.8-0.2,1.1-0.5
		c0.3-0.3,0.4-0.7,0.4-1.1l-1.8-21.2c2.2-0.3,3.8-2.2,3.8-4.4V21C-1166.3,20.9-1166.3,20.8-1166.3,20.7z M-1169.2,45.8
		c0,0.8-0.7,1.5-1.5,1.5s-1.5-0.7-1.5-1.5V30c0-0.8-0.7-1.5-1.5-1.5c-0.8,0-1.5,0.7-1.5,1.5v15.9c0,1.6,0.8,2.9,2,3.7l1.8,20.5
		h-27.6l3.7-6.6c0.7-0.2,1.2-0.4,1.3-0.5l11.9-5c0.8-0.3,1.1-1.2,0.8-1.9c-0.3-0.8-1.2-1.1-1.9-0.8l-11.9,5c-1,0.4-3.8,1.3-5.6,0.5
		c-0.7-0.3-1.1-0.8-1.3-1.6c-0.5-1.5,1-8.2,2.7-14c0.6,0.1,1.2,0.1,1.8,0.1c1,0,1.6,1.1,1.6,1.2c0.3,0.5,0.8,0.8,1.3,0.8
		c0.2,0,0.5-0.1,0.7-0.2c0.7-0.4,1-1.3,0.7-2c-0.5-1-2-2.8-4.3-2.8c-3.9,0-5.5-1-5.5-3.5c0-1.7,3-9.1,5.4-14.4h9.1l3,5.3l-3.3,4.2
		c-0.3,0.4-0.4,0.8-0.3,1.3l3,12.9c0.2,0.7,0.8,1.2,1.4,1.2c0.1,0,0.2,0,0.3,0c0.8-0.2,1.3-1,1.1-1.8l-2.8-12.2l3.5-4.4
		c0.4-0.5,0.4-1.1,0.1-1.7l-4-6.9c-0.3-0.5-0.8-0.7-1.3-0.7h-11.9c-0.5,0-1.2-0.2-1.4-0.5c-0.1-0.2-0.1-0.9,0.7-2.2
		c2.5-4.2,2.7-4.2,11.6-4.2h15.9c0.1,0,0.2,0,0.3,0c0,0,0.6-0.1,1.3,0.5c0.7,0.6,1.9,2.3,1.9,7V45.8z"/>
</g>
<path fill="none" stroke="#000000" stroke-width="1.5" stroke-miterlimit="10" d="M-1309.1,164.7"/>
<path fill="none" stroke="#000000" stroke-width="1.5" stroke-miterlimit="10" d="M-1240.7,158.4c-2.9,19.9,5.1,21.4,5.1,21.4
	c15.9,5.4,22.7-13.4,22.7-13.4"/>
<path fill="none" stroke="#000000" stroke-width="1.5" stroke-linecap="round" stroke-linejoin="round" d="M-1246.4,135.2
	c-0.4-2-0.8-3.7-0.8-3.7s13.3,1.9,19.4,0.1c6.1-1.8,1.7,9.7,1.7,9.7s3.6,0.1,3.9,1.5s-0.9,3-0.9,3l10.1,20.5"/>
<path fill="none" stroke="#000000" stroke-width="1.5" stroke-linecap="round" stroke-linejoin="round" d="M-1257,124.7
	c-8.7,7.3,10,8.5,10,8.5"/>
<path fill="none" stroke="#000000" stroke-width="1.5" stroke-linecap="round" stroke-linejoin="round" d="M-1241.1,117.5
	c-10.8-0.2-0.2,9.3,1,8.5c5.8-4.3-8.2-8.6-17-1.3"/>
<path fill="none" stroke="#000000" stroke-width="1.5" stroke-linecap="round" stroke-linejoin="round" d="M-1222.2,146.4
	c0,0,8.6-22.2-2.6-22.5c-1,0-3.4,1.3-3.1,2.7c0.2,1.4-2.3-8.9-13.1-9.1"/>
<path fill="none" stroke="#000000" stroke-width="1.5" stroke-linecap="round" stroke-linejoin="round" d="M-1232.2,140.5
	c0,0-0.4-3.7-3.2-3.2c-2.8,0.5-2.3,3.3-2.3,3.3"/>
<path fill="none" stroke="#000000" stroke-width="1.5" stroke-linecap="round" stroke-linejoin="round" d="M-1237.8,147.8
	c0,0-0.2-2.7-3.2-1c-2.3,1.3,1.5-7.9-2.4-10.2c-0.8-0.5-2.7,0.4-2.4,2.6c0,0,0.1,2.4-0.2,2.9c-1.1,1.6-1.5,3.9,0,12.2
	c1.5,8.4,18.8,0.9,18.8,0.9"/>
<path fill="none" stroke="#000000" stroke-width="1.5" stroke-miterlimit="10" d="M-1076.7,62.3c-3.4,23.5,6,25.2,6,25.2
	c18.7,6.4,26.8-15.8,26.8-15.8"/>
<path fill="none" stroke="#000000" stroke-width="1.5" stroke-linecap="round" stroke-linejoin="round" d="M-1083.4,35.1
	c-0.5-2.4-1-4.3-1-4.3s15.6,2.3,22.9,0.1s2.1,11.5,2.1,11.5s4.2,0.1,4.5,1.7c0.3,1.6-1.1,3.6-1.1,3.6l11.9,24.1"/>
<path fill="none" stroke="#000000" stroke-width="1.5" stroke-linecap="round" stroke-linejoin="round" d="M-1095.9,22.7
	c-10.3,8.6,11.8,10.1,11.8,10.1"/>
<path fill="none" stroke="#000000" stroke-width="1.5" stroke-linecap="round" stroke-linejoin="round" d="M-1077.1,14.2
	c-12.7-0.3-0.2,11,1.2,10c6.8-5-9.7-10.1-20-1.5"/>
<path fill="none" stroke="#000000" stroke-width="1.5" stroke-linecap="round" stroke-linejoin="round" d="M-1054.9,48.3
	c0,0,10.1-26.2-3.1-26.5c-1.2,0-4,1.6-3.7,3.2c0.3,1.6-2.7-10.5-15.5-10.8"/>
<path fill="none" stroke="#000000" stroke-width="1.5" stroke-linecap="round" stroke-linejoin="round" d="M-1066.6,41.4
	c0,0-0.5-4.4-3.8-3.8c-3.3,0.6-2.7,3.9-2.7,3.9"/>
<path fill="none" stroke="#000000" stroke-width="1.5" stroke-linecap="round" stroke-linejoin="round" d="M-1073.3,49.9
	c0,0-0.3-3.2-3.8-1.2c-2.7,1.6,1.7-9.3-2.8-12c-1-0.6-3.2,0.5-2.8,3.1c0,0,0.1,2.8-0.3,3.4c-1.3,1.9-1.7,4.5,0,14.4
	s22.2,1.1,22.2,1.1"/>
<g>
	
		<rect x="-1071.7" y="22.6" transform="matrix(0.8262 0.5634 -0.5634 0.8262 -169.789 597.6703)" fill="#FE504F" width="36.1" height="2.1"/>
	
		<ellipse transform="matrix(0.5634 -0.8262 0.8262 0.5634 -477.5763 -877.2072)" fill="#FE504F" cx="-1068.7" cy="13.2" rx="2.2" ry="2.2"/>
	
		<ellipse transform="matrix(0.5634 -0.8262 0.8262 0.5634 -481.4562 -843.5153)" fill="#FE504F" cx="-1038.8" cy="33.7" rx="2.2" ry="2.2"/>
	<g>
		
			<rect x="-1055.3" y="22" transform="matrix(0.5634 -0.8262 0.8262 0.5634 -479.5611 -860.2099)" fill="#FFFFFF" width="3.3" height="3.3"/>
		<path fill="#FE504F" d="M-1054.6,18.6l-4.1,6l6,4.1l4.1-6L-1054.6,18.6z M-1053.2,25.9l-2.7-1.9l1.9-2.7l2.7,1.9L-1053.2,25.9z"/>
	</g>
</g>
<path fill="none" d="M-786.2,196.5l-8.5-22c-0.3-0.9-1-1.6-1.9-2c-0.8-0.3-1.7-0.4-2.5,0c-1.7,0.7-2.5,2.7-1.9,4.5l3.9,10
	c0.1,0.2,0.1,0.5,0,0.8c-0.1,0.3-0.3,0.4-0.5,0.5c-0.3,0.1-0.6,0.1-0.9-0.1c-0.2-0.1-0.4-0.3-0.5-0.5l-3.8-10l-3-7.4
	c-0.3-0.9-1-1.6-1.9-2c-0.8-0.4-1.7-0.4-2.5,0c-1.7,0.7-2.5,2.7-1.9,4.5l5.4,14.2c0.2,0.5-0.1,1.2-0.6,1.3l-0.1,0.1c0,0-0.1,0-0.2,0
	c-0.3,0-0.7-0.2-0.9-0.7l-7.2-18.7c-0.3-0.9-1-1.6-1.9-2c-0.8-0.4-1.7-0.4-2.5,0c-1.7,0.7-2.5,2.7-1.9,4.5l2.5,6.5
	c0,0.1,0,0.2,0.1,0.2l0,0.1l4.7,12c0.1,0.2,0.1,0.5,0,0.8c-0.1,0.3-0.3,0.4-0.5,0.5l-0.1,0.1c0,0-0.1,0-0.2,0
	c-0.3,0-0.7-0.2-0.9-0.7l-4.8-12.3c-0.5-0.8-1.2-1.5-1.9-1.8c-0.8-0.3-1.6-0.4-2.4-0.1c-1.7,0.7-2.5,2.7-1.8,4.5l9,22.6
	c0.2,0.4,0.1,0.9-0.2,1.1c-0.3,0.2-0.8,0.3-1.2,0.1l-7.8-4.7c0-0.1-0.1-0.1-0.2-0.2c-0.6-0.4-1.3-0.6-1.9-0.6c-0.2,0-0.3,0-0.5,0
	c-0.9,0.1-1.7,0.6-2.2,1.4c-1,1.6-0.7,3.8,0.8,4.9c0.3,0.3,13.1,10.5,17.2,13.5c3,2.1,6.4,3.1,10,3.1c2.4,0,4.8-0.5,7.2-1.4
	C-787.4,217.6-782.6,206.6-786.2,196.5z"/>
<path fill="#4A4A4A" d="M-771.2,196.5c0.3,0.4,0.2,1-0.2,1.3c-0.4,0.3-0.9,0.7-1.3,1c-0.2,0.1-0.4,0.2-0.7,0.2
	c-0.3,0-0.5-0.2-0.7-0.4c-0.1-0.2-0.2-0.5-0.2-0.7c0-0.3,0.2-0.5,0.3-0.7l0.2-0.1c0.4-0.3,0.8-0.6,1.2-0.9
	C-772.1,195.9-771.5,196-771.2,196.5C-771.2,196.5-771.2,196.5-771.2,196.5z"/>
<path fill="#4A4A4A" d="M-744.2,192.6c-1.7-2.2-4.7-2.7-8-1.4c-0.8,0.3-1.9,0.8-3.6,1.5l-0.6,0.3l6.4-17.5c0.5-1.4,0.4-2.9-0.2-4.2
	c-0.6-1.3-1.7-2.3-3.1-2.8c-0.9-0.4-2-0.4-3.1-0.1l-0.6,0.2l0.9-2.7c0.5-1.4,0.4-2.9-0.2-4.2c-0.6-1.3-1.7-2.3-3.1-2.8
	c-2.7-1-5.9,0.5-6.9,3.2l-0.2,0.5l-0.3-0.4c-0.6-0.8-1.5-1.5-2.5-1.9c-2.8-1-5.9,0.5-7,3.3l-1.2,3.5l-0.3-0.4
	c-0.6-0.9-1.6-1.5-2.5-1.8c-2.8-1-5.9,0.5-7.1,3.4l-3.6,10.2l-1.9-4.7c-0.5-1.4-1.5-2.5-2.9-3.1c-1.3-0.6-2.6-0.6-4-0.1
	c-0.9,0.4-1.7,1-2.4,1.9l-0.3,0.4l-1.4-3.3c-0.5-1.4-1.5-2.5-2.9-3.1c-1.3-0.6-2.6-0.6-4-0.1c-0.9,0.4-1.7,1-2.4,1.9l-0.3,0.4
	l-0.1-0.3c-0.3-0.6-0.6-1.2-1.1-1.7c-1.7-1.8-3.8-2.3-5.9-1.5c-2.7,1.1-4.1,4.4-3,7.1l1,2.6l-0.5-0.1c-1.1-0.2-2.1-0.2-3,0.2
	c-2.7,1.1-4.1,4.4-3,7.1l7.8,19.8l-5.3-3.2c-1-0.7-2.2-1.1-3.3-1.1c-0.2,0-0.5,0-0.7,0c-1.4,0.2-2.7,1-3.5,2.2
	c-1.7,2.4-1.1,5.8,1.2,7.6c0.9,0.9,13,10.6,17.7,13.9c3.2,2.3,7.2,3.5,11.1,3.5c2.6,0,5.4-0.5,7.9-1.6c2.9-1.2,5.4-3,7.5-5.2
	c0.4-0.4,0.3-1,0-1.4l0,0c-0.4-0.4-1.1-0.4-1.4,0c-1.8,2-4.1,3.6-6.8,4.7c-2.4,0.9-4.8,1.4-7.2,1.4c-3.6,0-7.1-1.1-10-3.1
	c-4.1-3-16.9-13.2-17.2-13.5c-1.5-1.1-1.8-3.3-0.8-4.9c0.5-0.8,1.3-1.3,2.2-1.4c0.2,0,0.3,0,0.5,0c0.7,0,1.3,0.2,1.9,0.6
	c0.1,0,0.2,0.1,0.2,0.1l7.8,4.7c0.3,0.2,0.8,0.1,1.2-0.1c0.3-0.2,0.4-0.7,0.2-1.1l-9-22.6c-0.7-1.8,0.1-3.8,1.8-4.5
	c0.8-0.2,1.6-0.2,2.4,0.1c0.8,0.3,1.5,1,1.9,1.8l4.8,12.3c0.2,0.4,0.6,0.7,0.9,0.7c0.1,0,0.2,0,0.2,0l0.1-0.1
	c0.2-0.1,0.4-0.3,0.5-0.5c0.1-0.3,0.1-0.6,0-0.8l-4.7-12l0-0.1c0-0.1,0-0.1-0.1-0.2l-2.5-6.5c-0.7-1.8,0.1-3.8,1.9-4.5
	c0.8-0.3,1.7-0.3,2.6,0c0.8,0.4,1.5,1.1,1.9,2l7.2,18.7c0.2,0.4,0.6,0.6,0.9,0.6c0.1,0,0.2,0,0.2,0l0.1-0.1c0.4-0.1,0.7-0.8,0.5-1.3
	l-5.4-14.2c-0.7-1.8,0.1-3.8,1.9-4.5c0.8-0.3,1.7-0.3,2.5,0c0.8,0.4,1.5,1.1,1.9,2l3,7.4l3.8,10c0.1,0.2,0.2,0.4,0.5,0.5
	c0.3,0.1,0.6,0.2,0.9,0.1c0.2-0.1,0.4-0.3,0.5-0.5c0.1-0.3,0.1-0.6,0-0.8l-3.9-10c-0.7-1.8,0.1-3.8,1.9-4.5c0.8-0.3,1.7-0.3,2.5,0
	c0.8,0.4,1.5,1.1,1.9,2l8.5,22c1.9,5.3,1.5,10.7-0.7,15.3c-0.4,0.9-0.3,1.8,0.2,2.6c0.2,0.3,0.4,0.5,0.7,0.6c1.1,0.8,2.5,1.4,4.1,2
	c2.4,0.8,4.9,1.3,7.4,1.3c4.4,0,8.6-1.4,12.1-4c4.4-3.3,16.8-13.6,17.3-14c1.1-0.9,1.8-2.2,2-3.6
	C-742.9,195.1-743.3,193.7-744.2,192.6z M-745.1,196.3c-0.1,0.9-0.6,1.8-1.3,2.3c-0.9,0.8-13.2,10.9-17.2,14
	c-3,2.3-6.9,3.5-10.9,3.5c-2.3,0-4.5-0.4-6.6-1.1c-1.2-0.4-2.5-1-3.8-1.8l-0.2-0.1l0.1-0.3c0.1-0.2,0.2-0.4,0.3-0.7
	c2.2-5.2,2.4-10.9,0.5-16.2l-5.6-14.5l4.4-12.5c0.7-1.8,2.6-2.8,4.4-2.2c0.9,0.4,1.5,0.9,2,1.7c0.2,0.4,0.6,1.6,0.1,2.7l-3.8,10.8
	c-0.2,0.5,0.1,1,0.5,1.3l0,0c0.1,0,0.1,0,0.2,0.1c0,0,0.1,0,0.1,0c0.4,0,0.8-0.3,1-0.7l3.8-10.7l0,0c0-0.1,0-0.2,0.1-0.3l2.6-7.3
	c0.7-1.8,2.6-2.8,4.4-2.2c0.9,0.4,1.5,1,2,1.7c0.4,0.9,0.5,2,0.1,2.8l-5.4,15.6c-0.2,0.5,0.1,1,0.6,1.3l0,0c0.1,0,0.1,0,0.2,0.1
	c0,0,0.1,0,0.1,0c0.4,0,0.8-0.3,1-0.7l7.1-20.1c0.7-1.8,2.6-2.8,4.4-2.2c0.9,0.4,1.5,1,2,1.7c0.1,0.4,0.6,1.6,0.1,2.7l-2.3,6.3
	c-0.1,0.1-0.1,0.2-0.1,0.3c0,0.1,0,0.1-0.1,0.2l0,0c0,0.1-0.1,0.3-0.1,0.3l-4.7,13c-0.2,0.5,0.1,1,0.5,1.3l0,0c0.1,0,0.1,0,0.2,0.1
	c0,0,0.1,0,0.1,0c0.4,0,0.8-0.3,1-0.7l5-13.7c0.8-1.7,2.8-2.6,4.3-2c0.8,0.4,1.5,1,1.9,1.7c0.2,0.3,0.6,1.6,0.1,2.7l-7,19l-0.1,0.1
	c-1.1,0.4-2.1,0.8-2.7,1l-0.1,0.1l-0.1,0c-2.9-1.1-5.2-1.2-7.2-0.6c-0.7,0.2-0.9,1.1-0.4,1.6l0,0c0.2,0.2,0.6,0.3,0.9,0.2
	c1.7-0.4,3.7-0.3,6.3,0.8c0.2,0.1,0.5,0.1,0.7,0c0.3-0.1,7.6-3,10.1-4c2.7-1,4.5-0.8,5.6,0.7C-745.2,194.4-745,195.4-745.1,196.3z"
	/>
<path fill="#4A4A4A" stroke="#4A4A4A" stroke-width="0.5" stroke-miterlimit="10" d="M-818.8,155.4c0.1,0.1,0.2,0.2,0.3,0.3l6.6,4.2
	c0.2,0.1,0.3,0.2,0.6,0.2c0.4,0,0.6-0.2,0.8-0.5c0.4-0.6,0.1-1.1-0.3-1.4l-6.5-4.2c-0.1-0.1-0.2-0.1-0.3-0.1c0,0-0.1,0-0.1,0
	c0,0,0,0,0,0c-0.4,0-0.7,0.2-0.9,0.5c-0.1,0.1-0.1,0.3-0.2,0.4c0,0,0,0,0,0C-819.1,154.9-819,155.2-818.8,155.4z"/>
<path fill="#4A4A4A" stroke="#4A4A4A" stroke-width="0.5" stroke-miterlimit="10" d="M-806.6,144.2
	C-806.6,144.2-806.6,144.2-806.6,144.2l3.6,10.5c0.2,0.4,0.5,0.7,1,0.7c0.1,0,0.2,0,0.2,0l0.1-0.1c0.5-0.2,0.8-0.7,0.7-1.3
	l-3.6-10.4c0,0,0,0,0,0l0,0c0,0,0,0,0,0c-0.1-0.3-0.4-0.6-0.9-0.6c-0.1,0-0.3,0-0.5,0C-806.4,143-806.8,143.6-806.6,144.2
	L-806.6,144.2z"/>
<path fill="#4A4A4A" stroke="#4A4A4A" stroke-width="0.5" stroke-miterlimit="10" d="M-789.9,148.6c0.5,0.2,1.1,0,1.3-0.6l1.2-3.2
	c0.2-0.5-0.1-1.1-0.6-1.3c-0.5-0.1-1,0.1-1.3,0.6l-1.2,3.3C-790.6,147.8-790.4,148.3-789.9,148.6
	C-789.9,148.6-789.9,148.6-789.9,148.6z"/>
<path fill="#4A4A4A" stroke="#4A4A4A" stroke-width="0.5" stroke-miterlimit="10" d="M-790.7,150.7c-0.5-0.2-1.2,0-1.4,0.6l-0.4,1
	l0,0c0,0.1,0,0.3,0,0.4c0.1,0.4,0.3,0.8,0.7,0.9l0,0c0,0,0,0,0,0l0.1,0.1l0,0c0,0,0.1,0,0.2,0c0.4,0,0.8-0.2,0.9-0.6l0.4-1.2
	C-790,151.5-790.2,150.9-790.7,150.7C-790.7,150.7-790.7,150.7-790.7,150.7z"/>
<path fill="#4A4A4A" stroke="#4A4A4A" stroke-width="0.5" stroke-miterlimit="10" d="M-782.6,227.1L-782.6,227.1
	C-782.6,227.1-782.6,227.1-782.6,227.1c-0.5-0.2-1.1,0.2-1.2,0.7l-2.2,7.4c-0.2,0.5,0.1,1,0.6,1.2c0.1,0,0.1,0,0.2,0.1
	c0.1,0,0.1,0,0.2,0c0.4,0,0.8-0.2,1-0.8l2.2-7.4C-781.8,227.9-782.1,227.3-782.6,227.1z"/>
<path fill="#4A4A4A" stroke="#4A4A4A" stroke-width="0.5" stroke-miterlimit="10" d="M-771.9,227.4
	C-771.9,227.4-771.9,227.4-771.9,227.4c0.5-0.3,0.7-0.8,0.5-1.3l-0.4-1c-0.2-0.4-0.6-0.6-1-0.6c-0.1,0-0.2,0-0.3,0.1
	c-0.5,0.2-0.7,0.8-0.5,1.3l0.4,1C-773.1,227.4-772.4,227.6-771.9,227.4z"/>
<path fill="#4A4A4A" stroke="#4A4A4A" stroke-width="0.5" stroke-miterlimit="10" d="M-767.1,236.2l-2.6-6.3
	c-0.2-0.6-0.9-0.8-1.4-0.5c0,0,0,0,0,0c-0.4,0.2-0.6,0.8-0.4,1.2l2.6,6.3c0.2,0.4,0.6,0.7,0.9,0.7c0.2,0,0.2,0,0.4-0.1v0
	C-767.2,237.3-767,236.7-767.1,236.2z"/>
<path fill="#4A4A4A" stroke="#4A4A4A" stroke-width="0.5" stroke-miterlimit="10" d="M-756.3,222.7L-756.3,222.7
	C-756.3,222.7-756.3,222.7-756.3,222.7l-6.8-3.8c-0.5-0.2-1.1-0.1-1.4,0.5c-0.2,0.5,0,1,0.5,1.4l6.7,3.8c0.2,0.1,0.4,0.2,0.6,0.2
	c0.4,0,0.6-0.3,0.8-0.5l0,0C-755.6,223.6-755.8,223-756.3,222.7z"/>
<image overflow="visible" width="280" height="280" xlink:href="../../../../Desktop/additional_insured_interested_party.png"  transform="matrix(0.5286 0 0 0.5286 -976.941 266.8605)">
</image>
<path fill="none" stroke="#4A4A4A" stroke-width="2" stroke-linecap="round" stroke-miterlimit="10" d="M-662.2,24.2
	c14.1,11.1,9.4,34.2-7.8,38.9c-16.4,4.5-32-11.2-27.3-27.6c2.8-9.7,12-16.4,22.1-16.1"/>
<path fill="none" stroke="#4A4A4A" stroke-width="2" stroke-linecap="round" stroke-miterlimit="10" d="M-667,21.3
	c0.5,0.2,1,0.4,1.5,0.7"/>
<g>
	<path fill="#4A4A4A" d="M-679.1,23.7l-1.4-0.3c-5.2-0.5-9.4-4.5-10.1-9.7l-0.5-2.7c-0.1-0.7-0.7-1.1-1.4-1.1
		c-0.7,0-1.2,0.5-1.3,1.2l-0.3,2.1c-0.5,5.2-4.5,9.4-9.7,10.1l-2.6,0.5c-0.7,0.1-1.2,0.7-1.2,1.4c0,0.7,0.5,1.2,1.2,1.3l2.2,0.3
		c0,0,0.1,0,0.1,0c5.1,0.6,9.2,4.5,10,9.7l0.4,1.9c0.1,0.7,0.6,1.1,1.3,1.2c0.1,0,0.1,0,0.2,0c0.7,0,1.3-0.6,1.4-1.3l0.3-1.4
		c0.5-5.2,4.5-9.4,9.7-10.2l1.8-0.4c0.7-0.1,1.2-0.7,1.2-1.5C-677.8,24.4-678.4,23.8-679.1,23.7z M-692.3,35.1
		c-1.2-4.9-5.1-8.7-10-9.9c4.9-1.2,8.7-5,9.9-9.9c1.2,4.9,5.1,8.7,10,9.9C-687.3,26.4-691.1,30.3-692.3,35.1z"/>
	<path fill="#FFFFFF" d="M-692.4,15.3c-1.2,4.9-5,8.7-9.9,9.9c4.9,1.1,8.8,5,10,9.9c1.2-4.9,5-8.8,9.9-10
		C-687.3,24-691.2,20.2-692.4,15.3z"/>
</g>
<path fill="#FFFFFF" stroke="#4A4A4A" stroke-width="2" stroke-miterlimit="10" d="M-637.9,89.2l-2.5-2.6c-1.1-1.2-1.1-3.1,0.1-4.2
	l4.7-4.4c1.2-1.1,3.1-1.1,4.2,0.1l2.5,2.6c1.1,1.2,1.1,3.1-0.1,4.2l-4.7,4.4C-634.9,90.5-636.8,90.4-637.9,89.2z"/>
<g>
	<path fill="#ECECEC" d="M-633.2,81.2c0.4,0.5,0.7,1,0.6,1.7c0,0.6-0.3,1.2-0.7,1.6l-3.9,3.7c0.4,0.4,0.9,0.6,1.5,0.6
		c0.6,0,1.2-0.2,1.7-0.6l3.9-3.7c0.5-0.4,0.7-1,0.7-1.6c0-0.6-0.2-1.2-0.6-1.7l-1.8-1.9c-0.7-0.8-1.9-0.9-2.8-0.5
		c-0.2,0.1-0.4,0.2-0.5,0.4l-0.1,0.1c0.1,0.1,0.1,0.1,0.2,0.1L-633.2,81.2z"/>
</g>
<path fill="#FFFFFF" stroke="#4A4A4A" stroke-width="2" stroke-miterlimit="10" d="M-752.1-80.1l-4-0.5c-0.5-0.1-0.5-0.8,0-0.9
	l4.6-0.6c7.3-1,13-6.8,13.8-14.1l0.4-4c0.1-0.5,0.8-0.5,0.8,0l0.6,4.7c1,7.3,6.8,12.9,14,13.7l3,0.3c0.6,0.1,0.7,1,0,1.1l-3.6,0.5
	c-7.3,1-13,6.8-13.8,14.1l-0.3,3c-0.1,0.6-1,0.6-1.1,0l-0.5-3.7C-739.1-73.6-744.8-79.2-752.1-80.1z"/>
<g>
	<path fill="#4A4A4A" d="M-504,57.6c-1.8-4.9-5.3-8.8-10.1-11c-4.7-2.2-10-2.5-14.9-0.7c-5.3,1.9-9.5,6.1-11.5,11.3
		c-0.2,0.5,0,1,0.4,1.3c0,0,0,0,0,0c0.6,0.4,1.5,0.2,1.7-0.5c1.8-4.6,5.4-8.2,10.1-9.9c1.6-0.6,3.3-0.9,5-1c4.6-0.3,9.3,1.3,13,4.8
		c0.6,0.5,1.1,1.1,1.6,1.8c7.3,9.8,2.8,22.9-7.7,26.7l-0.2,0.1c-7.9,3.4-16.3,5.5-24.9,6.3c-4,0.4-8,0.5-11.9,0.3
		c-10.9-0.5-21.5-3.2-31.4-7.9c-6.3-2.9-9-10.5-6-16.7l17-36.2c1.9-4.1,5.4-7.3,9.7-8.8l18.9-6.8c0.2-0.1,0.5-0.1,0.7-0.2
		c1.6-0.2,3.2,0.7,3.8,2.2l3.3,9.2c0,0,0,0,0,0l0,0c-0.7-0.1-1.5-0.1-2.4-0.1c0,0,0,0,0,0c-1.5,0-3.3,0.1-5.4,0.3
		c-0.2,0-0.4,0-0.4,0c-0.6,0-1.1,0.5-1.1,1.1c0,0.6,0.4,1.1,1.1,1.2c0,0,0.3,0,0.7,0c7.9-0.7,9.6,0.1,9.9,0.3
		c0.4,0.3,0.4,1.1,0.4,1.5c-0.2,1.8-1.4,3.7-1.9,3.9c-2.4,1.2-12.1,0.2-17.7-0.6c-0.1,0-0.1,0-0.1,0c0,0,0,0,0,0
		c-1.7-0.5-3.2-1.8-3.8-3.5c-0.1-0.3-0.3-0.5-0.6-0.6c-0.3-0.1-0.6-0.1-0.8,0c-0.3,0.1-0.5,0.3-0.6,0.6c-0.1,0.3-0.1,0.6,0,0.8
		c0.6,1.6,1.6,2.9,3,3.8l0.4,0.3l-4.5,25.5l-0.4,0.1c-2.9,1.2-5.4,3-7.4,5.3c-0.4,0.5-0.3,1.3,0.2,1.6c0,0,0,0,0,0
		c0.5,0.3,1.1,0.2,1.4-0.2c4.9-5.7,13.1-7.7,20.2-4.3c2.4,1.1,4.4,2.7,6.1,4.7c0.4,0.5,1.1,0.5,1.6,0.2c0.1-0.1,0.2-0.2,0.3-0.4
		l0-0.1c0.1-0.1,0.1-0.2,0.1-0.3c0-0.2,0-0.4-0.1-0.6c-0.3-1-1.8-2.2-1.8-2.2l-0.7-0.6c-1.3-1.1-2.8-2.1-4.4-2.8
		c-3.7-1.7-7.8-2.3-11.8-1.5l-0.8,0.1l4.2-23.5l0.6,0.1c0.2,0,0.5,0,0.7,0.1c2.2,0.3,7.7,1,12.2,1c2.7,0,4.7-0.3,5.8-0.8
		c1.4-0.7,2.9-3.5,3.2-5.8c0.2-2-0.6-3.1-1.3-3.6c-0.3-0.2-0.6-0.4-1.1-0.6l-3.7-10.4c-0.5-1.5-1.6-2.6-3-3.3
		c-1.4-0.6-3-0.7-4.4-0.2l-18.9,6.8c-4.9,1.8-8.8,5.3-11,10l-17,36.2c-1.7,3.6-1.9,7.7-0.5,11.4c1.4,3.7,4.1,6.7,7.7,8.4
		c10.2,4.8,21.1,7.5,32.3,8.1c1.4,0.1,2.8,0.1,4.2,0.1c11.5,0,23-2.3,33.6-6.8C-505.6,78.9-500.4,67.7-504,57.6z"/>
	<path fill="#4A4A4A" d="M-572.3,66.9c0.1,0.3,0.3,0.5,0.6,0.6s0.6,0.1,0.8,0c0.3-0.1,0.5-0.3,0.6-0.6c0.2-0.3,0.3-0.7,0.5-1
		c0.3-0.5,0.1-1.2-0.4-1.5c0,0,0,0,0,0c-0.5-0.3-1.2-0.1-1.5,0.4c-0.2,0.4-0.4,0.7-0.6,1.1C-572.4,66.3-572.4,66.6-572.3,66.9z"/>
	<path fill="#FFFFFF" d="M-537.4,21.8L-537.4,21.8c-0.7-0.1-1.5-0.1-2.4-0.1C-538.9,21.7-538.1,21.7-537.4,21.8z"/>
	<path fill="#ECECEC" d="M-531.2,49.7c6.4,0,14.9,1.7,17.4,8.5c2.7,7.4-1.3,13.5-7.2,17.2c-18.3,11.3-56.8,2-61,0.6
		c-10.3-3.5-5.8-15-6.5-18l-2.1,4.4c-2.9,6.3-0.2,13.8,6,16.7c9.9,4.7,20.5,7.3,31.4,7.8c3.9,0.2,7.8,0.1,11.7-0.2
		c8.6-0.8,17.1-2.9,24.9-6.3l0.2-0.1c8.9-3.2,13.5-13.1,10.3-21.9c-1.6-4.3-4.7-7.8-8.8-9.7c-2.7-1.2-5.5-1.8-8.4-1.6
		c-1.6,0.1-3.2,0.4-4.7,1C-529,48.5-530.1,49.1-531.2,49.7z"/>
	<path fill="#ECECEC" d="M-554.1,13.7c2.8-0.1,5.6-0.2,8.1,1c3.1,1.4,4.2,4.2,5.4,7c0.2,0,0.4,0,0.7,0c0,0,0,0,0,0
		c0.9,0,1.7,0,2.4,0.1c0,0,0,0,0,0l-3.3-9.2c-0.6-1.6-2.2-2.5-3.8-2.2c-0.2,0-0.4,0.1-0.7,0.2L-554.1,13.7z"/>
</g>
<path fill="none" d="M-420.3,43.7c0,0,0-0.1-0.1,0C-420.4,43.6-420.3,43.7-420.3,43.7L-420.3,43.7z"/>
<path fill="none" d="M-423.5,51.1l0.1,1.4c0.2,1.3,1.3,2.3,2.8,2.3c1.3-0.2,2.2-1.2,2.2-2.5l0.1-2.4l-0.5-1.5L-423.5,51.1z"/>
<path fill="none" stroke="#4A4A4A" stroke-width="0" stroke-linecap="round" stroke-linejoin="round" d="M-413.2,30.2
	c-0.1,0-0.2,0-0.4-0.1"/>
<path fill="#ECECEC" d="M-420.3,43.7L-420.3,43.7c-0.1,0-0.1,0-0.1,0c-1.9,1.9-5.3,5-8.3,7.9l9.3-5.2L-420.3,43.7z"/>
<g>
	<path fill="#ECECEC" d="M-383.4,53.1c0,0-0.9-1-1-1.1c-0.2-0.2,0-0.9-0.2-1l-1.5-2c-3.8-4.8-5.9-11.6-12-19.7
		c0-0.1-0.1-0.1-0.1-0.2c-0.5,0.4-1,0.7-1.5,1.1c2,3.2,3.1,7.1,4.7,10.3c2.6,5.3,6,11.4,5.7,17.5c-0.1,2.9-1.9,5-4.2,6.3
		c0.4,0.2,0.9,0.3,1.4,0.4c0.5,0.1,0.9,0.1,1.4,0.1c1.5,0,3-0.5,4.2-1.3c1.4-0.9,2.4-2.3,2.9-4c0.1-0.5,0.2-0.9,0.3-1.4
		c0-0.2,0-0.5,0-0.8C-383.3,55.1-382.6,54.1-383.4,53.1z"/>
	<path fill="#ECECEC" d="M-405.5,24.7c0.1-0.1,1.9-1.5,2.7-2.1c-0.6-0.4-1.3-0.7-1.9-0.9c-0.2-0.1-0.4-0.1-0.6-0.2h0
		c-0.2-0.1-0.4-0.1-0.6-0.1c0,0-0.1,0-0.1,0c-3.7-0.7-7.6,0.7-11.6,3.3C-412.5,23.4-409.2,23.1-405.5,24.7z"/>
	<path fill="none" d="M-420.8,39.6l1.4-1.4l-0.2-0.5c-0.6-1.5-0.4-3.1,0.3-4.6c0.6-1.4,1.9-2.6,3.5-3.1c1-0.3,1.9-0.4,2.7-0.3
		c0.1,0,0.2,0,0.4,0.1c0.3,0,0.6,0.1,0.8,0.2c0,0,0.1-0.1,0.1-0.1c1.2-1.1,2.5-2.3,4-3.5c0.7-0.6,1.3-1.1,2-1.7
		c0.8-0.6,1.6-1.2,2.3-1.9c-0.6-0.4-1.2-0.6-1.8-0.9c-0.2-0.1-0.4-0.1-0.6-0.2h0c-0.2-0.1-0.4-0.1-0.5-0.1c0,0-0.1,0-0.1,0
		c-4.9-1-10.4,2.1-15.6,6.8c-0.4,0.4-1,1.3-1.6,2.3c-0.1,0.1-0.2,0.3-0.2,0.4c0,0,0,0,0,0l-0.7,1.6c0,0,0,0,0,0l-1.4,3.2
		c-0.6,1.3-0.3,2.7,0.7,3.7c0.6,0.6,1.4,0.9,2.3,0.9C-422.2,40.5-421.4,40.2-420.8,39.6z"/>
	<path fill="none" d="M-386.1,51.6L-386.1,51.6c-3.8-4.9-7.9-12.3-12-22.3c0-0.1-0.1-0.1-0.1-0.2c-1.5,1.1-3,2.2-4.7,3.4l-4.2,3.1
		l1.1,2c0.3,0.5,0.2,1-0.2,1.4l0,0c-0.5,0.5-1.4,0.3-1.7-0.3l-2.1-3.8c0-0.1-0.1-0.1-0.1-0.1l0.2-0.1l-0.2,0.1l-0.1-0.1
		c-0.3-1-1-1.7-2-2.2c-0.9-0.4-2-0.5-3-0.2c-1.1,0.4-1.8,1.1-2.3,2.1c-0.4,1.1-0.5,2.1-0.1,2.9l3.5,10.1c0.8,2,5.2,12.2,15.2,12.2
		c0.4,0,0.6,0.1,0.9,0.3l1.7,1.8c-0.1,0.1-0.2,0.2-0.3,0.2c0.2,0.3,0.5,0.6,0.8,0.9c1.4,1.3,3.2,2,5.1,2c4.1,0,7.4-3.3,7.4-7.4
		C-383.3,55.2-384.3,53-386.1,51.6z"/>
	<path fill="#ECECEC" d="M-409.6,31.5l0.5,0.6c0.5,0.6,0.8,1.1,1,1.7l0,0l4-3c8.5-5.9,14.1-10.8,16.8-14.7c0.2-0.4,0.1-0.6,0-0.7
		c-0.1-0.1-0.4-0.3-0.7-0.1c-6.2,3.1-15.5,9.9-22,15.9L-409.6,31.5z"/>
	<path fill="none" stroke="#4A4A4A" stroke-width="0" stroke-linecap="round" stroke-linejoin="round" d="M-405.9,21.7
		c0.2,0.1,0.4,0.1,0.6,0.2"/>
	<path fill="none" stroke="#4A4A4A" stroke-width="0" stroke-linecap="round" stroke-linejoin="round" d="M-406.5,21.6
		c0.2,0,0.3,0.1,0.5,0.1"/>
	<path fill="none" stroke="#4A4A4A" stroke-width="0" stroke-linecap="round" stroke-linejoin="round" d="M-405.9,24.6
		c-0.7,0.6-1.4,1.1-2,1.7"/>
	<path fill="#4A4A4A" d="M-396.2,28.5c-0.2-0.3-0.2-0.5-0.3-0.7c5.1-4,8.7-7.4,10.8-10.4c0.7-1.1,0.7-2.5-0.1-3.5
		c-0.8-1-2.2-1.2-3.3-0.6c-3.5,1.8-8.1,4.8-12.6,8.1c-7-4.9-14.7,0-14.8,0.1c-0.4,0.3-1.9,1.2-3.5,2.3c-1.6,1.1-3.2,2.4-3.9,3.3
		c-0.6,0.8-2,2.6-2.7,4.6l-1.6,3.4c-0.9,2.1-0.4,4.7,1.2,6.2c0.6,0.5,1.1,0.8,1.7,1.1l1.1,0.5c-1.7,1.5-2.7,2.7-3.5,3.6
		c-0.8,0.9-1.4,1.7-2.3,2.5l-0.1,0.1c-0.5,0.5-0.6,1.2-0.2,1.7c0.3,0.4,0.7,0.5,1.1,0.5c0.2,0,0.4-0.1,0.6-0.2l4.7-2.3l0,0
		c0.2,2.4,2.2,4.3,4.6,4.3h0.4c1.2-0.1,2.4-0.7,3.2-1.6l0.7-0.8l0.6,0.9c2.9,4.5,6.1,7.2,9.7,8.8c1.3,0.6,5.7,1.1,5.7,1.1
		c0.2,0.8,1,2.1,1.7,2.7c1.8,1.7,4.1,2.6,6.5,2.6c5.3,0,9.5-4.3,9.6-9.6C-381.1,53.6-390.9,37.9-396.2,28.5z M-388.1,15.2
		c0.4-0.2,0.6,0,0.7,0.1c0.1,0.1,0.3,0.4,0,0.7c-2.7,3.9-8.3,8.8-16.8,14.7l-4,3l0,0c-0.2-0.5-0.5-1.1-1-1.7l-0.5-0.6l-0.5-0.4
		C-403.7,25.1-394.3,18.3-388.1,15.2z M-425.4,39.7c-1-1-1.3-2.4-0.7-3.7l1.4-3.2c0,0,0,0,0,0l0.7-1.6c0,0,0,0,0,0
		c0.1-0.1,0.2-0.3,0.2-0.4c0.6-1,1.1-1.9,1.6-2.3c5.3-4.7,10.7-7.8,15.6-6.8c0.1,0,0.1,0,0.1,0c0.2,0,0.3,0.1,0.5,0.1h0
		c0.2,0.1,0.4,0.1,0.6,0.2c0.6,0.2,1.2,0.5,1.8,0.9c-0.8,0.6-1.6,1.2-2.3,1.9c-0.7,0.6-1.4,1.1-2,1.7c-1.4,1.2-2.7,2.4-4,3.5
		c0,0-0.1,0.1-0.1,0.1c-0.2-0.1-0.5-0.1-0.8-0.2c-0.1,0-0.2,0-0.4-0.1c-0.8-0.1-1.7-0.1-2.7,0.3c-1.6,0.6-2.9,1.7-3.5,3.1
		c-0.7,1.5-0.9,3.1-0.3,4.6l0.2,0.5l-1.4,1.4c-0.6,0.6-1.4,0.9-2.3,0.9C-424,40.5-424.8,40.2-425.4,39.7z M-426.6,48
		c2.9-2.7,6.2-5.7,8-7.5c0.1-0.1,0.1,0,0.1,0l0.8,2.5L-426.6,48z M-416.7,48.8c0,1.2-0.9,2.2-2.1,2.3c-1.4,0-2.5-0.9-2.7-2.2
		l-0.1-1.3l4.5-2.5l0.4,1.4L-416.7,48.8z M-390.7,64.9c-1.9,0-3.7-0.7-5.1-2c-0.9-0.9-2.2-3-2.2-3c-0.3-0.3-0.5-0.3-0.9-0.3
		c-10,0-14.4-10.2-15.2-12.2l-3.5-10.1c-0.3-0.8-0.3-1.8,0.1-2.9c0.4-1,1.2-1.7,2.3-2.1c1-0.3,2.1-0.3,3,0.2c0.9,0.5,1.6,1.2,2,2.2
		l0.1,0.1l0.2-0.1l-0.2,0.1c0,0,0,0,0.1,0.1l2.1,3.8c0.3,0.6,1.2,0.8,1.7,0.3l0,0c0.4-0.4,0.5-0.9,0.2-1.4l-1.1-2l4.2-3.1
		c1.7-1.2,3.2-2.3,4.7-3.4c0,0.1,0,0.1,0.1,0.2c5.4,9.3,14.8,24.6,14.9,28.1C-383.2,61.5-386.6,64.9-390.7,64.9z"/>
</g>
<g>
	<g>
		<path fill="#4A4A4A" d="M-451,26.3c-0.2-0.3-0.6-0.5-1-0.5c-0.2,0-0.4,0.1-0.6,0.2l-12.7,8.2c-0.5,0.4-0.7,1.1-0.4,1.6
			c0.3,0.5,1.1,0.7,1.6,0.4l12.7-8.2C-450.8,27.6-450.6,26.9-451,26.3z"/>
		<path fill="#4A4A4A" d="M-427.6,27.8c0.1-0.3,0-0.6-0.2-0.9c-0.2-0.3-0.6-0.5-1-0.5c-0.2,0-0.4,0.1-0.6,0.2l-28.7,18.5
			c-0.5,0.4-0.7,1.1-0.4,1.6c0.3,0.5,1.1,0.7,1.6,0.4l28.7-18.5C-427.9,28.4-427.7,28.1-427.6,27.8z"/>
		<path fill="#4A4A4A" d="M-433.6,40.9c-0.4-0.5-1.1-0.7-1.6-0.4l-18.2,11.7c-0.5,0.4-0.7,1.1-0.4,1.6c0.3,0.5,1.1,0.7,1.6,0.4
			l18.2-11.7C-433.4,42.2-433.3,41.4-433.6,40.9z"/>
	</g>
	<path fill="#4A4A4A" d="M-401,66.8C-401,66.8-401,66.8-401,66.8c-0.4-0.5-1.1-0.5-1.6-0.2l-2.5,1.8c-0.6,0.4-0.7,1.3-0.2,1.9
		c0,0,0,0,0,0c0.4,0.4,1.1,0.5,1.6,0.1l2.5-1.8C-400.6,68.3-400.5,67.4-401,66.8z"/>
	<path fill="#4A4A4A" d="M-409.6,71.4l-26.6,18.7l-39.6-57l31.4-21l4,8.3c0.7,1.5,2.1,2.5,3.5,2.8c0.3,0.1,0.6,0.1,0.9,0.1
		c1,0,2-0.4,2.8-1l7-5.5l2,2.6c0.4,0.5,1.1,0.6,1.6,0.2l0,0c0.5-0.4,0.6-1.1,0.2-1.6c-1.1-1.4-3.3-4.1-3.6-4.2
		c0,0-13.1-3.5-17.4-4.7c-0.5-0.1-34.8,22.7-34.8,22.7c-0.3,0.2-0.4,0.5-0.5,0.8c-0.1,0.3,0,0.6,0.2,0.8l41,59
		c0.1,0.1,0.4,0.4,0.7,0.5l0,0l0.1,0c0.4,0,0.6-0.1,0.8-0.2l27.6-19.4c0.6-0.4,0.7-1.3,0.2-1.9l0,0
		C-408.5,71.2-409.1,71.1-409.6,71.4z M-428.4,15.7l-6.3,5c-0.6,0.6-1.3,0.6-1.8,0.5c-0.8-0.2-1.5-0.8-2-1.6l-3.7-7.6L-428.4,15.7z"
		/>
	<path fill="#ECECEC" d="M-442.1,12l3.7,7.6c0.4,0.8,1.1,1.4,2,1.6c0.4,0.1,1.1,0.1,1.8-0.5l6.3-5L-442.1,12z"/>
</g>
<g>
	<path fill="#ECECEC" d="M-743.3,53.7c-0.5-0.6-1-1.1-1.7-1.4l-3.5-1.4l2.3,3c0.4,0.5,0.5,1,0.5,1.6c-0.1,0.6-0.4,1.1-0.9,1.5
		c-0.8,0.7-12,9.9-15.5,12.6c-4,3-9.8,3.8-14.9,2c-0.9-0.3-1.8-0.7-2.6-1.2c0,0,0,0,0-0.1c2.1-4.9,2.3-10.3,0.5-15.4l-5-12.7
		l3.8-10.9c0.4-1.1,1.5-1.7,2.5-1.4l1.1,0.3c0.1-0.4,0.2-0.8,0.3-1.2l-0.4-0.6c-0.6-0.9-1.3-1.5-2.4-1.9c-2.3-0.8-4.8,0.5-5.6,2.8
		l-4.5,12.8l5.8,14.8c1.8,5.1,1.6,10.6-0.5,15.5c-0.1,0.2-0.2,0.4-0.2,0.6l-0.5,1.1l1,0.6c1.3,0.8,2.7,1.5,4,1.9
		c2.2,0.8,4.6,1.2,7,1.2c4.2,0,8.3-1.3,11.5-3.7c4.1-3.1,16.5-13.3,17.2-14c0.9-0.7,1.5-1.8,1.7-3
		C-742.2,55.9-742.6,54.7-743.3,53.7z"/>
</g>
<path fill="none" d="M-784.5,57.1l-8.5-22c-0.3-0.9-1-1.6-1.9-2c-0.8-0.3-1.7-0.4-2.5,0c-1.7,0.7-2.5,2.7-1.9,4.5l3.9,10
	c0.1,0.2,0.1,0.5,0,0.8c-0.1,0.3-0.3,0.4-0.5,0.5c-0.3,0.1-0.6,0.1-0.9-0.1c-0.2-0.1-0.4-0.3-0.5-0.5l-3.8-10l-3-7.4
	c-0.3-0.9-1-1.6-1.9-2c-0.8-0.4-1.7-0.4-2.5,0c-1.7,0.7-2.5,2.7-1.9,4.5l5.4,14.2c0.2,0.5-0.1,1.2-0.6,1.3l-0.1,0.1c0,0-0.1,0-0.2,0
	c-0.3,0-0.7-0.2-0.9-0.7l-7.2-18.7c-0.3-0.9-1-1.6-1.9-2c-0.8-0.4-1.7-0.4-2.5,0c-1.7,0.7-2.5,2.7-1.9,4.5l2.5,6.5
	c0,0.1,0,0.2,0.1,0.2l0,0.1l4.7,12c0.1,0.2,0.1,0.5,0,0.8c-0.1,0.3-0.3,0.4-0.5,0.5l-0.1,0.1c0,0-0.1,0-0.2,0
	c-0.3,0-0.7-0.2-0.9-0.7l-4.8-12.3c-0.5-0.8-1.2-1.5-1.9-1.8c-0.8-0.3-1.6-0.4-2.4-0.1c-1.7,0.7-2.5,2.7-1.8,4.5l9,22.6
	c0.2,0.4,0.1,0.9-0.2,1.1c-0.3,0.2-0.8,0.3-1.2,0.1l-7.8-4.7c0-0.1-0.1-0.1-0.2-0.2c-0.6-0.4-1.3-0.6-1.9-0.6c-0.2,0-0.3,0-0.5,0
	c-0.9,0.1-1.7,0.6-2.2,1.4c-1,1.6-0.7,3.8,0.8,4.9c0.3,0.3,13.1,10.5,17.2,13.5c3,2.1,6.4,3.1,10,3.1c2.4,0,4.8-0.5,7.2-1.4
	C-785.7,78.2-780.9,67.3-784.5,57.1z"/>
<path fill="#4A4A4A" d="M-769.5,57.1c0.3,0.4,0.2,1-0.2,1.3c-0.4,0.3-0.9,0.7-1.3,1c-0.2,0.1-0.4,0.2-0.7,0.2
	c-0.3,0-0.5-0.2-0.7-0.4c-0.1-0.2-0.2-0.5-0.2-0.7c0-0.3,0.2-0.5,0.3-0.7l0.2-0.1c0.4-0.3,0.8-0.6,1.2-0.9
	C-770.4,56.5-769.8,56.6-769.5,57.1C-769.5,57.1-769.5,57.1-769.5,57.1z"/>
<path fill="#4A4A4A" d="M-742.5,53.2c-1.7-2.2-4.7-2.7-8-1.4c-0.8,0.3-1.9,0.8-3.6,1.5l-0.6,0.3l6.4-17.5c0.5-1.4,0.4-2.9-0.2-4.2
	c-0.6-1.3-1.7-2.3-3.1-2.8c-0.9-0.4-2-0.4-3.1-0.1l-0.6,0.2l0.9-2.7c0.5-1.4,0.4-2.9-0.2-4.2c-0.6-1.3-1.7-2.3-3.1-2.8
	c-2.7-1-5.9,0.5-6.9,3.2l-0.2,0.5l-0.3-0.4c-0.6-0.8-1.5-1.5-2.5-1.9c-2.8-1-5.9,0.5-7,3.3l-1.2,3.5l-0.3-0.4
	c-0.6-0.9-1.6-1.5-2.5-1.8c-2.8-1-5.9,0.5-7.1,3.4l-3.6,10.2l-1.9-4.7c-0.5-1.4-1.5-2.5-2.9-3.1c-1.3-0.6-2.6-0.6-4-0.1
	c-0.9,0.4-1.7,1-2.4,1.9l-0.3,0.4l-1.4-3.3c-0.5-1.4-1.5-2.5-2.9-3.1c-1.3-0.6-2.6-0.6-4-0.1c-0.9,0.4-1.7,1-2.4,1.9l-0.3,0.4
	l-0.1-0.3c-0.3-0.6-0.6-1.2-1.1-1.7c-1.7-1.8-3.8-2.3-5.9-1.5c-2.7,1.1-4.1,4.4-3,7.1l1,2.6l-0.5-0.1c-1.1-0.2-2.1-0.2-3,0.2
	c-2.7,1.1-4.1,4.4-3,7.1l7.8,19.8l-5.3-3.2c-1-0.7-2.2-1.1-3.3-1.1c-0.2,0-0.5,0-0.7,0c-1.4,0.2-2.7,1-3.5,2.2
	c-1.7,2.4-1.1,5.8,1.2,7.6c0.9,0.9,13,10.6,17.7,13.9c3.2,2.3,7.2,3.5,11.1,3.5c2.6,0,5.4-0.5,7.9-1.6c2.9-1.2,5.4-3,7.5-5.2
	c0.4-0.4,0.3-1,0-1.4l0,0c-0.4-0.4-1.1-0.4-1.4,0c-1.8,2-4.1,3.6-6.8,4.7c-2.4,0.9-4.8,1.4-7.2,1.4c-3.6,0-7.1-1.1-10-3.1
	c-4.1-3-16.9-13.2-17.2-13.5c-1.5-1.1-1.8-3.3-0.8-4.9c0.5-0.8,1.3-1.3,2.2-1.4c0.2,0,0.3,0,0.5,0c0.7,0,1.3,0.2,1.9,0.6
	c0.1,0,0.2,0.1,0.2,0.1l7.8,4.7c0.3,0.2,0.8,0.1,1.2-0.1c0.3-0.2,0.4-0.7,0.2-1.1l-9-22.6c-0.7-1.8,0.1-3.8,1.8-4.5
	c0.8-0.2,1.6-0.2,2.4,0.1c0.8,0.3,1.5,1,1.9,1.8l4.8,12.3c0.2,0.4,0.6,0.7,0.9,0.7c0.1,0,0.2,0,0.2,0l0.1-0.1
	c0.2-0.1,0.4-0.3,0.5-0.5c0.1-0.3,0.1-0.6,0-0.8l-4.7-12l0-0.1c0-0.1,0-0.1-0.1-0.2l-2.5-6.5c-0.7-1.8,0.1-3.8,1.9-4.5
	c0.8-0.3,1.7-0.3,2.6,0c0.8,0.4,1.5,1.1,1.9,2l7.2,18.7c0.2,0.4,0.6,0.6,0.9,0.6c0.1,0,0.2,0,0.2,0l0.1-0.1c0.4-0.1,0.7-0.8,0.5-1.3
	l-5.4-14.2c-0.7-1.8,0.1-3.8,1.9-4.5c0.8-0.3,1.7-0.3,2.5,0c0.8,0.4,1.5,1.1,1.9,2l3,7.4l3.8,10c0.1,0.2,0.2,0.4,0.5,0.5
	c0.3,0.1,0.6,0.2,0.9,0.1c0.2-0.1,0.4-0.3,0.5-0.5c0.1-0.3,0.1-0.6,0-0.8l-3.9-10c-0.7-1.8,0.1-3.8,1.9-4.5c0.8-0.3,1.7-0.3,2.5,0
	c0.8,0.4,1.5,1.1,1.9,2l8.5,22c1.9,5.3,1.5,10.7-0.7,15.3c-0.4,0.9-0.3,1.8,0.2,2.6c0.2,0.3,0.4,0.5,0.7,0.6c1.1,0.8,2.5,1.4,4.1,2
	c2.4,0.8,4.9,1.3,7.4,1.3c4.4,0,8.6-1.4,12.1-4c4.4-3.3,16.8-13.6,17.3-14c1.1-0.9,1.8-2.2,2-3.6C-741.2,55.8-741.6,54.3-742.5,53.2
	z M-743.4,57c-0.1,0.9-0.6,1.8-1.3,2.3c-0.9,0.8-13.2,10.9-17.2,14c-3,2.3-6.9,3.5-10.9,3.5c-2.3,0-4.5-0.4-6.6-1.1
	c-1.2-0.4-2.5-1-3.8-1.8l-0.2-0.1l0.1-0.3c0.1-0.2,0.2-0.4,0.3-0.7c2.2-5.2,2.4-10.9,0.5-16.2l-5.6-14.5l4.4-12.5
	c0.7-1.8,2.6-2.8,4.4-2.2c0.9,0.4,1.5,0.9,2,1.7c0.2,0.4,0.6,1.6,0.1,2.7l-3.8,10.8c-0.2,0.5,0.1,1,0.5,1.3l0,0c0.1,0,0.1,0,0.2,0.1
	c0,0,0.1,0,0.1,0c0.4,0,0.8-0.3,1-0.7l3.8-10.7l0,0c0-0.1,0-0.2,0.1-0.3l2.6-7.3c0.7-1.8,2.6-2.8,4.4-2.2c0.9,0.4,1.5,1,2,1.7
	c0.4,0.9,0.5,2,0.1,2.8l-5.4,15.6c-0.2,0.5,0.1,1,0.6,1.3l0,0c0.1,0,0.1,0,0.2,0.1c0,0,0.1,0,0.1,0c0.4,0,0.8-0.3,1-0.7l7.1-20.1
	c0.7-1.8,2.6-2.8,4.4-2.2c0.9,0.4,1.5,1,2,1.7c0.1,0.4,0.6,1.6,0.1,2.7l-2.3,6.3c-0.1,0.1-0.1,0.2-0.1,0.3c0,0.1,0,0.1-0.1,0.2l0,0
	c0,0.1-0.1,0.3-0.1,0.3l-4.7,13c-0.2,0.5,0.1,1,0.5,1.3l0,0c0.1,0,0.1,0,0.2,0.1c0,0,0.1,0,0.1,0c0.4,0,0.8-0.3,1-0.7l5-13.7
	c0.8-1.7,2.8-2.6,4.3-2c0.8,0.4,1.5,1,1.9,1.7c0.2,0.3,0.6,1.6,0.1,2.7l-7,19l-0.1,0.1c-1.1,0.4-2.1,0.8-2.7,1l-0.1,0.1l-0.1,0
	c-2.9-1.1-5.2-1.2-7.2-0.6c-0.7,0.2-0.9,1.1-0.4,1.6l0,0c0.2,0.2,0.6,0.3,0.9,0.2c1.7-0.4,3.7-0.3,6.3,0.8c0.2,0.1,0.5,0.1,0.7,0
	c0.3-0.1,7.6-3,10.1-4c2.7-1,4.5-0.8,5.6,0.7C-743.5,55.1-743.2,56-743.4,57z"/>
<path fill="#4A4A4A" stroke="#4A4A4A" stroke-width="0.5" stroke-miterlimit="10" d="M-817.1,16c0.1,0.1,0.2,0.2,0.3,0.3l6.6,4.2
	c0.2,0.1,0.3,0.2,0.6,0.2c0.3,0,0.6-0.2,0.8-0.5c0.4-0.6,0.1-1.1-0.3-1.4l-6.5-4.2c-0.1-0.1-0.2-0.1-0.3-0.1c0,0-0.1,0-0.1,0
	c0,0,0,0,0,0c-0.4,0-0.7,0.2-0.9,0.5c-0.1,0.1-0.1,0.3-0.2,0.4c0,0,0,0,0,0C-817.4,15.6-817.3,15.8-817.1,16z"/>
<path fill="#4A4A4A" stroke="#4A4A4A" stroke-width="0.5" stroke-miterlimit="10" d="M-804.9,4.8C-804.9,4.8-804.9,4.8-804.9,4.8
	l3.6,10.5c0.2,0.4,0.5,0.7,1,0.7c0.1,0,0.2,0,0.2,0l0.1-0.1c0.5-0.2,0.8-0.7,0.7-1.3l-3.6-10.4c0,0,0,0,0,0l0,0c0,0,0,0,0,0
	c-0.1-0.3-0.4-0.6-0.9-0.6c-0.1,0-0.3,0-0.5,0C-804.7,3.6-805,4.2-804.9,4.8L-804.9,4.8z"/>
<path fill="#4A4A4A" stroke="#4A4A4A" stroke-width="0.5" stroke-miterlimit="10" d="M-788.2,9.2c0.5,0.2,1.1,0,1.3-0.6l1.2-3.2
	c0.2-0.5-0.1-1.1-0.6-1.3c-0.5-0.1-1,0.1-1.3,0.6l-1.2,3.3C-788.9,8.4-788.7,9-788.2,9.2C-788.2,9.2-788.2,9.2-788.2,9.2z"/>
<path fill="#4A4A4A" stroke="#4A4A4A" stroke-width="0.5" stroke-miterlimit="10" d="M-789,11.3c-0.5-0.2-1.2,0-1.4,0.6l-0.4,1l0,0
	c0,0.1,0,0.3,0,0.4c0.1,0.4,0.3,0.8,0.7,0.9l0,0c0,0,0,0,0,0l0.1,0.1l0,0c0,0,0.1,0,0.2,0c0.4,0,0.8-0.2,0.9-0.6l0.4-1.2
	C-788.2,12.1-788.5,11.5-789,11.3C-788.9,11.3-788.9,11.3-789,11.3z"/>
<path fill="#4A4A4A" stroke="#4A4A4A" stroke-width="0.5" stroke-miterlimit="10" d="M-780.9,87.8L-780.9,87.8
	C-780.9,87.8-780.9,87.8-780.9,87.8c-0.5-0.2-1.1,0.2-1.2,0.7l-2.2,7.4c-0.2,0.5,0.1,1,0.6,1.2c0.1,0,0.1,0,0.2,0.1
	c0.1,0,0.1,0,0.2,0c0.4,0,0.8-0.2,1-0.8l2.2-7.4C-780.1,88.5-780.3,87.9-780.9,87.8z"/>
<path fill="#4A4A4A" stroke="#4A4A4A" stroke-width="0.5" stroke-miterlimit="10" d="M-770.2,88C-770.2,88-770.1,88-770.2,88
	c0.5-0.3,0.7-0.8,0.5-1.3l-0.4-1c-0.2-0.4-0.6-0.6-1-0.6c-0.1,0-0.2,0-0.3,0.1c-0.5,0.2-0.7,0.8-0.5,1.3l0.4,1
	C-771.3,88-770.7,88.3-770.2,88z"/>
<path fill="#4A4A4A" stroke="#4A4A4A" stroke-width="0.5" stroke-miterlimit="10" d="M-765.4,96.9l-2.6-6.3
	c-0.2-0.6-0.9-0.8-1.4-0.5c0,0,0,0,0,0c-0.4,0.2-0.6,0.8-0.4,1.2l2.6,6.3c0.2,0.4,0.6,0.7,0.9,0.7c0.2,0,0.2,0,0.4-0.1v0
	C-765.5,98-765.2,97.4-765.4,96.9z"/>
<path fill="#4A4A4A" stroke="#4A4A4A" stroke-width="0.5" stroke-miterlimit="10" d="M-754.5,83.3L-754.5,83.3
	C-754.5,83.3-754.5,83.3-754.5,83.3l-6.8-3.8c-0.5-0.2-1.1-0.1-1.4,0.5c-0.2,0.5,0,1,0.5,1.4l6.7,3.8c0.2,0.1,0.4,0.2,0.6,0.2
	c0.4,0,0.6-0.3,0.8-0.5l0,0C-753.9,84.2-754,83.6-754.5,83.3z"/>
<path fill="none" stroke="#4A4A4A" stroke-width="1.5" stroke-linecap="round" stroke-miterlimit="10" d="M-288.4,164.6"/>
<path fill="none" stroke="#4A4A4A" stroke-width="2" stroke-linecap="round" stroke-miterlimit="10" d="M-291.3,67.9
	c1-1.3,1.5-2.1,1.5-2.1"/>
<path fill="none" stroke="#4A4A4A" stroke-width="2" stroke-linecap="round" stroke-miterlimit="10" d="M-321.8,67.6
	c2.3,15.4,20.1,8.5,20.1,8.5c2.8-1.1,5.1-2.8,7-4.6"/>
<g>
	<g id="XMLID_1_">
		<g>
			<path fill="#FFFFFF" d="M-332.5,24.3c0.7-3.3,5.2-6.9,13.3-7.1c8.2-0.2,24.9,7.2,27.3,11.3l0.1,0.1c0.7,0.9,1.9,1.1,2.9,0.4
				c1.2-1,3.1-1.8,6-2.4c0.8-0.2,1.3-0.1,1.5,0.1c0.8,1.2-1.8,6.8-4.8,11.2l-0.1,0.2l-1.8,7.4c-0.2-0.4-0.4-0.6-0.6-0.8
				c-0.7-0.5-1.7-0.6-2.5-0.5c0,0,0,0,0-0.1l1.2-6.2c0.1-0.4-0.1-0.7-0.4-1c-2-6.1-10.5-5.8-19.6-5.5c-7,0.3-14.2,0.5-19.3-1.9
				C-331.8,28.4-333,26.5-332.5,24.3z"/>
			<path fill="#4A4A4A" d="M-300.6,76.2c0.9,3.7,3.9,13.7,6.4,16.1c1.8,1.8,5.4,4.7,9.8,4.2c3.7-0.4,7.2-3.2,10.4-8.4
				c0.3-0.7,4.1-8.5,4.8-12.8l-17.4-22.9c-0.3-0.4-0.2-1.1,0.2-1.4c0.5-0.3,1.1-0.2,1.4,0.2l17.9,23.5l-0.1,0.4
				c-0.6,4.6-4.9,13.5-5.1,13.9l0,0.1c-3.6,5.7-7.6,8.9-11.9,9.4c-0.4,0-0.8,0.1-1.2,0.1c-4.6,0-8.3-3-10.2-4.9
				c-3.3-3.2-6.6-15.6-6.9-17c-0.1-0.5,0.2-1.1,0.7-1.2C-301.3,75.3-300.7,75.6-300.6,76.2z"/>
			<path fill="#4A4A4A" d="M-334.5,23.8c0.9-4,6-8.5,15.2-8.6c8.5-0.2,25.9,7.1,29,12.2c1.4-1.2,3.7-2.1,6.8-2.8
				c1.7-0.4,2.9-0.1,3.6,0.9c2,2.9-2.9,10.7-4.7,13.3l-1.9,7.9c-0.1,0.4-0.5,0.8-1,0.8c-0.1,0-0.2,0-0.2,0c-0.1,0-0.2-0.1-0.3-0.1
				c-0.2,2.9-1.6,5.6-4.1,5.6c-0.5,0-1-0.5-1-1s0.5-1,1-1c1.3,0,2.2-2.2,2.2-4.4c0-0.3-0.1-0.3-0.1-0.3c-0.4-0.2-1.5-0.2-2.3,0.1
				L-294,47l1.8-8.8c-1.2-5.3-8.9-5-17.8-4.7c-2.8,0.1-5.6,0.2-8.3,0.1c0,0.1,0,0.2,0,0.3c-0.6,2.5-1.4,9.4,1.2,12l0.5,0.5l-0.3,0.6
				c-0.1,0.1-5.9,12.4-3.6,21c0.1,0.5-0.2,1.1-0.7,1.2c-0.1,0-0.2,0-0.3,0c-0.4,0-0.9-0.3-1-0.7c-2.2-8.3,2.3-19.1,3.5-21.8
				c-3.2-4.1-1.4-12.6-1.2-13.3c-3.6-0.2-7-0.8-9.9-2.1C-333.6,29.8-335.2,27-334.5,23.8z M-319.3,17.2c-8.1,0.1-12.6,3.8-13.3,7.1
				c-0.5,2.2,0.7,4.1,3.2,5.3c5.1,2.4,12.3,2.1,19.3,1.9c9-0.3,17.5-0.6,19.6,5.5c0.3,0.2-0.8,6.5-0.9,7.2c0,0,0,0.1,0,0.1
				c0.8-0.1,1.8,0,2.5,0.5c0.2,0.2,0.5,0.4,0.6,0.8l1.8-7.4l0.1-0.2c3-4.4,5.6-10,4.8-11.2c-0.1-0.2-0.7-0.2-1.5-0.1
				c-2.9,0.6-4.8,1.4-6,2.4c-1,0.7-2.2,0.5-2.9-0.4l-0.1-0.1C-294.3,24.4-311,17-319.3,17.2z"/>
		</g>
	</g>
</g>
<path fill="none" stroke="#4A4A4A" stroke-width="2" stroke-miterlimit="10" d="M-265.1,73.1"/>
<g>
	<g>
		
			<line fill="#ECECEC" stroke="#4A4A4A" stroke-width="2" stroke-linecap="round" stroke-miterlimit="10" x1="-351.7" y1="25" x2="-291.7" y2="10.8"/>
		<path fill="#ECECEC" stroke="#4A4A4A" stroke-width="2" stroke-linecap="round" stroke-miterlimit="10" d="M-289.5,14.1L-293,15
			c-1.1,0.3-2.2-0.4-2.4-1.5l-0.8-3.5c-0.3-1.1,0.4-2.2,1.5-2.4l3.5-0.8c1.1-0.3,2.2,0.4,2.4,1.5l0.8,3.5
			C-287.8,12.8-288.5,13.9-289.5,14.1z"/>
		<path fill="#4A4A4A" d="M-316.2,8.6c-0.7-0.4-1.5-0.6-2.3-0.4l-10.8,2.6c-1.6,0.4-2.6,2-2.2,3.6l2.6,10.9c0.4,1.6,2,2.6,3.6,2.2
			l10.9-2.6c0.2,0,0.4-0.1,0.6-0.2c0.5-0.2,1-0.6,1.3-1.1c0.4-0.7,0.6-1.5,0.4-2.3l-2.6-10.9C-315.1,9.7-315.5,9.1-316.2,8.6z
			 M-314.4,22.6c-0.1,0.2-0.4,0.4-0.6,0.4l-10.9,2.6c-0.5,0.1-1.1-0.2-1.2-0.7l-2.6-10.8c-0.1-0.5,0.1-0.9,0.6-1.1
			c0.1,0,0.1-0.1,0.2-0.1l10.8-2.6c0.3-0.1,0.5,0,0.8,0.1c0.2,0.1,0.4,0.4,0.4,0.6l2.6,10.9C-314.2,22.1-314.2,22.3-314.4,22.6z"/>
		<path fill="#ECECEC" stroke="#4A4A4A" stroke-width="2" stroke-linecap="round" stroke-miterlimit="10" d="M-349.1,28.2l-3.5,0.8
			c-1.1,0.3-2.2-0.4-2.4-1.5l-0.8-3.5c-0.3-1.1,0.4-2.2,1.5-2.4l3.5-0.8c1.1-0.3,2.2,0.4,2.4,1.5l0.8,3.5
			C-347.4,26.9-348,28-349.1,28.2z"/>
	</g>
	<g>
		<path fill="#ECECEC" d="M-317.3,10.3c-0.2-0.1-0.5-0.2-0.8-0.1l-1.3,0.3l2.2,9.4c0.1,0.3,0,0.5-0.1,0.8c-0.1,0.2-0.4,0.4-0.6,0.4
			l-9.6,2.3l0.3,1.4c0.1,0.5,0.7,0.9,1.2,0.7L-315,23c0.3-0.1,0.5-0.2,0.6-0.4c0.1-0.2,0.2-0.5,0.1-0.8l-2.6-10.9
			C-316.9,10.7-317,10.5-317.3,10.3z"/>
		<path fill="#FFFFFF" d="M-317.2,20.7c0.1-0.2,0.2-0.5,0.1-0.8l-2.2-9.4l-9.6,2.3c-0.1,0-0.1,0-0.2,0.1c-0.4,0.2-0.7,0.7-0.6,1.1
			l2.2,9.4l9.6-2.3C-317.5,21.1-317.3,20.9-317.2,20.7z"/>
	</g>
</g>
<path fill="none" stroke="#4A4A4A" stroke-width="2" stroke-miterlimit="10" d="M-163.8,65.6h-70c-0.6,0-1-0.4-1-1V14.4
	c0-0.6,0.4-1,1-1h70c0.6,0,1,0.4,1,1v50.2C-162.8,65.1-163.2,65.6-163.8,65.6z"/>
<path fill="none" stroke="#4A4A4A" stroke-width="2" stroke-linecap="round" stroke-miterlimit="10" d="M-229.1,21.6v-1.5"/>
<path fill="none" stroke="#4A4A4A" stroke-width="2" stroke-linecap="round" stroke-miterlimit="10" d="M-223.9,19h28.4
	c0.6,0,1,0.4,1,1v28c0,0.6-0.4,1-1,1h-32.6c-0.6,0-1-0.4-1-1V25"/>
<g>
	
		<line fill="none" stroke="#4A4A4A" stroke-width="2" stroke-linecap="round" stroke-miterlimit="10" x1="-190.1" y1="19" x2="-168.4" y2="19"/>
	
		<line fill="none" stroke="#4A4A4A" stroke-width="2" stroke-linecap="round" stroke-miterlimit="10" x1="-190.1" y1="24.3" x2="-168.4" y2="24.3"/>
	
		<line fill="none" stroke="#4A4A4A" stroke-width="2" stroke-linecap="round" stroke-miterlimit="10" x1="-190.1" y1="29.6" x2="-168.4" y2="29.6"/>
	
		<line fill="none" stroke="#4A4A4A" stroke-width="2" stroke-linecap="round" stroke-miterlimit="10" x1="-190.1" y1="35" x2="-168.4" y2="35"/>
</g>
<line fill="none" stroke="#4A4A4A" stroke-width="2" stroke-linecap="round" stroke-miterlimit="10" x1="-182.4" y1="42.4" x2="-172.4" y2="42.4"/>
<path fill="#FFFFFF" stroke="#4A4A4A" stroke-width="2" stroke-miterlimit="10" d="M-169.4,44.5h-2.3c-0.6,0-1-0.4-1-1v-2.3
	c0-0.6,0.4-1,1-1h2.3c0.6,0,1,0.4,1,1v2.3C-168.4,44-168.9,44.5-169.4,44.5z"/>
<line fill="none" stroke="#4A4A4A" stroke-width="2" stroke-miterlimit="10" x1="-234.7" y1="54" x2="-163.6" y2="54"/>
<g>
	<path fill="#FFFFFF" d="M-165.2,76.7c-8.9-0.1-60.7,0-68,0v3.5h68V76.7z"/>
	<path fill="#ECECEC" d="M-165.6,74.5l-5.9-14.3H-227l-5.9,14.4C-224.5,74.5-175.4,74.4-165.6,74.5z"/>
	<path fill="#4A4A4A" d="M-163,75.3c0-0.2,0-0.4-0.1-0.5l-6.6-16c-0.2-0.5-0.7-0.8-1.2-0.8h-56.6c-0.5,0-1,0.3-1.3,0.8l-6.5,15.9
		c-0.1,0.2-0.1,0.4-0.1,0.5c0,0,0,0,0,0.1l0,7h72.4l0.1-6.9v0L-163,75.3L-163,75.3z M-171.5,60.2l5.9,14.3c-9.8-0.1-58.9,0-67.3,0
		l5.9-14.4H-171.5z M-233.2,76.7c7.2,0,59.1-0.1,68,0v3.5h-68V76.7z"/>
</g>
<path fill="none" stroke="#4A4A4A" stroke-width="2" stroke-miterlimit="10" d="M-162.9,43.9h15.8c0,0,4-0.1,4.1,3.9
	c0.1,4.1-5.1,3.6-7.3,3.6c-0.7,0-1.2,0.5-1.2,1.2l0,8.6"/>
<path fill="none" stroke="#4A4A4A" stroke-width="2" stroke-miterlimit="10" d="M-144.4,81.8h-9.8c-1.1,0-2-0.9-2-2V63.5
	c0-1.1,0.9-2,2-2h9.8c1.1,0,2,0.9,2,2v16.3C-142.4,80.9-143.3,81.8-144.4,81.8z"/>
<path fill="#4A4A4A" d="M-146.4,67.8h-5.8c-0.5,0-0.9-0.4-0.9-0.9v-1.4c0-0.5,0.4-0.9,0.9-0.9h5.8c0.5,0,0.9,0.4,0.9,0.9v1.4
	C-145.5,67.4-145.9,67.8-146.4,67.8z"/>
<path fill="#ECECEC" d="M-87.9,42.6c-4.3,1-7.6,5.4-7.6,10.6c-1.6-2.5-4.2-4.1-7-4.3v21.8c5-0.4,8.9-5,8.9-10.8
	c1.7,2.6,4.5,4.4,7.6,4.4c3.1,0,5.8-1.7,7.6-4.3C-85.9,57.4-87.8,50.3-87.9,42.6z"/>
<path fill="#ECECEC" d="M-42.1,36.5c-1.6-0.5-3.3-0.8-5.2-0.8c-8.5,0-15.4,6.4-15.4,14.3s6.9,14.3,15.4,14.3c1.8,0,3.5-0.3,5.2-0.8
	V36.5z"/>
<g>
	<g id="XMLID_3_">
		<g>
			<path fill="#ECECEC" d="M-47.4,89.9h-50.4c-1.1,0-2-0.3-2.9-0.8l0.2-0.3c0-5.4,3.1-10.3,8-13.9c1.8,3.1,10,5.5,19.9,5.5
				c3,0,5.8-0.2,8.4-0.6c0,0,0,0,0,0c0.7,0,1.5-0.2,2.2-0.4c5.2-1.1,8.8-2.9,9.5-5c5.3,3.6,8.6,8.6,8.7,14.1
				C-44.8,89.4-46,89.9-47.4,89.9z"/>
			<path fill="#ECECEC" d="M-87.7,43.9c0.7-9,6.2-16.4,13.9-16.4c7.7,0,13.9,7.3,13.9,16.4v12.3v14.6v7.9c0,0-0.9,0.4-2.1,0.7
				c-0.7,0.1-1.4,0.3-2.2,0.4c0,0,0,0,0,0c-0.9,0.1-1.7-0.1-2.1-0.6c-1-1.6,0.6-35.8,0.6-35.8s0.6-11-9.3-10.9
				C-86.5,32.7-87.6,42.7-87.7,43.9L-87.7,43.9z"/>
			<path fill="#ECECEC" d="M-42,84.5c0,1.6-0.7,3.1-1.9,4.1c-0.1-5.5-3.4-10.5-8.7-14.1c-2.2-1.5-4.6-2.7-7.4-3.6h0V56.3h0.3H-42
				V84.5z"/>
			<path fill="#ECECEC" d="M-92.5,75c-5,3.6-8,8.5-8,13.9l-0.2,0.3c-1.5-1-2.5-2.7-2.5-4.6V56.3h18.6l0.1-0.1c1.9,2.2,4.7,3.6,8.4,4
				l0,0.1l0,7.9l0,1C-82.5,69.7-88.2,71.9-92.5,75z"/>
		</g>
		<g>
			<path fill="none" stroke="#4A4A4A" stroke-width="2" stroke-linecap="round" stroke-miterlimit="10" d="M-103.2,29.3v27v28.2
				c0,1.9,1,3.6,2.5,4.6c0.8,0.5,1.8,0.8,2.9,0.8h50.4c1.3,0,2.6-0.5,3.5-1.3c1.1-1,1.9-2.4,1.9-4.1V56.3V20.3c0-3-2.4-5.4-5.4-5.4
				h-50.4c-3,0-5.4,2.4-5.4,5.4v3"/>
			<polyline fill="none" stroke="#4A4A4A" stroke-width="2" stroke-miterlimit="10" points="-59.7,56.3 -42,56.3 -41.8,56.3 			"/>
			<polyline fill="none" stroke="#4A4A4A" stroke-width="2" stroke-miterlimit="10" points="-103.5,56.3 -103.2,56.3 -84.6,56.3 			
				"/>
			<path fill="none" stroke="#4A4A4A" stroke-width="2" stroke-linecap="round" stroke-miterlimit="10" d="M-64.2,79.8
				c-0.9,0.1-1.7-0.1-2.1-0.6c-1-1.6,0.6-35.8,0.6-35.8s0.6-11-9.3-10.9c-11.5,0.2-12.6,10.2-12.7,11.4c0,0.1,0,0.1,0,0.1"/>
			<path fill="none" stroke="#4A4A4A" stroke-width="2" stroke-linecap="round" stroke-miterlimit="10" d="M-70.4,59.8
				c-1.1,0.3-2.2,0.5-3.4,0.5c-0.8,0-1.5,0-2.3-0.1c-3.8-0.4-6.5-1.8-8.4-4c-2.6-3-3.6-7.4-3.2-12.2c0.7-9,6.2-16.4,13.9-16.4
				c7.7,0,13.9,7.3,13.9,16.4v12.3v14.6v7.9c0,0-0.9,0.4-2.1,0.7c-0.7,0.2-1.5,0.3-2.2,0.4"/>
			<path fill="none" stroke="#4A4A4A" stroke-width="2" stroke-miterlimit="10" d="M-59.9,70.9c2.7,0.9,5.2,2.1,7.4,3.6
				c5.3,3.6,8.6,8.6,8.7,14.1c0,0.1,0,0.1,0,0.2"/>
			<path fill="none" stroke="#4A4A4A" stroke-width="2" stroke-miterlimit="10" d="M-100.5,88.8c0-5.4,3.1-10.3,8-13.9
				c4.3-3.1,10-5.2,16.3-5.8l0-1l0-7.9"/>
			<path fill="none" stroke="#4A4A4A" stroke-width="2" stroke-miterlimit="10" d="M-64.2,79.8c-2.6,0.4-5.4,0.6-8.4,0.6
				c-9.9,0-18.1-2.4-19.9-5.5c-0.1-0.2-0.2-0.3-0.2-0.5"/>
			<path fill="none" stroke="#4A4A4A" stroke-width="2" stroke-linecap="round" stroke-miterlimit="10" d="M-64.2,79.8
				C-64.2,79.8-64.2,79.8-64.2,79.8"/>
			<path fill="none" stroke="#4A4A4A" stroke-width="2" stroke-miterlimit="10" d="M-52.4,74.2c0,0.1,0,0.2-0.1,0.3
				c-0.7,2.1-4.4,3.9-9.5,5c-0.7,0.1-1.4,0.3-2.2,0.4"/>
			<path fill="none" stroke="#4A4A4A" stroke-width="2" stroke-linecap="round" stroke-miterlimit="10" d="M-74.9,80.1
				c0,0,2-1.8,2.7-3.9"/>
			<path fill="none" stroke="#4A4A4A" stroke-width="2" stroke-linecap="round" stroke-miterlimit="10" d="M-66.5,89.8
				c0,0,5.8-1.7,6.6-6.4"/>
		</g>
	</g>
</g>
<circle fill="#FFFFFF" stroke="#4A4A4A" stroke-width="2" stroke-linecap="round" stroke-miterlimit="10" cx="-39.9" cy="20.2" r="13.8"/>
<polyline fill="#FFFFFF" stroke="#4A4A4A" stroke-width="2" stroke-linecap="round" stroke-miterlimit="10" points="-45.9,21.1 
	-41.6,25.2 -33.3,15.2 "/>
<path fill="#ECECEC" d="M-41.3,29.3c-4.4,0-8.3-2.3-10.5-5.8c1.5,5.3,6.3,9.2,12.1,9.2c6.9,0,12.5-5.6,12.5-12.5
	c0-2.5-0.7-4.8-2-6.7c0.3,1.1,0.5,2.2,0.5,3.3C-28.8,23.7-34.4,29.3-41.3,29.3z"/>
<g>
	<path fill="#FFFFFF" d="M230.8,132.7l6.6,2l-5.6-13.3c-1,0.4-2.6,1-4.5,1.7C228.2,125.2,230.3,131.6,230.8,132.7z"/>
	<path fill="#FFFFFF" d="M229,130.5c-0.7-2.4-1.7-4.7-2.6-7.1c-3.2,1.2-6.8,2.4-8.7,2.9l-0.9,0.4l0.9-0.4l5.9,14.2l4.7-8.6l1.1,0.3
		C229.3,131.7,229.2,131.1,229,130.5z"/>
	<path fill="#FFFFFF" d="M189.8,135.5l9.1-2.7l4.7,8.6l5.9-14.2c0,0,0,0,0,0c-3.1-0.8-11.4-3.8-14.1-4.9L189.8,135.5z"/>
	<path fill="#4A4A4A" d="M239.3,133.9l-5.6-13.3c-0.2-0.5-0.6-0.9-1.1-1.1c-0.5-0.2-1-0.2-1.5,0c-3,1.2-10.9,4.1-13.9,4.8
		c-0.6,0.2-1,0.5-1.3,1.1c-0.3,0.5-0.3,1.1-0.1,1.6l5.9,14.2c0.3,0.7,1,1.2,1.7,1.2c0,0,0.1,0,0.1,0c0.7,0,1.4-0.4,1.7-1l3.9-7.2
		l7.5,2.3c0.8,0.2,1.5,0,2.1-0.6C239.5,135.4,239.6,134.6,239.3,133.9z M216.9,126.7l0.9-0.4c3.2-0.8,11.4-3.8,14.1-4.9l5.6,13.3
		l-9.1-2.7l-4.7,8.6l-5.9-14.2L216.9,126.7z"/>
	<path fill="#4A4A4A" d="M209.9,125.2c-3.1-0.8-11.2-3.7-13.9-4.8c-0.5-0.2-1-0.2-1.5,0c-0.5,0.2-0.9,0.6-1.1,1.1l-5.5,13.3
		c-0.3,0.7-0.2,1.5,0.3,2.1c0.5,0.6,1.3,0.8,2.1,0.6l7.5-2.3l3.9,7.2c0.4,0.7,1,1,1.8,1c0,0,0.1,0,0.1,0c0.8,0,1.4-0.5,1.7-1.2
		l5.9-14.2c0.2-0.5,0.2-1.1-0.1-1.7C211,125.7,210.5,125.4,209.9,125.2z M209.4,127.1l-5.9,14.2l-4.7-8.6l-9.1,2.7l5.5-13.3
		C198,123.4,206.3,126.3,209.4,127.1C209.4,127.1,209.4,127.1,209.4,127.1z"/>
</g>
<g>
	<path fill="#4A4A4A" d="M210.1,0.8l-1.4-0.2c-1.7-0.2-3.2-0.7-4.6-1.5c0.4-1.3,1-2.5,1.8-3.7l1.5-2.2c0.4-0.5,0.3-1.3-0.2-1.8
		c-0.5-0.5-1.2-0.5-1.8-0.1l-1.8,1.3c-1.2,1-2.5,1.7-3.9,2.1c-0.6-1.1-1.1-2.4-1.2-3.8l-0.5-2.7c-0.1-0.7-0.7-1.1-1.4-1.1
		c-0.7,0-1.2,0.5-1.3,1.2l-0.3,2.2c-0.2,1.6-0.6,3-1.3,4.3c-1.4-0.4-2.8-1-4-1.9l-2.2-1.5C187-9,186.2-9,185.7-8.5
		c-0.5,0.5-0.5,1.3-0.1,1.8l1.3,1.8c0,0,0.1,0,0.1,0.1c1,1.2,1.7,2.7,2.1,4.1c-1.1,0.6-2.4,1-3.7,1.2L182.8,1
		c-0.7,0.1-1.2,0.7-1.2,1.4s0.5,1.2,1.2,1.3L185,4c0,0,0.1,0,0.1,0c1.4,0.2,2.7,0.6,3.9,1.2c-0.4,1.3-1,2.6-1.8,3.8l-1,1.6
		c-0.4,0.5-0.4,1.2,0,1.8c0,0,0.1,0.1,0.1,0.1c0.5,0.5,1.3,0.5,1.9,0.1l1.2-0.8c1.3-1.1,2.8-1.8,4.3-2.2c0.7,1.2,1.2,2.6,1.4,4.1
		l0.4,1.9c0.1,0.7,0.6,1.1,1.3,1.2c0.1,0,0.1,0,0.2,0c0.7,0,1.3-0.6,1.4-1.3l0.3-1.4c0.2-1.6,0.6-3.1,1.4-4.4c1.2,0.4,2.4,1,3.4,1.8
		l1.5,1c0.6,0.4,1.4,0.4,1.9-0.2c0.5-0.5,0.5-1.3,0.1-1.9l-0.8-1.2c-0.9-1.1-1.6-2.4-2-3.8c1.2-0.7,2.6-1.2,4.1-1.5l1.8-0.4
		c0.7-0.1,1.2-0.7,1.2-1.5C211.3,1.4,210.8,0.9,210.1,0.8z M203.7,3.4c-0.7,0.4-1.3,0.7-1.9,1.2c0.1,0.7,0.3,1.4,0.6,2.1
		c0.3,0.8,0.7,1.7,1.2,2.4c-0.8-0.5-1.6-0.8-2.4-1.1c-0.7-0.2-1.4-0.4-2.1-0.6c-0.4,0.6-0.8,1.2-1.1,1.9c-0.5,0.9-0.8,1.9-1.1,2.9
		c-0.2-1-0.6-2-1.1-2.9c-0.3-0.7-0.7-1.3-1.2-1.9c-0.7,0.1-1.5,0.3-2.2,0.5c-1,0.3-2,0.7-2.9,1.3c0.5-0.9,1-1.8,1.3-2.8
		c0.2-0.7,0.4-1.4,0.5-2.1c-0.6-0.4-1.2-0.8-1.9-1.1c-0.8-0.4-1.7-0.7-2.5-0.9c0.9-0.2,1.8-0.5,2.6-0.9c0.7-0.3,1.3-0.7,1.9-1.1
		c-0.1-0.7-0.3-1.5-0.5-2.2c-0.3-1-0.8-2-1.4-3c1,0.6,2,1,3,1.4c0.7,0.2,1.5,0.4,2.2,0.5c0.4-0.6,0.8-1.3,1.2-2
		c0.4-0.8,0.7-1.8,0.9-2.7c0.2,0.9,0.6,1.8,1,2.6c0.3,0.7,0.7,1.3,1.1,1.9c0.7-0.1,1.4-0.3,2.1-0.6c0.9-0.3,1.7-0.7,2.5-1.2
		c-0.5,0.8-0.9,1.7-1.2,2.6c-0.2,0.7-0.4,1.5-0.5,2.2c0.6,0.5,1.2,0.8,1.9,1.2c1,0.5,2,0.9,3.1,1.2C205.7,2.5,204.7,2.9,203.7,3.4z"
		/>
	<path fill="#FFFFFF" d="M201.8-0.1c0.1-0.7,0.3-1.5,0.5-2.2c0.3-0.9,0.7-1.7,1.2-2.6c-0.8,0.5-1.6,0.9-2.5,1.2
		c-0.7,0.2-1.4,0.4-2.1,0.6c-0.4-0.6-0.8-1.2-1.1-1.9c-0.4-0.8-0.7-1.7-1-2.6c-0.2,1-0.5,1.9-0.9,2.7c-0.3,0.7-0.7,1.3-1.2,2
		c-0.7-0.1-1.5-0.3-2.2-0.5c-1-0.3-2-0.8-3-1.4c0.6,0.9,1,1.9,1.4,3c0.2,0.7,0.4,1.5,0.5,2.2c-0.6,0.4-1.2,0.8-1.9,1.1
		c-0.8,0.4-1.7,0.7-2.6,0.9c0.9,0.2,1.7,0.5,2.5,0.9c0.7,0.3,1.3,0.7,1.9,1.1c-0.1,0.7-0.3,1.4-0.5,2.1c-0.3,1-0.7,1.9-1.3,2.8
		c0.9-0.6,1.9-1,2.9-1.3c0.7-0.2,1.4-0.4,2.2-0.5c0.4,0.6,0.8,1.2,1.2,1.9c0.5,0.9,0.8,1.9,1.1,2.9c0.2-1,0.6-2,1.1-2.9
		c0.3-0.7,0.7-1.3,1.1-1.9c0.7,0.1,1.4,0.3,2.1,0.6c0.8,0.3,1.6,0.7,2.4,1.1c-0.5-0.8-0.9-1.6-1.2-2.4c-0.3-0.7-0.5-1.4-0.6-2.1
		c0.6-0.5,1.2-0.8,1.9-1.2c1-0.5,2-0.9,3.1-1.2c-1.1-0.3-2.1-0.6-3.1-1.2C203,0.7,202.4,0.4,201.8-0.1z"/>
</g>
<g>
	<path fill="#4A4A4A" d="M179.9-8.3l-1.4-0.3c-5.2-0.5-9.4-4.5-10.1-9.7l-0.5-2.7c-0.1-0.7-0.7-1.1-1.4-1.1c-0.7,0-1.2,0.5-1.3,1.2
		l-0.3,2.1c-0.5,5.2-4.5,9.4-9.7,10.1L152.6-8c-0.7,0.1-1.2,0.7-1.2,1.4c0,0.7,0.5,1.2,1.2,1.3l2.2,0.3c0,0,0.1,0,0.1,0
		c5.1,0.6,9.2,4.5,10,9.7l0.4,1.9c0.1,0.7,0.6,1.1,1.3,1.2c0.1,0,0.1,0,0.2,0c0.7,0,1.3-0.6,1.4-1.3l0.3-1.4
		c0.5-5.2,4.5-9.4,9.7-10.2l1.8-0.4c0.7-0.1,1.2-0.7,1.2-1.5C181.2-7.6,180.6-8.2,179.9-8.3z M166.7,3.1c-1.2-4.9-5.1-8.7-10-9.9
		c4.9-1.2,8.7-5,9.9-9.9c1.2,4.9,5.1,8.7,10,9.9C171.7-5.6,167.9-1.7,166.7,3.1z"/>
	<path fill="#FFFFFF" d="M166.6-16.7c-1.2,4.9-5,8.7-9.9,9.9c4.9,1.1,8.8,5,10,9.9c1.2-4.9,5-8.8,9.9-10
		C171.7-8,167.8-11.8,166.6-16.7z"/>
</g>
<g>
	<g id="XMLID_2_">
		<g>
			<path fill="#FFFFFF" d="M79.9,35.3c0.7,0.6,1,1.4,1,2.2c0,0.8-0.4,1.5-1.2,2.1l-1.2,1c-1.8,1.4-2.3,3.8-1.4,6.1L78,48
				c0.3,0.8,0.2,1.7-0.1,2.5c-0.4,0.8-1,1.3-1.9,1.5l-1.6,0.5c-2.2,0.7-3.7,2.6-3.8,4.8L70.4,59c0,1.6-1.4,2.8-3,2.8
				c0,0-0.1,0-0.1,0c-0.1,0-0.3-0.1-0.5-0.1l-1.4-0.2c-0.4-0.1-0.8-0.1-1-0.1c-1.9,0-3.7,1.1-4.7,2.8l-0.7,1.4
				c-0.5,1-1.5,1.6-2.6,1.6c-0.8,0-1.3-0.2-1.8-0.5l-1.4-1c-0.9-0.6-2-0.9-3.1-0.9c-1.2,0-2.3,0.3-3.1,1l-1.2,0.9
				c-0.6,0.4-1.3,0.6-1.8,0.6c-1.2,0-2.1-0.6-2.7-1.5l-0.8-1.4c-1-1.7-2.8-2.7-4.7-2.7c-0.2,0-0.5,0-0.6,0.1c0,0-0.1,0-0.1,0
				L33.1,62l-0.2,0.1c0,0-0.1,0-0.3,0c-1.6,0-2.9-1.3-3-2.9l-0.1-1.6c-0.1-2.3-1.7-4.2-3.9-4.8L24,52.3c-0.8-0.2-1.5-0.7-1.9-1.5
				c-0.4-0.8-0.4-1.8-0.1-2.5l0.7-1.5c1-2,0.4-4.5-1.3-6.1l-1.3-1.2c-0.6-0.5-1-1.2-1-2.1c0-0.9,0.4-1.8,1-2.4l1.2-1
				c1.8-1.4,2.3-3.8,1.4-6.1L22,26.5c-0.3-0.9-0.3-1.8,0.1-2.6c0.4-0.8,1-1.3,1.9-1.5l1.6-0.5c2.1-0.6,3.7-2.6,3.8-4.8l0.3-1.6
				l0-0.2c0-1.6,1.4-2.8,3-2.8c0,0,0.1,0,0.1,0c0.1,0,0.3,0.1,0.5,0.1l1.4,0.2c0.4,0.1,0.8,0.1,1,0.1c1.9,0,3.7-1.1,4.7-2.8l0.7-1.4
				c0.5-1,1.5-1.6,2.6-1.6c0.6,0,1.1,0.2,1.5,0.6l1.5,1.1c0.9,0.6,2,0.9,3.1,0.9c1.2,0,2.3-0.3,3.1-1l1.3-0.8
				c0.6-0.4,1.3-0.6,1.8-0.6c1.2,0,2.2,0.6,2.7,1.5l0.8,1.4c1,1.7,2.8,2.7,4.7,2.7c0.2,0,0.5,0,0.6-0.1c0,0,0.1,0,0.1,0l1.8-0.3
				l0.2-0.1c0,0,0.1,0,0.3,0c1.6,0,2.9,1.3,3,2.9l0.1,1.7c0.1,2.3,1.7,4.2,3.8,4.8l1.7,0.5c0.8,0.2,1.5,0.7,1.9,1.5
				c0.4,0.8,0.4,1.7,0.1,2.5l-0.7,1.5c-1,2-0.4,4.5,1.3,6L79.9,35.3L79.9,35.3z"/>
			<path fill="#4A4A4A" d="M80.9,37.6c0-0.8-0.3-1.7-1-2.2l-0.1,0l-1.2-1.2c-1.7-1.6-2.3-4.1-1.3-6l0.7-1.5c0.3-0.8,0.3-1.8-0.1-2.5
				c-0.4-0.8-1.1-1.3-1.9-1.5l-1.7-0.5c-2.2-0.6-3.7-2.5-3.8-4.8l-0.1-1.7c-0.1-1.6-1.4-2.9-3-2.9c-0.2,0-0.2,0-0.3,0l-0.2,0.1
				L65,13.1c0,0-0.1,0-0.1,0c-0.2,0-0.4,0.1-0.6,0.1c-1.9,0-3.7-1-4.7-2.7L58.8,9c-0.5-1-1.5-1.5-2.7-1.5c-0.6,0-1.2,0.2-1.8,0.6
				L53,8.9c-0.8,0.6-1.9,1-3.1,1c-1.1,0-2.2-0.3-3.1-0.9l-1.5-1.1c-0.4-0.4-0.9-0.6-1.5-0.6c-1.1,0-2.1,0.6-2.6,1.6l-0.7,1.4
				c-1,1.7-2.8,2.8-4.7,2.8c-0.3,0-0.6,0-1-0.1l-1.4-0.2c-0.2,0-0.4-0.1-0.5-0.1c0,0-0.1,0-0.1,0c-1.6,0-2.9,1.3-3,2.8l0,0.2
				l-0.3,1.6c-0.2,2.2-1.7,4.1-3.8,4.8L24,22.4c-0.8,0.2-1.5,0.8-1.9,1.5c-0.4,0.8-0.4,1.8-0.1,2.6l0.7,1.5c0.9,2.3,0.3,4.7-1.4,6.1
				l-1.2,1c-0.6,0.6-1,1.5-1,2.4c0,0.8,0.4,1.6,1,2.1l1.3,1.2c1.7,1.6,2.3,4.1,1.3,6.1L22,48.3c-0.3,0.8-0.3,1.8,0.1,2.5
				c0.4,0.8,1.1,1.3,1.9,1.5l1.6,0.5c2.2,0.6,3.7,2.5,3.9,4.8l0.1,1.6c0.1,1.6,1.4,2.9,3,2.9c0.2,0,0.3,0,0.3,0l0.2-0.1l1.8-0.3
				c0,0,0.1,0,0.1,0c0.2,0,0.4-0.1,0.6-0.1c1.9,0,3.7,1,4.7,2.7l0.8,1.4c0.5,1,1.5,1.5,2.7,1.5c0.6,0,1.2-0.2,1.8-0.6l1.2-0.9
				c0.8-0.6,1.9-1,3.1-1c1.1,0,2.2,0.3,3.1,0.9l1.4,1c0.5,0.4,1,0.5,1.8,0.5c1.1,0,2.1-0.6,2.6-1.6l0.7-1.4c1-1.7,2.8-2.8,4.7-2.8
				c0.3,0,0.6,0,1,0.1l1.4,0.2c0.2,0,0.4,0,0.5,0.1c0,0,0.1,0,0.1,0c1.6,0,2.9-1.3,3-2.8l0.1-1.7c0.1-2.3,1.6-4.2,3.8-4.8L76,52
				c0.8-0.2,1.5-0.8,1.9-1.5c0.4-0.8,0.4-1.7,0.1-2.5l-0.8-1.3c-0.9-2.2-0.3-4.6,1.4-6.1l1.2-1C80.5,39.1,80.9,38.4,80.9,37.6z
				 M79.4,29c-0.5,1.1-0.2,2.5,0.8,3.4l1.2,1.2c1.2,1,1.8,2.5,1.8,4c-0.1,1.5-0.8,2.9-2,3.8l-1.1,1c-1,0.8-1.3,2.1-0.8,3.3l0.8,1.2
				c0.6,1.5,0.5,3.1-0.2,4.5c-0.7,1.4-1.8,2.3-3.3,2.7L75,54.7c-1.2,0.4-2.1,1.5-2.2,2.8l-0.1,1.6c-0.1,2.8-2.4,5-5.3,5
				c-0.3,0-0.5,0-0.6-0.1c0,0-0.1,0-0.1,0l-0.2,0l-1.9-0.3c0,0-0.1,0-0.3,0c-1,0-2.1,0.6-2.6,1.6L61,66.7c-0.9,1.7-2.7,2.8-4.7,2.8
				c-0.8,0-2-0.1-3.1-1l-1.3-0.9c-0.5-0.3-1.1-0.5-1.8-0.5c-0.5,0-1.2,0.1-1.7,0.5l-1.3,1c-1,0.7-2.1,1-3.1,1c-2,0-3.8-1-4.7-2.7
				l-0.8-1.4c-0.6-0.9-1.6-1.5-2.7-1.5c0,0-0.1,0-0.1,0c-0.1,0-0.3,0.1-0.5,0.1l-1.4,0.3c-0.4,0.1-0.8,0.1-1,0.1
				c-2.9,0-5.2-2.2-5.3-5.1l-0.1-1.6c-0.1-1.3-1-2.4-2.2-2.7l-1.6-0.5c-1.4-0.4-2.6-1.3-3.3-2.7c-0.7-1.4-0.8-3-0.2-4.5l0.7-1.5
				c0.5-1.1,0.2-2.5-0.8-3.4l-1.2-1.1c-1.1-0.9-1.7-2.3-1.8-3.8c0-1.6,0.6-3.1,1.8-4.2l1.2-1.1c1-0.8,1.3-2.1,0.8-3.5l-0.7-1.5
				c-0.6-1.5-0.5-3.1,0.2-4.5c0.7-1.4,1.8-2.3,3.3-2.7l1.6-0.5c1.2-0.4,2.1-1.5,2.2-2.8l0-0.1l0.2-1.5c0.1-2.8,2.5-5,5.3-5
				c0.2,0,0.5,0.1,0.6,0.1c0,0,0.1,0,0.1,0l0.2,0l1.9,0.3c0,0,0.1,0,0.3,0c1.1,0,2.1-0.6,2.6-1.6l0.7-1.4C40,6,41.8,4.9,43.8,4.9
				c1.2,0,2.3,0.4,3.1,1.2L48.1,7c0.5,0.3,1.1,0.5,1.8,0.5c0.5,0,1.2-0.1,1.7-0.5l0.1-0.1l1.3-0.8c0.9-0.6,2-0.9,3-0.9
				c2,0,3.8,1,4.7,2.7l0.8,1.4c0.6,0.9,1.6,1.5,2.7,1.5c0,0,0.1,0,0.1,0c0.1,0,0.3-0.1,0.5-0.1l1.4-0.3c0.4-0.1,0.8-0.1,1-0.1
				c2.9,0,5.2,2.2,5.3,5.1l0.1,1.7c0.1,1.3,1,2.4,2.2,2.7l1.6,0.5c1.4,0.4,2.6,1.3,3.3,2.7c0.7,1.4,0.8,3,0.2,4.5L79.4,29z"/>
		</g>
		<g>
			<path fill="none" stroke="#4A4A4A" stroke-width="0.25" stroke-miterlimit="10" d="M81.5,33.6l-1.2-1.2c-1-0.9-1.3-2.3-0.8-3.4
				l0.7-1.6c0.6-1.5,0.5-3.1-0.2-4.5c-0.7-1.3-1.9-2.3-3.3-2.7L75,19.8c-1.2-0.3-2.1-1.4-2.2-2.7l-0.1-1.7c-0.1-2.8-2.5-5.1-5.3-5.1
				c-0.3,0-0.6,0-1,0.1l-1.4,0.3c-0.2,0-0.4,0.1-0.5,0.1c0,0-0.1,0-0.1,0c-1.1,0-2.1-0.6-2.7-1.5l-0.8-1.4c-1-1.7-2.7-2.7-4.7-2.7
				c-1,0-2.1,0.3-3,0.9l-1.3,0.8L51.6,7c-0.6,0.4-1.2,0.5-1.7,0.5c-0.6,0-1.3-0.2-1.8-0.5l-1.2-0.9c-0.8-0.8-1.9-1.2-3.1-1.2
				c-2,0-3.8,1.1-4.7,2.8l-0.7,1.4c-0.5,1-1.6,1.6-2.6,1.6c-0.2,0-0.3,0-0.3,0l-1.9-0.3l-0.2,0c0,0-0.1,0-0.1,0
				c-0.1,0-0.4-0.1-0.6-0.1c-2.8,0-5.2,2.2-5.3,5l-0.2,1.5l0,0.1c-0.1,1.3-0.9,2.4-2.2,2.8l-1.6,0.5c-1.5,0.4-2.7,1.4-3.3,2.7
				c-0.7,1.4-0.8,3-0.2,4.5l0.7,1.5c0.5,1.3,0.2,2.6-0.8,3.5l-1.2,1.1c-1.2,1.1-1.8,2.6-1.8,4.2c0,1.5,0.7,2.9,1.8,3.8l1.2,1.1
				c1,0.9,1.3,2.3,0.8,3.4l-0.7,1.5c-0.6,1.5-0.5,3.1,0.2,4.5c0.7,1.3,1.9,2.3,3.3,2.7L25,55c1.2,0.3,2.1,1.4,2.2,2.7l0.1,1.6
				c0.1,2.8,2.5,5.1,5.3,5.1c0.3,0,0.6,0,1-0.1l1.4-0.3c0.2,0,0.4,0,0.5-0.1c0,0,0.1,0,0.1,0c1.1,0,2.1,0.6,2.7,1.5l0.8,1.4
				c0.9,1.7,2.7,2.7,4.7,2.7c1,0,2.1-0.3,3.1-1l1.3-1c0.6-0.4,1.3-0.5,1.7-0.5c0.6,0,1.3,0.2,1.8,0.5l1.3,0.9c1.2,0.8,2.3,1,3.1,1
				c2,0,3.8-1.1,4.7-2.8l0.7-1.4c0.5-1,1.6-1.6,2.6-1.6c0.2,0,0.3,0,0.3,0l1.9,0.3l0.2,0c0,0,0.1,0,0.1,0c0.2,0,0.4,0.1,0.6,0.1
				c2.8,0,5.2-2.3,5.3-5l0.1-1.6c0.1-1.3,1-2.4,2.2-2.8l1.6-0.5c1.5-0.4,2.7-1.4,3.3-2.7c0.7-1.4,0.8-3,0.2-4.5l-0.8-1.2
				c-0.4-1.3-0.1-2.5,0.8-3.3l1.1-1c1.2-0.9,2-2.3,2-3.8C83.3,36.1,82.6,34.6,81.5,33.6z"/>
			<path fill="none" stroke="#4A4A4A" stroke-width="0.5" stroke-miterlimit="10" d="M79.8,39.7l-1.2,1c-1.8,1.4-2.3,3.8-1.4,6.1
				L78,48c0.3,0.8,0.2,1.7-0.1,2.5c-0.4,0.8-1,1.3-1.9,1.5l-1.6,0.5c-2.2,0.7-3.7,2.6-3.8,4.8L70.4,59c0,1.6-1.4,2.8-3,2.8
				c0,0-0.1,0-0.1,0c-0.1,0-0.3-0.1-0.5-0.1l-1.4-0.2c-0.4-0.1-0.8-0.1-1-0.1c-1.9,0-3.7,1.1-4.7,2.8l-0.7,1.4
				c-0.5,1-1.5,1.6-2.6,1.6c-0.8,0-1.3-0.2-1.8-0.5l-1.4-1c-0.9-0.6-2-0.9-3.1-0.9c-1.2,0-2.3,0.3-3.1,1l-1.2,0.9
				c-0.6,0.4-1.3,0.6-1.8,0.6c-1.2,0-2.1-0.6-2.7-1.5l-0.8-1.4c-1-1.7-2.8-2.7-4.7-2.7c-0.2,0-0.5,0-0.6,0.1c0,0-0.1,0-0.1,0
				L33.1,62l-0.2,0.1c0,0-0.1,0-0.3,0c-1.6,0-2.9-1.3-3-2.9l-0.1-1.6c-0.1-2.3-1.7-4.2-3.9-4.8L24,52.3c-0.8-0.2-1.5-0.7-1.9-1.5
				c-0.4-0.8-0.4-1.8-0.1-2.5l0.7-1.5c1-2,0.4-4.5-1.3-6.1l-1.3-1.2c-0.6-0.5-1-1.2-1-2.1c0-0.9,0.4-1.8,1-2.4l1.2-1
				c1.8-1.4,2.3-3.8,1.4-6.1L22,26.5c-0.3-0.9-0.3-1.8,0.1-2.6c0.4-0.8,1-1.3,1.9-1.5l1.6-0.5c2.1-0.6,3.7-2.6,3.8-4.8l0.3-1.6
				l0-0.2c0-1.6,1.4-2.8,3-2.8c0,0,0.1,0,0.1,0c0.1,0,0.3,0.1,0.5,0.1l1.4,0.2c0.4,0.1,0.8,0.1,1,0.1c1.9,0,3.7-1.1,4.7-2.8l0.7-1.4
				c0.5-1,1.5-1.6,2.6-1.6c0.6,0,1.1,0.2,1.5,0.6l1.5,1.1c0.9,0.6,2,0.9,3.1,0.9c1.2,0,2.3-0.3,3.1-1l1.3-0.8
				c0.6-0.4,1.3-0.6,1.8-0.6c1.2,0,2.2,0.6,2.7,1.5l0.8,1.4c1,1.7,2.8,2.7,4.7,2.7c0.2,0,0.5,0,0.6-0.1c0,0,0.1,0,0.1,0l1.8-0.3
				l0.2-0.1c0,0,0.1,0,0.3,0c1.6,0,2.9,1.3,3,2.9l0.1,1.7c0.1,2.3,1.7,4.2,3.8,4.8l1.7,0.5c0.8,0.2,1.5,0.7,1.9,1.5
				c0.4,0.8,0.4,1.7,0.1,2.5l-0.7,1.5c-1,2-0.4,4.5,1.3,6l1.2,1.2l0.1,0c0.7,0.6,1,1.4,1,2.2C80.9,38.4,80.5,39.1,79.8,39.7z"/>
		</g>
	</g>
</g>
<path fill="none" stroke="#4A4A4A" stroke-width="2" stroke-linecap="round" stroke-miterlimit="10" d="M50,37.3"/>
<path fill="none" stroke="#4A4A4A" stroke-width="2" stroke-linecap="round" stroke-miterlimit="10" d="M62.9,32.5L54.7,32l-3.1-7.6
	c-0.3-0.7-0.9-1-1.6-1s-1.3,0.3-1.6,1l-3.1,7.7L37,32.6c-1.5,0.1-2.2,2-1,3l6.4,5.3l-1.9,8c-0.4,1.3,0.6,2.2,1.6,2.2
	c0.4,0,0.7-0.1,0.9-0.3l7-4.4l7,4.3c0.3,0.2,0.7,0.3,0.9,0.3c0.9,0,1.9-1,1.6-2.2l-2-8l6.4-5.3C65.2,34.6,64.5,32.6,62.9,32.5z"/>
<g>
	<path fill="#FFFFFF" d="M62.9,33.7l-7.5-0.5c-0.9-0.1-1.7-0.6-2-1.4l-2.9-6.9c-0.1-0.3-0.4-0.3-0.6-0.3c-0.4,0-0.5,0.2-0.5,0.3
		l-2.8,7.1c-0.3,0.8-1.1,1.4-2,1.4l-7.5,0.5c-0.3,0-0.5,0.3-0.6,0.4c-0.1,0.3,0.1,0.5,0.2,0.5l5.8,4.8c0.7,0.6,1,1.5,0.8,2.3
		l-1.8,7.3c-0.1,0.3-0.1,0.4,0,0.6c0.1,0.1,0.3,0.2,0.5,0.2c0.2,0,0.2,0,0.2,0l6.5-4.1c0.7-0.5,1.7-0.5,2.4,0l6.5,4
		c0.1,0,0.3,0.1,0.3,0.1c0.1,0,0.3-0.1,0.4-0.3c0.1-0.1,0.2-0.3,0.1-0.5l-1.9-7.4c-0.2-0.9,0.1-1.8,0.8-2.3l5.8-4.9
		c0.2-0.1,0.2-0.3,0.2-0.5C63.4,34,63.3,33.7,62.9,33.7z"/>
	<path fill="#4A4A4A" stroke="#4A4A4A" stroke-width="0.25" stroke-miterlimit="10" d="M65.7,33.5c-0.4-1.2-1.4-2-2.7-2.1l-7.5-0.5
		l-2.9-7c-0.5-1.1-1.5-1.7-2.7-1.7c-1.3,0-2.3,0.7-2.7,1.8l-2.8,7L37,31.5c-1.2,0.1-2.2,0.9-2.6,2c-0.4,1.1,0,2.3,0.9,3l5.8,4.8
		l-1.7,7.3c-0.3,0.9-0.1,1.8,0.4,2.5c0.5,0.7,1.4,1.1,2.3,1.1c0.4,0,1-0.1,1.6-0.5l6.3-4l6.5,4c0.4,0.3,1,0.4,1.5,0.4
		c0.8,0,1.7-0.4,2.2-1.2c0.6-0.7,0.7-1.6,0.5-2.5l-1.9-7.3l5.8-4.8C65.6,35.8,66,34.6,65.7,33.5z M63.3,34.6l-5.8,4.9
		c-0.7,0.6-1,1.5-0.8,2.3l1.9,7.4c0.1,0.2,0,0.4-0.1,0.5C58.3,49.9,58.1,50,58,50c-0.1,0-0.3-0.1-0.3-0.1l-6.5-4
		c-0.8-0.5-1.7-0.5-2.4,0L42.3,50c0,0-0.1,0-0.2,0c-0.2,0-0.4-0.1-0.5-0.2c-0.1-0.1-0.1-0.3,0-0.6l1.8-7.3c0.2-0.9-0.1-1.8-0.8-2.3
		l-5.8-4.8c-0.1-0.1-0.3-0.2-0.2-0.5c0.1-0.2,0.2-0.4,0.6-0.4l7.5-0.5c0.9-0.1,1.7-0.6,2-1.4l2.8-7.1c0-0.1,0.1-0.3,0.5-0.3
		c0.2,0,0.4,0.1,0.6,0.3l2.9,6.9c0.3,0.8,1.1,1.4,2,1.4l7.5,0.5c0.4,0,0.6,0.3,0.6,0.5C63.5,34.3,63.4,34.5,63.3,34.6z"/>
</g>
<rect x="-0.2" y="-13.6" fill="#FFFFFF" width="100" height="11.4"/>
<path fill="#4A4A4A" d="M-321.2,132.6c3.1-1,4.1-4.1,4.1-4.1c0.2-0.5,0.7-0.8,1.3-0.6c0.5,0.2,0.8,0.7,0.6,1.3
	c-0.1,0.2-1.4,4.1-5.4,5.4c-0.1,0-0.2,0.1-0.3,0.1c-0.4,0-0.8-0.3-1-0.7C-322,133.4-321.8,132.8-321.2,132.6z"/>
<path fill="#4A4A4A" d="M-317.9,117.2c1,0.3,1.8,0.8,2.3,1.7c0.8,1.4,0.4,3.1,0.3,3.3c-0.1,0.4-0.5,0.7-1,0.7c-0.1,0-0.2,0-0.3,0
	c-0.5-0.2-0.8-0.7-0.7-1.2c0.1-0.3,0.2-1.2-0.2-1.8c-0.2-0.3-0.5-0.6-1-0.7c-0.2-0.1-0.5-0.1-0.6,0c-0.3,0.3-0.4,1.2-0.3,2
	c0.1,0.5-0.3,1.1-0.8,1.1c-0.5,0.1-1-0.3-1.1-0.8c-0.1-0.4-0.3-2.6,0.9-3.8C-320,117.2-319.2,116.8-317.9,117.2z"/>
<path fill="#4A4A4A" d="M-331,121.7c-0.5,0.1-1-0.4-1.1-0.9c-0.1-2,0.8-3.6,2.5-4.1c1.7-0.5,3.5,0.5,4.4,2.2
	c0.8,1.8,0.2,6.4-0.2,8.9l3.2-0.7c0.5-0.1,1.1,0.2,1.2,0.8c0.1,0.5-0.2,1.1-0.8,1.2l-6.1,1.4l0.3-1.5c0.6-3,1.2-7.9,0.7-9.2
	c-0.5-1-1.4-1.3-2.1-1.2c-0.7,0.2-1.1,0.9-1,2C-330,121.2-330.4,121.7-331,121.7z"/>
</svg>
